<?plantuml 1.2026.1?><svg xmlns="http://www.w3.org/2000/svg" xmlns:xlink="http://www.w3.org/1999/xlink" contentStyleType="text/css" data-diagram-type="SEQUENCE" height="1158px" preserveAspectRatio="none" style="width:571px;height:1158px;background:#FFFFFF;" version="1.1" viewBox="0 0 571 1158" width="571px" zoomAndPan="magnify"><title>tcu_logic &#21333;&#26538;&#21363;&#25554;&#21363;&#20805;&#26102;&#24207;</title><defs/><g><text fill="#000000" font-family="PingFang SC" font-size="14" font-weight="bold" lengthAdjust="spacing" textLength="178.1608" x="197.5025" y="29.84">tcu_logic &#21333;&#26538;&#21363;&#25554;&#21363;&#20805;&#26102;&#24207;</text><rect fill="none" height="628.4" style="stroke:#000000;stroke-width:1.5;" width="441.7009" x="122.4649" y="429"/><rect fill="none" height="434.6" style="stroke:#000000;stroke-width:1.5;" width="421.7009" x="132.4649" y="521"/><g class="participant-lifeline" data-entity-uid="part1" data-qualified-name="HMI" id="part1-lifeline"><g><title>HMI</title><rect fill="#000000" fill-opacity="0.00000" height="949.2" width="8" x="16.8884" y="125.2"/><line style="stroke:#181818;stroke-width:0.5;stroke-dasharray:5,5;" x1="20" x2="20" y1="125.2" y2="1074.4"/></g></g><g class="participant-lifeline" data-entity-uid="part2" data-qualified-name="LOGIC" id="part2-lifeline"><g><title>tcu_logic</title><rect fill="#000000" fill-opacity="0.00000" height="949.2" width="8" x="174.7417" y="125.2"/><line style="stroke:#181818;stroke-width:0.5;stroke-dasharray:5,5;" x1="178.4649" x2="178.4649" y1="125.2" y2="1074.4"/></g></g><g class="participant-lifeline" data-entity-uid="part3" data-qualified-name="PILE" id="part3-lifeline"><g><title>pile_controller</title><rect fill="#000000" fill-opacity="0.00000" height="949.2" width="8" x="408.5736" y="125.2"/><line style="stroke:#181818;stroke-width:0.5;stroke-dasharray:5,5;" x1="411.8559" x2="411.8559" y1="125.2" y2="1074.4"/></g></g><g class="participant-lifeline" data-entity-uid="part4" data-qualified-name="PLAT" id="part4-lifeline"><g><title>platform</title><rect fill="#000000" fill-opacity="0.00000" height="949.2" width="8" x="505.7286" y="125.2"/><line style="stroke:#181818;stroke-width:0.5;stroke-dasharray:5,5;" x1="509.2914" x2="509.2914" y1="125.2" y2="1074.4"/></g></g><g class="participant participant-head" data-entity-uid="part1" data-qualified-name="HMI" id="part1-head"><text fill="#000000" font-family="PingFang SC" font-size="14" lengthAdjust="spacing" textLength="25.7768" x="5" y="120.44">HMI</text><ellipse cx="20.8884" cy="54.1" fill="#E2E2F0" rx="8" ry="8" style="stroke:#181818;stroke-width:0.5;"/><path d="M20.8884,62.1 L20.8884,89.1 M7.8884,70.1 L33.8884,70.1 M20.8884,89.1 L7.8884,104.1 M20.8884,89.1 L33.8884,104.1" fill="none" style="stroke:#181818;stroke-width:0.5;"/></g><g class="participant participant-tail" data-entity-uid="part1" data-qualified-name="HMI" id="part1-tail"><text fill="#000000" font-family="PingFang SC" font-size="14" lengthAdjust="spacing" textLength="25.7768" x="5" y="1088.24">HMI</text><ellipse cx="20.8884" cy="1101.5" fill="#E2E2F0" rx="8" ry="8" style="stroke:#181818;stroke-width:0.5;"/><path d="M20.8884,1109.5 L20.8884,1136.5 M7.8884,1117.5 L33.8884,1117.5 M20.8884,1136.5 L7.8884,1151.5 M20.8884,1136.5 L33.8884,1151.5" fill="none" style="stroke:#181818;stroke-width:0.5;"/></g><g class="participant participant-head" data-entity-uid="part2" data-qualified-name="LOGIC" id="part2-head"><rect fill="#E2E2F0" height="33.6" rx="2.5" ry="2.5" style="stroke:#181818;stroke-width:0.5;" width="72.5536" x="142.4649" y="90.6"/><text fill="#000000" font-family="PingFang SC" font-size="14" lengthAdjust="spacing" textLength="58.5536" x="149.4649" y="112.44">tcu_logic</text></g><g class="participant participant-tail" data-entity-uid="part2" data-qualified-name="LOGIC" id="part2-tail"><rect fill="#E2E2F0" height="33.6" rx="2.5" ry="2.5" style="stroke:#181818;stroke-width:0.5;" width="72.5536" x="142.4649" y="1073.4"/><text fill="#000000" font-family="PingFang SC" font-size="14" lengthAdjust="spacing" textLength="58.5536" x="149.4649" y="1095.24">tcu_logic</text></g><g class="participant participant-head" data-entity-uid="part3" data-qualified-name="PILE" id="part3-head"><rect fill="#E2E2F0" height="33.6" rx="2.5" ry="2.5" style="stroke:#181818;stroke-width:0.5;" width="105.4355" x="359.8559" y="90.6"/><text fill="#000000" font-family="PingFang SC" font-size="14" lengthAdjust="spacing" textLength="91.4355" x="366.8559" y="112.44">pile_controller</text></g><g class="participant participant-tail" data-entity-uid="part3" data-qualified-name="PILE" id="part3-tail"><rect fill="#E2E2F0" height="33.6" rx="2.5" ry="2.5" style="stroke:#181818;stroke-width:0.5;" width="105.4355" x="359.8559" y="1073.4"/><text fill="#000000" font-family="PingFang SC" font-size="14" lengthAdjust="spacing" textLength="91.4355" x="366.8559" y="1095.24">pile_controller</text></g><g class="participant participant-head" data-entity-uid="part4" data-qualified-name="PLAT" id="part4-head"><rect fill="#E2E2F0" height="33.6" rx="2.5" ry="2.5" style="stroke:#181818;stroke-width:0.5;" width="68.8744" x="475.2914" y="90.6"/><text fill="#000000" font-family="PingFang SC" font-size="14" lengthAdjust="spacing" textLength="54.8744" x="482.2914" y="112.44">platform</text></g><g class="participant participant-tail" data-entity-uid="part4" data-qualified-name="PLAT" id="part4-tail"><rect fill="#E2E2F0" height="33.6" rx="2.5" ry="2.5" style="stroke:#181818;stroke-width:0.5;" width="68.8744" x="475.2914" y="1073.4"/><text fill="#000000" font-family="PingFang SC" font-size="14" lengthAdjust="spacing" textLength="54.8744" x="482.2914" y="1095.24">platform</text></g><g class="message" data-entity-1="part1" data-entity-2="part2" id="msg1"><polygon fill="#181818" points="166.7417,191.8,176.7417,195.8,166.7417,199.8,170.7417,195.8" style="stroke:#181818;stroke-width:1;"/><line style="stroke:#181818;stroke-width:1;" x1="20.8884" x2="172.7417" y1="195.8" y2="195.8"/><text fill="#000000" font-family="PingFang SC" font-size="13" lengthAdjust="spacing" textLength="123.0815" x="27.8884" y="152.98">tcu/logic/{gun}/cmd</text><text fill="#000000" font-family="PingFang SC" font-size="13" lengthAdjust="spacing" textLength="76.73" x="27.8884" y="171.18">cmd=vin_req</text><text fill="#000000" font-family="PingFang SC" font-size="13" lengthAdjust="spacing" textLength="133.8533" x="27.8884" y="189.38">plugAndChargeFlag=2</text></g><g class="message" data-entity-1="part2" data-entity-2="part2" id="msg2"><line style="stroke:#181818;stroke-width:1;" x1="178.7417" x2="220.7417" y1="246.2" y2="246.2"/><line style="stroke:#181818;stroke-width:1;" x1="220.7417" x2="220.7417" y1="246.2" y2="259.2"/><line style="stroke:#181818;stroke-width:1;" x1="179.7417" x2="220.7417" y1="259.2" y2="259.2"/><polygon fill="#181818" points="189.7417,255.2,179.7417,259.2,189.7417,263.2,185.7417,259.2" style="stroke:#181818;stroke-width:1;"/><text fill="#000000" font-family="PingFang SC" font-size="13" lengthAdjust="spacing" textLength="101.9266" x="185.7417" y="221.58">updateAuthBasis</text><text fill="#000000" font-family="PingFang SC" font-size="13" lengthAdjust="spacing" textLength="101.4391" x="185.7417" y="239.78">armPendingStart</text></g><g class="message" data-entity-1="part2" data-entity-2="part3" id="msg3"><polygon fill="#181818" points="400.5736,287.4,410.5736,291.4,400.5736,295.4,404.5736,291.4" style="stroke:#181818;stroke-width:1;"/><line style="stroke:#181818;stroke-width:1;" x1="178.7417" x2="406.5736" y1="291.4" y2="291.4"/><text fill="#000000" font-family="PingFang SC" font-size="13" lengthAdjust="spacing" textLength="75.6236" x="185.7417" y="284.98">start_charge</text></g><g class="message" data-entity-1="part2" data-entity-2="part2" id="msg4"><line style="stroke:#181818;stroke-width:1;" x1="178.7417" x2="220.7417" y1="323.6" y2="323.6"/><line style="stroke:#181818;stroke-width:1;" x1="220.7417" x2="220.7417" y1="323.6" y2="336.6"/><line style="stroke:#181818;stroke-width:1;" x1="179.7417" x2="220.7417" y1="336.6" y2="336.6"/><polygon fill="#181818" points="189.7417,332.6,179.7417,336.6,189.7417,340.6,185.7417,336.6" style="stroke:#181818;stroke-width:1;"/><text fill="#000000" font-family="PingFang SC" font-size="13" lengthAdjust="spacing" textLength="147.6203" x="185.7417" y="317.18">PREPARE -&gt; STARTING</text></g><g class="message" data-entity-1="part3" data-entity-2="part2" id="msg5"><polygon fill="#181818" points="189.7417,364.8,179.7417,368.8,189.7417,372.8,185.7417,368.8" style="stroke:#181818;stroke-width:1;"/><line style="stroke:#181818;stroke-width:1;" x1="183.7417" x2="411.5736" y1="368.8" y2="368.8"/><text fill="#000000" font-family="PingFang SC" font-size="13" lengthAdjust="spacing" textLength="169.8998" x="195.7417" y="362.38">vehicle_id(vin,soc,voltage,...)</text></g><g class="message" data-entity-1="part2" data-entity-2="part2" id="msg6"><line style="stroke:#181818;stroke-width:1;" x1="178.7417" x2="220.7417" y1="401" y2="401"/><line style="stroke:#181818;stroke-width:1;" x1="220.7417" x2="220.7417" y1="401" y2="414"/><line style="stroke:#181818;stroke-width:1;" x1="179.7417" x2="220.7417" y1="414" y2="414"/><polygon fill="#181818" points="189.7417,410,179.7417,414,189.7417,418,185.7417,414" style="stroke:#181818;stroke-width:1;"/><text fill="#000000" font-family="PingFang SC" font-size="13" lengthAdjust="spacing" textLength="94.4177" x="185.7417" y="394.58">&#26657;&#39564; VIN &#21512;&#27861;&#24615;</text></g><path d="M122.4649,429 L183.4235,429 L183.4235,439.2 L173.4235,449.2 L122.4649,449.2 L122.4649,429" fill="#EEEEEE" style="stroke:#000000;stroke-width:1.5;"/><rect fill="none" height="628.4" style="stroke:#000000;stroke-width:1.5;" width="441.7009" x="122.4649" y="429"/><text fill="#000000" font-family="PingFang SC" font-size="13" font-weight="bold" lengthAdjust="spacing" textLength="15.9586" x="137.4649" y="443.78">alt</text><text fill="#000000" font-family="PingFang SC" font-size="11" font-weight="bold" lengthAdjust="spacing" textLength="52.0759" x="198.4235" y="442.66">[VIN &#21512;&#27861;]</text><g class="message" data-entity-1="part2" data-entity-2="part3" id="msg7"><polygon fill="#181818" points="400.5736,469.8,410.5736,473.8,400.5736,477.8,404.5736,473.8" style="stroke:#181818;stroke-width:1;"/><line style="stroke:#181818;stroke-width:1;" x1="178.7417" x2="406.5736" y1="473.8" y2="473.8"/><text fill="#000000" font-family="PingFang SC" font-size="13" lengthAdjust="spacing" textLength="168.3814" x="185.7417" y="467.38">vehicle_id_confirm(success)</text></g><g class="message" data-entity-1="part2" data-entity-2="part4" id="msg8"><polygon fill="#181818" points="497.7286,502,507.7286,506,497.7286,510,501.7286,506" style="stroke:#181818;stroke-width:1;"/><line style="stroke:#181818;stroke-width:1;" x1="178.7417" x2="503.7286" y1="506" y2="506"/><text fill="#000000" font-family="PingFang SC" font-size="13" lengthAdjust="spacing" textLength="186.853" x="185.7417" y="499.58">plug_and_charge_auth_request</text></g><path d="M132.4649,521 L193.4235,521 L193.4235,531.2 L183.4235,541.2 L132.4649,541.2 L132.4649,521" fill="#EEEEEE" style="stroke:#000000;stroke-width:1.5;"/><rect fill="none" height="434.6" style="stroke:#000000;stroke-width:1.5;" width="421.7009" x="132.4649" y="521"/><text fill="#000000" font-family="PingFang SC" font-size="13" font-weight="bold" lengthAdjust="spacing" textLength="15.9586" x="147.4649" y="535.78">alt</text><text fill="#000000" font-family="PingFang SC" font-size="11" font-weight="bold" lengthAdjust="spacing" textLength="73.8495" x="208.4235" y="534.66">[&#24179;&#21488;&#36820;&#22238;&#25104;&#21151;]</text><g class="message" data-entity-1="part4" data-entity-2="part2" id="msg9"><polygon fill="#181818" points="189.7417,580,179.7417,584,189.7417,588,185.7417,584" style="stroke:#181818;stroke-width:1;"/><line style="stroke:#181818;stroke-width:1;" x1="183.7417" x2="508.7286" y1="584" y2="584"/><text fill="#000000" font-family="PingFang SC" font-size="13" lengthAdjust="spacing" textLength="167.6429" x="195.7417" y="559.38">start_charge / auth_result /</text><text fill="#000000" font-family="PingFang SC" font-size="13" lengthAdjust="spacing" textLength="175.0828" x="195.7417" y="577.58">plug_and_charge_auth_result</text></g><g class="message" data-entity-1="part2" data-entity-2="part3" id="msg10"><polygon fill="#181818" points="400.5736,612.2,410.5736,616.2,400.5736,620.2,404.5736,616.2" style="stroke:#181818;stroke-width:1;"/><line style="stroke:#181818;stroke-width:1;" x1="178.7417" x2="406.5736" y1="616.2" y2="616.2"/><text fill="#000000" font-family="PingFang SC" font-size="13" lengthAdjust="spacing" textLength="131.2182" x="185.7417" y="609.78">vehicle_auth(success)</text></g><g class="message" data-entity-1="part3" data-entity-2="part2" id="msg11"><polygon fill="#181818" points="189.7417,644.4,179.7417,648.4,189.7417,652.4,185.7417,648.4" style="stroke:#181818;stroke-width:1;"/><line style="stroke:#181818;stroke-width:1;" x1="183.7417" x2="411.5736" y1="648.4" y2="648.4"/><text fill="#000000" font-family="PingFang SC" font-size="13" lengthAdjust="spacing" textLength="102.1957" x="195.7417" y="641.98">vehicle_auth_ack</text></g><g class="message" data-entity-1="part3" data-entity-2="part2" id="msg12"><polygon fill="#181818" points="189.7417,676.6,179.7417,680.6,189.7417,684.6,185.7417,680.6" style="stroke:#181818;stroke-width:1;"/><line style="stroke:#181818;stroke-width:1;" x1="183.7417" x2="411.5736" y1="680.6" y2="680.6"/><text fill="#000000" font-family="PingFang SC" font-size="13" lengthAdjust="spacing" textLength="146.7571" x="195.7417" y="674.18">start_complete(success)</text></g><g class="message" data-entity-1="part2" data-entity-2="part2" id="msg13"><line style="stroke:#181818;stroke-width:1;" x1="178.7417" x2="220.7417" y1="712.8" y2="712.8"/><line style="stroke:#181818;stroke-width:1;" x1="220.7417" x2="220.7417" y1="712.8" y2="725.8"/><line style="stroke:#181818;stroke-width:1;" x1="179.7417" x2="220.7417" y1="725.8" y2="725.8"/><polygon fill="#181818" points="189.7417,721.8,179.7417,725.8,189.7417,729.8,185.7417,725.8" style="stroke:#181818;stroke-width:1;"/><text fill="#000000" font-family="PingFang SC" font-size="13" lengthAdjust="spacing" textLength="156.2848" x="185.7417" y="706.38">STARTING -&gt; CHARGING</text></g><line style="stroke:#000000;stroke-width:1;stroke-dasharray:2,2;" x1="132.4649" x2="554.1658" y1="734.8" y2="734.8"/><text fill="#000000" font-family="PingFang SC" font-size="11" font-weight="bold" lengthAdjust="spacing" textLength="73.8495" x="137.4649" y="746.46">[&#24179;&#21488;&#36820;&#22238;&#22833;&#36133;]</text><g class="message" data-entity-1="part4" data-entity-2="part2" id="msg14"><polygon fill="#181818" points="189.7417,771.4,179.7417,775.4,189.7417,779.4,185.7417,775.4" style="stroke:#181818;stroke-width:1;"/><line style="stroke:#181818;stroke-width:1;" x1="183.7417" x2="508.7286" y1="775.4" y2="775.4"/><text fill="#000000" font-family="PingFang SC" font-size="13" lengthAdjust="spacing" textLength="201.9695" x="195.7417" y="768.98">plug_and_charge_auth_result(fail)</text></g><g class="message" data-entity-1="part2" data-entity-2="part3" id="msg15"><polygon fill="#181818" points="400.5736,803.6,410.5736,807.6,400.5736,811.6,404.5736,807.6" style="stroke:#181818;stroke-width:1;"/><line style="stroke:#181818;stroke-width:1;" x1="178.7417" x2="406.5736" y1="807.6" y2="807.6"/><text fill="#000000" font-family="PingFang SC" font-size="13" lengthAdjust="spacing" textLength="101.3039" x="185.7417" y="801.18">vehicle_auth(fail)</text></g><g class="message" data-entity-1="part2" data-entity-2="part2" id="msg16"><line style="stroke:#181818;stroke-width:1;" x1="178.7417" x2="220.7417" y1="839.8" y2="839.8"/><line style="stroke:#181818;stroke-width:1;" x1="220.7417" x2="220.7417" y1="839.8" y2="852.8"/><line style="stroke:#181818;stroke-width:1;" x1="179.7417" x2="220.7417" y1="852.8" y2="852.8"/><polygon fill="#181818" points="189.7417,848.8,179.7417,852.8,189.7417,856.8,185.7417,852.8" style="stroke:#181818;stroke-width:1;"/><text fill="#000000" font-family="PingFang SC" font-size="13" lengthAdjust="spacing" textLength="148.6226" x="185.7417" y="833.38">STARTING -&gt; STOPPED</text></g><line style="stroke:#000000;stroke-width:1;stroke-dasharray:2,2;" x1="132.4649" x2="554.1658" y1="861.8" y2="861.8"/><text fill="#000000" font-family="PingFang SC" font-size="11" font-weight="bold" lengthAdjust="spacing" textLength="78.7553" x="137.4649" y="873.46">[&#24179;&#21488; 30s &#36229;&#26102;]</text><g class="message" data-entity-1="part2" data-entity-2="part3" id="msg17"><polygon fill="#181818" points="400.5736,898.4,410.5736,902.4,400.5736,906.4,404.5736,902.4" style="stroke:#181818;stroke-width:1;"/><line style="stroke:#181818;stroke-width:1;" x1="178.7417" x2="406.5736" y1="902.4" y2="902.4"/><text fill="#000000" font-family="PingFang SC" font-size="13" lengthAdjust="spacing" textLength="209.8319" x="185.7417" y="895.98">vehicle_auth(fail, failReason=0x03)</text></g><g class="message" data-entity-1="part2" data-entity-2="part2" id="msg18"><line style="stroke:#181818;stroke-width:1;" x1="178.7417" x2="220.7417" y1="934.6" y2="934.6"/><line style="stroke:#181818;stroke-width:1;" x1="220.7417" x2="220.7417" y1="934.6" y2="947.6"/><line style="stroke:#181818;stroke-width:1;" x1="179.7417" x2="220.7417" y1="947.6" y2="947.6"/><polygon fill="#181818" points="189.7417,943.6,179.7417,947.6,189.7417,951.6,185.7417,947.6" style="stroke:#181818;stroke-width:1;"/><text fill="#000000" font-family="PingFang SC" font-size="13" lengthAdjust="spacing" textLength="148.6226" x="185.7417" y="928.18">STARTING -&gt; STOPPED</text></g><line style="stroke:#000000;stroke-width:1;stroke-dasharray:2,2;" x1="122.4649" x2="564.1658" y1="963.6" y2="963.6"/><text fill="#000000" font-family="PingFang SC" font-size="11" font-weight="bold" lengthAdjust="spacing" textLength="52.0759" x="127.4649" y="975.26">[VIN &#38750;&#27861;]</text><g class="message" data-entity-1="part2" data-entity-2="part3" id="msg19"><polygon fill="#181818" points="400.5736,1000.2,410.5736,1004.2,400.5736,1008.2,404.5736,1004.2" style="stroke:#181818;stroke-width:1;"/><line style="stroke:#181818;stroke-width:1;" x1="178.7417" x2="406.5736" y1="1004.2" y2="1004.2"/><text fill="#000000" font-family="PingFang SC" font-size="13" lengthAdjust="spacing" textLength="138.4671" x="185.7417" y="997.78">vehicle_id_confirm(fail)</text></g><g class="message" data-entity-1="part2" data-entity-2="part2" id="msg20"><line style="stroke:#181818;stroke-width:1;" x1="178.7417" x2="220.7417" y1="1036.4" y2="1036.4"/><line style="stroke:#181818;stroke-width:1;" x1="220.7417" x2="220.7417" y1="1036.4" y2="1049.4"/><line style="stroke:#181818;stroke-width:1;" x1="179.7417" x2="220.7417" y1="1049.4" y2="1049.4"/><polygon fill="#181818" points="189.7417,1045.4,179.7417,1049.4,189.7417,1053.4,185.7417,1049.4" style="stroke:#181818;stroke-width:1;"/><text fill="#000000" font-family="PingFang SC" font-size="13" lengthAdjust="spacing" textLength="130" x="185.7417" y="1029.98">&#32467;&#26463;&#26412;&#27425;&#21363;&#25554;&#21363;&#20805;&#27969;&#31243;</text></g><?plantuml-src bLH1QnD16BtFh_ZeAO6O17iJ8gmnIGCnNPBWAH26tSbcwEnit9cDWWXwA1IrfAZ5WpQre2Yb1oLQK0_-cjsc_yAPJMetJQhrCeTltlVU-zutkv9AHa1QGOTv3hKWtDwDHeVXzZWQlb1dkBaPlJuEVmmH4XkKzx6FNH0zR7ltANUWYvaWYHkRT770PDdZievT0gO2bR42Dei8OKjwFgpTgI85bjIYVSmbhFpHNW4ieBPUgHRd0NtAICTIbBx76F5Zc5cjbIwW69PTptUdrpMZXP2IWcitfvHmGm-PYuLo3vs0FyfPhjtcwYWCAE_uv5wRzrdW6Dmkzh3la3B3Jk4wcdOdQ8A-ZIKn0jcxXGKLROvzroJSLgCsfN9qtg5DgWQXgnqh9bsaCnibqsYKTAdPCXgjQhs2KDoP00r8Zreg1MgdbDcCyApCm6CIEoIJpMRJYwpHkuFJm-Tmjrg7S6Sh6kz6Zp-g3J2PA260YrRFTNJWNUgxAH5O5X4YFOTMyIgqZgk3kJsRhODL9Zh8W0Yfu5ej_3uEXvydlrw5RqRHraxuT5zTm9GWOJSP4UHWHYJKKuBST2rBTFHrp7RP51gNz0zmMQun8xOsbe9cvZotpuWayuGBmP_jKDUAQqQZelS9GDHtCXT6-FxBvEk7fM7yPTnK5rEM_lVGIs3B33PRwwPPkZtl3rRp0YR7-hk_cb06zDaWM7Yya7-GN_q_PMwZM5q_pDEzqPKVvjcC2pedFrz6U_lHswFew63kH_RjoScdPqWB_WO0?></g></svg>