<?plantuml 1.2026.1?><svg xmlns="http://www.w3.org/2000/svg" xmlns:xlink="http://www.w3.org/1999/xlink" contentStyleType="text/css" data-diagram-type="ACTIVITY" height="1447px" preserveAspectRatio="none" style="width:349px;height:1447px;background:#FFFFFF;" version="1.1" viewBox="0 0 349 1447" width="349px" zoomAndPan="magnify"><title>tcu_logic &#26222;&#36890;&#21551;&#21160;&#19982;&#20572;&#26426;&#27969;&#31243;</title><defs/><g><g class="title" data-source-line="1"><text fill="#000000" font-family="PingFang SC" font-size="14" font-weight="bold" lengthAdjust="spacing" textLength="192.1608" x="77.238" y="34.84">tcu_logic &#26222;&#36890;&#21551;&#21160;&#19982;&#20572;&#26426;&#27969;&#31243;</text></g><ellipse cx="195.8544" cy="60.6" fill="#222222" rx="10" ry="10" style="stroke:#222222;stroke-width:1;"/><rect fill="#F1F1F1" height="36.8" rx="12.5" ry="12.5" style="stroke:#181818;stroke-width:0.5;" width="151.6196" x="120.0445" y="90.6"/><text fill="#000000" font-family="PingFang SC" font-size="12" lengthAdjust="spacing" textLength="131.6196" x="130.0445" y="113.32">pile &#36965;&#20449;&#19978;&#36865;&#36710;&#36742;&#24050;&#36830;&#25509;</text><polygon fill="#F1F1F1" points="153.5813,147.4,238.1274,147.4,250.1274,159.4,238.1274,171.4,153.5813,171.4,141.5813,159.4,153.5813,147.4" style="stroke:#181818;stroke-width:0.5;"/><text fill="#000000" font-family="PingFang SC" font-size="11" lengthAdjust="spacing" textLength="84.5461" x="153.5813" y="163.36">meter/pile &#22312;&#32447;?</text><text fill="#000000" font-family="PingFang SC" font-size="11" lengthAdjust="spacing" textLength="11" x="130.5813" y="155.66">&#26159;</text><text fill="#000000" font-family="PingFang SC" font-size="11" lengthAdjust="spacing" textLength="11" x="250.1274" y="155.66">&#21542;</text><rect fill="#F1F1F1" height="36.8" rx="12.5" ry="12.5" style="stroke:#181818;stroke-width:0.5;" width="151.3629" x="50.0243" y="181.4"/><text fill="#000000" font-family="PingFang SC" font-size="12" lengthAdjust="spacing" textLength="131.3629" x="60.0243" y="204.12">&#29366;&#24577; IDLE -&gt; PREPARE</text><rect fill="#F1F1F1" height="36.8" rx="12.5" ry="12.5" style="stroke:#181818;stroke-width:0.5;" width="89.2316" x="221.3872" y="181.4"/><text fill="#000000" font-family="PingFang SC" font-size="12" lengthAdjust="spacing" textLength="69.2316" x="231.3872" y="204.12">&#36827;&#20837; ERROR</text><ellipse cx="266.003" cy="249.2" fill="none" rx="11" ry="11" style="stroke:#222222;stroke-width:1;"/><ellipse cx="266.003" cy="249.2" fill="#222222" rx="6" ry="6" style="stroke:#222222;stroke-width:1;"/><rect fill="#F1F1F1" height="36.8" rx="12.5" ry="12.5" style="stroke:#181818;stroke-width:0.5;" width="173.7021" x="109.0033" y="280.2"/><text fill="#000000" font-family="PingFang SC" font-size="12" lengthAdjust="spacing" textLength="153.7021" x="119.0033" y="302.92">&#25910;&#21040; HMI/&#24179;&#21488; start_charge</text><rect fill="#F1F1F1" height="36.8" rx="12.5" ry="12.5" style="stroke:#181818;stroke-width:0.5;" width="114.0861" x="138.8113" y="337"/><text fill="#000000" font-family="PingFang SC" font-size="12" lengthAdjust="spacing" textLength="94.0861" x="148.8113" y="359.72">updateAuthBasis</text><rect fill="#F1F1F1" height="36.8" rx="12.5" ry="12.5" style="stroke:#181818;stroke-width:0.5;" width="145.7553" x="122.9767" y="393.8"/><text fill="#000000" font-family="PingFang SC" font-size="12" lengthAdjust="spacing" textLength="125.7553" x="132.9767" y="416.52">&#32531;&#23384; pendingStartData</text><rect fill="#F1F1F1" height="36.8" rx="12.5" ry="12.5" style="stroke:#181818;stroke-width:0.5;" width="80" x="155.8544" y="450.6"/><text fill="#000000" font-family="PingFang SC" font-size="12" lengthAdjust="spacing" textLength="60" x="165.8544" y="473.32">&#29366;&#24577;&#26426;&#25918;&#34892;</text><rect fill="#F1F1F1" height="36.8" rx="12.5" ry="12.5" style="stroke:#181818;stroke-width:0.5;" width="157.4181" x="117.1453" y="507.4"/><text fill="#000000" font-family="PingFang SC" font-size="12" lengthAdjust="spacing" textLength="137.4181" x="127.1453" y="530.12">&#21521; pile &#19979;&#21457; start_charge</text><rect fill="#F1F1F1" height="36.8" rx="12.5" ry="12.5" style="stroke:#181818;stroke-width:0.5;" width="184.2609" x="103.7239" y="564.2"/><text fill="#000000" font-family="PingFang SC" font-size="12" lengthAdjust="spacing" textLength="164.2609" x="113.7239" y="586.92">&#29366;&#24577; PREPARE -&gt; STARTING</text><rect fill="#F1F1F1" height="36.8" rx="12.5" ry="12.5" style="stroke:#181818;stroke-width:0.5;" width="141.8025" x="124.9531" y="670.7"/><text fill="#000000" font-family="PingFang SC" font-size="12" lengthAdjust="spacing" textLength="121.8025" x="134.9531" y="693.42">&#37325;&#21457;&#19968;&#27425; start_charge</text><polygon fill="#F1F1F1" points="130.8757,621,260.8331,621,272.8331,633,260.8331,645,130.8757,645,118.8757,633,130.8757,621" style="stroke:#181818;stroke-width:0.5;"/><text fill="#000000" font-family="PingFang SC" font-size="11" lengthAdjust="spacing" textLength="11" x="199.8544" y="656.66">&#26159;</text><text fill="#000000" font-family="PingFang SC" font-size="11" lengthAdjust="spacing" textLength="129.9574" x="130.8757" y="636.96">30s &#20869;&#26410; start_complete?</text><polygon fill="#F1F1F1" points="195.8544,727.5,207.8544,739.5,195.8544,751.5,183.8544,739.5,195.8544,727.5" style="stroke:#181818;stroke-width:0.5;"/><polygon fill="#F1F1F1" points="129.1294,771.5,262.5793,771.5,274.5793,783.5,262.5793,795.5,129.1294,795.5,117.1294,783.5,129.1294,771.5" style="stroke:#181818;stroke-width:0.5;"/><text fill="#000000" font-family="PingFang SC" font-size="11" lengthAdjust="spacing" textLength="133.4499" x="129.1294" y="787.46">&#25910;&#21040; start_complete &#25104;&#21151;?</text><text fill="#000000" font-family="PingFang SC" font-size="11" lengthAdjust="spacing" textLength="11" x="106.1294" y="779.76">&#26159;</text><text fill="#000000" font-family="PingFang SC" font-size="11" lengthAdjust="spacing" textLength="11" x="274.5793" y="779.76">&#21542;</text><rect fill="#F1F1F1" height="36.8" rx="12.5" ry="12.5" style="stroke:#181818;stroke-width:0.5;" width="192.2589" x="11" y="805.5"/><text fill="#000000" font-family="PingFang SC" font-size="12" lengthAdjust="spacing" textLength="172.2589" x="21" y="828.22">&#29366;&#24577; STARTING -&gt; CHARGING</text><rect fill="#F1F1F1" height="36.8" rx="12.5" ry="12.5" style="stroke:#181818;stroke-width:0.5;" width="108.1148" x="230.5219" y="805.5"/><text fill="#000000" font-family="PingFang SC" font-size="12" lengthAdjust="spacing" textLength="88.1148" x="240.5219" y="828.22">&#36827;&#20837; STOPPING</text><polygon fill="#F1F1F1" points="195.8544,848.3,207.8544,860.3,195.8544,872.3,183.8544,860.3,195.8544,848.3" style="stroke:#181818;stroke-width:0.5;"/><rect fill="#F1F1F1" height="36.8" rx="12.5" ry="12.5" style="stroke:#181818;stroke-width:0.5;" width="108.1148" x="141.7969" y="948.8"/><text fill="#000000" font-family="PingFang SC" font-size="12" lengthAdjust="spacing" textLength="88.1148" x="151.7969" y="971.52">&#36827;&#20837; STOPPING</text><polygon fill="#F1F1F1" points="119.3257,892.3,272.383,892.3,284.383,907.7,272.383,923.1,119.3257,923.1,107.3257,907.7,119.3257,892.3" style="stroke:#181818;stroke-width:0.5;"/><text fill="#000000" font-family="PingFang SC" font-size="11" lengthAdjust="spacing" textLength="11" x="199.8544" y="934.76">&#26159;</text><text fill="#000000" font-family="PingFang SC" font-size="11" lengthAdjust="spacing" textLength="126.8015" x="119.3257" y="903.96">&#20805;&#30005;&#20013;&#25910;&#21040; stop_charge/</text><text fill="#000000" font-family="PingFang SC" font-size="11" lengthAdjust="spacing" textLength="153.0574" x="119.3257" y="919.36">workStatus=0/&#25925;&#38556;/&#37329;&#39069;&#20572;&#26426;?</text><polygon fill="#F1F1F1" points="195.8544,1005.6,207.8544,1017.6,195.8544,1029.6,183.8544,1017.6,195.8544,1005.6" style="stroke:#181818;stroke-width:0.5;"/><rect fill="#F1F1F1" height="36.8" rx="12.5" ry="12.5" style="stroke:#181818;stroke-width:0.5;" width="149.6889" x="121.0099" y="1093.6"/><text fill="#000000" font-family="PingFang SC" font-size="12" lengthAdjust="spacing" textLength="129.6889" x="131.0099" y="1116.32">&#27599; 2s &#37325;&#21457; stop_charge</text><rect fill="#F1F1F1" height="36.8" rx="12.5" ry="12.5" style="stroke:#181818;stroke-width:0.5;" width="92" x="149.8544" y="1165.4"/><text fill="#000000" font-family="PingFang SC" font-size="12" lengthAdjust="spacing" textLength="72" x="159.8544" y="1188.12">&#31561;&#24453;&#30005;&#34920;&#31283;&#23450;</text><polygon fill="#F1F1F1" points="143.3508,1049.6,248.3579,1049.6,260.3579,1061.6,248.3579,1073.6,143.3508,1073.6,131.3508,1061.6,143.3508,1049.6" style="stroke:#181818;stroke-width:0.5;"/><text fill="#000000" font-family="PingFang SC" font-size="11" lengthAdjust="spacing" textLength="105.0071" x="143.3508" y="1065.56">&#26410;&#28385;&#36275;&#20572;&#27490;&#25910;&#21475;&#26465;&#20214;?</text><text fill="#000000" font-family="PingFang SC" font-size="11" lengthAdjust="spacing" textLength="11" x="120.3508" y="1057.86">&#21542;</text><rect fill="#F1F1F1" height="36.8" rx="12.5" ry="12.5" style="stroke:#181818;stroke-width:0.5;" width="186.3656" x="102.6715" y="1244.2"/><text fill="#000000" font-family="PingFang SC" font-size="12" lengthAdjust="spacing" textLength="166.3656" x="112.6715" y="1266.92">&#29366;&#24577; STOPPING -&gt; STOPPED</text><rect fill="#F1F1F1" height="36.8" rx="12.5" ry="12.5" style="stroke:#181818;stroke-width:0.5;" width="68" x="161.8544" y="1301"/><text fill="#000000" font-family="PingFang SC" font-size="12" lengthAdjust="spacing" textLength="48" x="171.8544" y="1323.72">&#31561;&#24453;&#25300;&#26538;</text><rect fill="#F1F1F1" height="36.8" rx="12.5" ry="12.5" style="stroke:#181818;stroke-width:0.5;" width="152.288" x="119.7103" y="1357.8"/><text fill="#000000" font-family="PingFang SC" font-size="12" lengthAdjust="spacing" textLength="132.288" x="129.7103" y="1380.52">&#29366;&#24577; STOPPED -&gt; IDLE</text><ellipse cx="195.8544" cy="1425.6" fill="none" rx="11" ry="11" style="stroke:#222222;stroke-width:1;"/><ellipse cx="195.8544" cy="1425.6" fill="#222222" rx="6" ry="6" style="stroke:#222222;stroke-width:1;"/><line style="stroke:#181818;stroke-width:1;" x1="195.8544" x2="195.8544" y1="70.6" y2="90.6"/><polygon fill="#181818" points="191.8544,80.6,195.8544,90.6,199.8544,80.6,195.8544,84.6" style="stroke:#181818;stroke-width:1;"/><line style="stroke:#181818;stroke-width:1;" x1="266.003" x2="266.003" y1="218.2" y2="238.2"/><polygon fill="#181818" points="262.003,228.2,266.003,238.2,270.003,228.2,266.003,232.2" style="stroke:#181818;stroke-width:1;"/><line style="stroke:#181818;stroke-width:1;" x1="141.5813" x2="125.7057" y1="159.4" y2="159.4"/><line style="stroke:#181818;stroke-width:1;" x1="125.7057" x2="125.7057" y1="159.4" y2="181.4"/><polygon fill="#181818" points="121.7057,171.4,125.7057,181.4,129.7057,171.4,125.7057,175.4" style="stroke:#181818;stroke-width:1;"/><line style="stroke:#181818;stroke-width:1;" x1="250.1274" x2="266.003" y1="159.4" y2="159.4"/><line style="stroke:#181818;stroke-width:1;" x1="266.003" x2="266.003" y1="159.4" y2="181.4"/><polygon fill="#181818" points="262.003,171.4,266.003,181.4,270.003,171.4,266.003,175.4" style="stroke:#181818;stroke-width:1;"/><line style="stroke:#181818;stroke-width:1;" x1="125.7057" x2="125.7057" y1="218.2" y2="265.2"/><line style="stroke:#181818;stroke-width:1;" x1="125.7057" x2="195.8544" y1="265.2" y2="265.2"/><line style="stroke:#181818;stroke-width:1;" x1="195.8544" x2="195.8544" y1="265.2" y2="280.2"/><polygon fill="#181818" points="191.8544,270.2,195.8544,280.2,199.8544,270.2,195.8544,274.2" style="stroke:#181818;stroke-width:1;"/><line style="stroke:#181818;stroke-width:1;" x1="195.8544" x2="195.8544" y1="127.4" y2="147.4"/><polygon fill="#181818" points="191.8544,137.4,195.8544,147.4,199.8544,137.4,195.8544,141.4" style="stroke:#181818;stroke-width:1;"/><line style="stroke:#181818;stroke-width:1;" x1="195.8544" x2="195.8544" y1="317" y2="337"/><polygon fill="#181818" points="191.8544,327,195.8544,337,199.8544,327,195.8544,331" style="stroke:#181818;stroke-width:1;"/><line style="stroke:#181818;stroke-width:1;" x1="195.8544" x2="195.8544" y1="373.8" y2="393.8"/><polygon fill="#181818" points="191.8544,383.8,195.8544,393.8,199.8544,383.8,195.8544,387.8" style="stroke:#181818;stroke-width:1;"/><line style="stroke:#181818;stroke-width:1;" x1="195.8544" x2="195.8544" y1="430.6" y2="450.6"/><polygon fill="#181818" points="191.8544,440.6,195.8544,450.6,199.8544,440.6,195.8544,444.6" style="stroke:#181818;stroke-width:1;"/><line style="stroke:#181818;stroke-width:1;" x1="195.8544" x2="195.8544" y1="487.4" y2="507.4"/><polygon fill="#181818" points="191.8544,497.4,195.8544,507.4,199.8544,497.4,195.8544,501.4" style="stroke:#181818;stroke-width:1;"/><line style="stroke:#181818;stroke-width:1;" x1="195.8544" x2="195.8544" y1="544.2" y2="564.2"/><polygon fill="#181818" points="191.8544,554.2,195.8544,564.2,199.8544,554.2,195.8544,558.2" style="stroke:#181818;stroke-width:1;"/><line style="stroke:#181818;stroke-width:1;" x1="195.8544" x2="195.8544" y1="645" y2="670.7"/><polygon fill="#181818" points="191.8544,660.7,195.8544,670.7,199.8544,660.7,195.8544,664.7" style="stroke:#181818;stroke-width:1;"/><line style="stroke:#181818;stroke-width:1;" x1="272.8331" x2="284.8331" y1="633" y2="633"/><polygon fill="#181818" points="280.8331,679.1,284.8331,689.1,288.8331,679.1,284.8331,683.1" style="stroke:#181818;stroke-width:1;"/><line style="stroke:#181818;stroke-width:1;" x1="284.8331" x2="284.8331" y1="633" y2="739.5"/><line style="stroke:#181818;stroke-width:1;" x1="284.8331" x2="207.8544" y1="739.5" y2="739.5"/><polygon fill="#181818" points="217.8544,735.5,207.8544,739.5,217.8544,743.5,213.8544,739.5" style="stroke:#181818;stroke-width:1;"/><line style="stroke:#181818;stroke-width:1;" x1="195.8544" x2="195.8544" y1="707.5" y2="727.5"/><polygon fill="#181818" points="191.8544,717.5,195.8544,727.5,199.8544,717.5,195.8544,721.5" style="stroke:#181818;stroke-width:1;"/><line style="stroke:#181818;stroke-width:1;" x1="195.8544" x2="195.8544" y1="601" y2="621"/><polygon fill="#181818" points="191.8544,611,195.8544,621,199.8544,611,195.8544,615" style="stroke:#181818;stroke-width:1;"/><line style="stroke:#181818;stroke-width:1;" x1="117.1294" x2="107.1294" y1="783.5" y2="783.5"/><line style="stroke:#181818;stroke-width:1;" x1="107.1294" x2="107.1294" y1="783.5" y2="805.5"/><polygon fill="#181818" points="103.1294,795.5,107.1294,805.5,111.1294,795.5,107.1294,799.5" style="stroke:#181818;stroke-width:1;"/><line style="stroke:#181818;stroke-width:1;" x1="274.5793" x2="284.5793" y1="783.5" y2="783.5"/><line style="stroke:#181818;stroke-width:1;" x1="284.5793" x2="284.5793" y1="783.5" y2="805.5"/><polygon fill="#181818" points="280.5793,795.5,284.5793,805.5,288.5793,795.5,284.5793,799.5" style="stroke:#181818;stroke-width:1;"/><line style="stroke:#181818;stroke-width:1;" x1="107.1294" x2="107.1294" y1="842.3" y2="860.3"/><line style="stroke:#181818;stroke-width:1;" x1="107.1294" x2="183.8544" y1="860.3" y2="860.3"/><polygon fill="#181818" points="173.8544,856.3,183.8544,860.3,173.8544,864.3,177.8544,860.3" style="stroke:#181818;stroke-width:1;"/><line style="stroke:#181818;stroke-width:1;" x1="284.5793" x2="284.5793" y1="842.3" y2="860.3"/><line style="stroke:#181818;stroke-width:1;" x1="284.5793" x2="207.8544" y1="860.3" y2="860.3"/><polygon fill="#181818" points="217.8544,856.3,207.8544,860.3,217.8544,864.3,213.8544,860.3" style="stroke:#181818;stroke-width:1;"/><line style="stroke:#181818;stroke-width:1;" x1="195.8544" x2="195.8544" y1="751.5" y2="771.5"/><polygon fill="#181818" points="191.8544,761.5,195.8544,771.5,199.8544,761.5,195.8544,765.5" style="stroke:#181818;stroke-width:1;"/><line style="stroke:#181818;stroke-width:1;" x1="195.8544" x2="195.8544" y1="923.1" y2="948.8"/><polygon fill="#181818" points="191.8544,938.8,195.8544,948.8,199.8544,938.8,195.8544,942.8" style="stroke:#181818;stroke-width:1;"/><line style="stroke:#181818;stroke-width:1;" x1="284.383" x2="296.383" y1="907.7" y2="907.7"/><polygon fill="#181818" points="292.383,955.5,296.383,965.5,300.383,955.5,296.383,959.5" style="stroke:#181818;stroke-width:1;"/><line style="stroke:#181818;stroke-width:1;" x1="296.383" x2="296.383" y1="907.7" y2="1017.6"/><line style="stroke:#181818;stroke-width:1;" x1="296.383" x2="207.8544" y1="1017.6" y2="1017.6"/><polygon fill="#181818" points="217.8544,1013.6,207.8544,1017.6,217.8544,1021.6,213.8544,1017.6" style="stroke:#181818;stroke-width:1;"/><line style="stroke:#181818;stroke-width:1;" x1="195.8544" x2="195.8544" y1="985.6" y2="1005.6"/><polygon fill="#181818" points="191.8544,995.6,195.8544,1005.6,199.8544,995.6,195.8544,999.6" style="stroke:#181818;stroke-width:1;"/><line style="stroke:#181818;stroke-width:1;" x1="195.8544" x2="195.8544" y1="872.3" y2="892.3"/><polygon fill="#181818" points="191.8544,882.3,195.8544,892.3,199.8544,882.3,195.8544,886.3" style="stroke:#181818;stroke-width:1;"/><line style="stroke:#181818;stroke-width:1;" x1="195.8544" x2="195.8544" y1="1130.4" y2="1165.4"/><polygon fill="#181818" points="191.8544,1155.4,195.8544,1165.4,199.8544,1155.4,195.8544,1159.4" style="stroke:#181818;stroke-width:1;"/><line style="stroke:#181818;stroke-width:1;" x1="195.8544" x2="195.8544" y1="1073.6" y2="1093.6"/><polygon fill="#181818" points="191.8544,1083.6,195.8544,1093.6,199.8544,1083.6,195.8544,1087.6" style="stroke:#181818;stroke-width:1;"/><line style="stroke:#181818;stroke-width:1;" x1="195.8544" x2="195.8544" y1="1202.2" y2="1212.2"/><line style="stroke:#181818;stroke-width:1;" x1="195.8544" x2="282.6988" y1="1212.2" y2="1212.2"/><polygon fill="#181818" points="278.6988,1145.9,282.6988,1135.9,286.6988,1145.9,282.6988,1141.9" style="stroke:#181818;stroke-width:1;"/><line style="stroke:#181818;stroke-width:1;" x1="282.6988" x2="282.6988" y1="1061.6" y2="1212.2"/><line style="stroke:#181818;stroke-width:1;" x1="282.6988" x2="260.3579" y1="1061.6" y2="1061.6"/><polygon fill="#181818" points="270.3579,1057.6,260.3579,1061.6,270.3579,1065.6,266.3579,1061.6" style="stroke:#181818;stroke-width:1;"/><line style="stroke:#181818;stroke-width:1;" x1="131.3508" x2="109.0099" y1="1061.6" y2="1061.6"/><polygon fill="#181818" points="105.0099,1131.9,109.0099,1141.9,113.0099,1131.9,109.0099,1135.9" style="stroke:#181818;stroke-width:1;"/><line style="stroke:#181818;stroke-width:1;" x1="109.0099" x2="109.0099" y1="1061.6" y2="1224.2"/><line style="stroke:#181818;stroke-width:1;" x1="109.0099" x2="195.8544" y1="1224.2" y2="1224.2"/><line style="stroke:#181818;stroke-width:1;" x1="195.8544" x2="195.8544" y1="1224.2" y2="1244.2"/><polygon fill="#181818" points="191.8544,1234.2,195.8544,1244.2,199.8544,1234.2,195.8544,1238.2" style="stroke:#181818;stroke-width:1;"/><line style="stroke:#181818;stroke-width:1;" x1="195.8544" x2="195.8544" y1="1029.6" y2="1049.6"/><polygon fill="#181818" points="191.8544,1039.6,195.8544,1049.6,199.8544,1039.6,195.8544,1043.6" style="stroke:#181818;stroke-width:1;"/><line style="stroke:#181818;stroke-width:1;" x1="195.8544" x2="195.8544" y1="1281" y2="1301"/><polygon fill="#181818" points="191.8544,1291,195.8544,1301,199.8544,1291,195.8544,1295" style="stroke:#181818;stroke-width:1;"/><line style="stroke:#181818;stroke-width:1;" x1="195.8544" x2="195.8544" y1="1337.8" y2="1357.8"/><polygon fill="#181818" points="191.8544,1347.8,195.8544,1357.8,199.8544,1347.8,195.8544,1351.8" style="stroke:#181818;stroke-width:1;"/><line style="stroke:#181818;stroke-width:1;" x1="195.8544" x2="195.8544" y1="1394.6" y2="1414.6"/><polygon fill="#181818" points="191.8544,1404.6,195.8544,1414.6,199.8544,1404.6,195.8544,1408.6" style="stroke:#181818;stroke-width:1;"/><?plantuml-src TL9DJnf16BxFhvWZ7XfCUsFJ6YghahHA5eycPW8BR8JT3Jk4AnnG2wr0IXDBqMPjCCGKCILIgYtycPrXzrzqPbZhLxrDvdtc-PeNQpYhGfmeR6UDj9Q0zFEvLsgJne1KUyxuW9Gxj7D5BykpNWq0QqVJJPH7EMXbKD8eQdeQfb3MKkzCaceA5R9unT3nEigfCCP0AuW1uykC0ACy1Y1aQapKAtUTgUsCgrwfxFuvTIUxvESFTtfC3xeIq58ma5EncWyABEdqPbVJfGM8CweE0_Hmi00W3Csg8regmsZaZGoVlO8nHOw55La2AlC40wHnAb3kz0kfTA6iA1kAn2uiR9X0rPDQYbcXhH7Plu1hRwD1ycj8wXTGcDnEP50-hKeWL32J2AlX0iwyHfPciPlPxu-aVmXDJg6dunmUGHZnYV336sjDNFizko6D9XG9d76Dr9iFoVq0ld6U8RuPLZQZwwiI41syMBGWsQtGpjdDKoDdPbanZxhmzZum0MTSej_j1p9-LixdnxtF1Ub-WrI_FbNlZILkRtajhAmAU__jEBwv4OlDnxUQf5APjIwTSV-Vk67wte9RUj78xx0ESS5wkHYadofUknFqzfhUoT5y-HwvUaggcE4z1rXLzDfsHqF-l7_2DUlVw97jN8-Mn7iwgCFd5fptTTUC93Bttv49z-lQlLblICxRGi0d5t71RJ5p2_D_OsSvmlzKCD1QYnwVIVUnSeH3-RfAG6pXNm00?></g></svg>