<?plantuml 1.2026.1?><svg xmlns="http://www.w3.org/2000/svg" xmlns:xlink="http://www.w3.org/1999/xlink" contentStyleType="text/css" data-diagram-type="DESCRIPTION" height="408px" preserveAspectRatio="none" style="width:2566px;height:408px;background:#FFFFFF;" version="1.1" viewBox="0 0 2566 408" width="2566px" zoomAndPan="magnify"><title>tcu_logic &#19994;&#21153;&#24635;&#35272;</title><defs/><g><g class="title" data-source-line="1"><text fill="#000000" font-family="PingFang SC" font-size="14" font-weight="bold" lengthAdjust="spacing" textLength="122.1608" x="1215.2279" y="24.84">tcu_logic &#19994;&#21153;&#24635;&#35272;</text></g><!--cluster tcu_logic--><g class="cluster" data-qualified-name="tcu_logic" data-source-line="14" id="ent0008"><path d="M8.5,47.86 L70.9988,47.86 A3.75,3.75 0 0 1 73.4988,50.36 L80.4988,73.46 L761.5,73.46 A2.5,2.5 0 0 1 764,75.96 L764,385.56 A2.5,2.5 0 0 1 761.5,388.06 L8.5,388.06 A2.5,2.5 0 0 1 6,385.56 L6,50.36 A2.5,2.5 0 0 1 8.5,47.86" fill="none" style="stroke:#000000;stroke-width:1.5;"/><line style="stroke:#000000;stroke-width:1.5;" x1="6" x2="80.4988" y1="73.46" y2="73.46"/><text fill="#000000" font-family="PingFang SC" font-size="14" font-weight="bold" lengthAdjust="spacing" textLength="61.4988" x="10" y="64.7">tcu_logic</text></g><!--entity LOGIC--><g class="entity" data-qualified-name="tcu_logic.LOGIC" data-source-line="15" id="ent0009"><rect fill="#F1F1F1" height="39.6" rx="2.5" ry="2.5" style="stroke:#181818;stroke-width:0.5;" width="154.9237" x="593.54" y="85.86"/><text fill="#000000" font-family="PingFang SC" font-size="14" lengthAdjust="spacing" textLength="134.9237" x="603.54" y="110.7">ChargeLogicProcess</text></g><!--entity FSM--><g class="entity" data-qualified-name="tcu_logic.FSM" data-source-line="16" id="ent0010"><rect fill="#F1F1F1" height="78.8" rx="2.5" ry="2.5" style="stroke:#181818;stroke-width:0.5;" width="296.9888" x="259.51" y="293.26"/><text fill="#000000" font-family="PingFang SC" font-size="14" lengthAdjust="spacing" textLength="150.4399" x="269.51" y="318.1">Per-Gun StateMachine</text><text fill="#000000" font-family="PingFang SC" font-size="14" lengthAdjust="spacing" textLength="183.4757" x="269.51" y="337.7">IDLE/PREPARE/STARTING/</text><text fill="#000000" font-family="PingFang SC" font-size="14" lengthAdjust="spacing" textLength="276.9888" x="269.51" y="357.3">CHARGING/STOPPING/STOPPED/ERROR</text></g><!--entity PNC--><g class="entity" data-qualified-name="tcu_logic.PNC" data-source-line="17" id="ent0011"><rect fill="#F1F1F1" height="39.6" rx="2.5" ry="2.5" style="stroke:#181818;stroke-width:0.5;" width="202.8905" x="21.55" y="312.86"/><text fill="#000000" font-family="PingFang SC" font-size="14" lengthAdjust="spacing" textLength="182.8905" x="31.55" y="337.7">PlugAndCharge Coordinator</text></g><!--entity FEE--><g class="entity" data-qualified-name="tcu_logic.FEE" data-source-line="18" id="ent0012"><rect fill="#F1F1F1" height="39.6" rx="2.5" ry="2.5" style="stroke:#181818;stroke-width:0.5;" width="156.5155" x="591.74" y="312.86"/><text fill="#000000" font-family="PingFang SC" font-size="14" lengthAdjust="spacing" textLength="136.5155" x="601.74" y="337.7">Fee &amp; Trade Context</text></g><!--entity HMI--><g class="entity" data-qualified-name="HMI" data-source-line="7" id="ent0002"><rect fill="#F1F1F1" height="39.6" rx="2.5" ry="2.5" style="stroke:#181818;stroke-width:0.5;" width="45.7768" x="1637.11" y="85.86"/><text fill="#000000" font-family="PingFang SC" font-size="14" lengthAdjust="spacing" textLength="25.7768" x="1647.11" y="110.7">HMI</text></g><!--entity PLAT--><g class="entity" data-qualified-name="PLAT" data-source-line="8" id="ent0003"><rect fill="#F1F1F1" height="39.6" rx="2.5" ry="2.5" style="stroke:#181818;stroke-width:0.5;" width="75.6598" x="1787.17" y="85.86"/><text fill="#000000" font-family="PingFang SC" font-size="14" lengthAdjust="spacing" textLength="55.6598" x="1797.17" y="110.7">Platform</text></g><!--entity PILE--><g class="entity" data-qualified-name="PILE" data-source-line="9" id="ent0004"><rect fill="#F1F1F1" height="39.6" rx="2.5" ry="2.5" style="stroke:#181818;stroke-width:0.5;" width="111.4355" x="1963.28" y="85.86"/><text fill="#000000" font-family="PingFang SC" font-size="14" lengthAdjust="spacing" textLength="91.4355" x="1973.28" y="110.7">pile_controller</text></g><!--entity METER--><g class="entity" data-qualified-name="METER" data-source-line="10" id="ent0005"><rect fill="#F1F1F1" height="39.6" rx="2.5" ry="2.5" style="stroke:#181818;stroke-width:0.5;" width="57.625" x="2184.19" y="85.86"/><text fill="#000000" font-family="PingFang SC" font-size="14" lengthAdjust="spacing" textLength="37.625" x="2194.19" y="110.7">meter</text></g><!--entity LOGGER--><g class="entity" data-qualified-name="LOGGER" data-source-line="11" id="ent0006"><path d="M2390.52,91.36 C2390.52,81.36 2421.0027,81.36 2421.0027,81.36 C2421.0027,81.36 2451.4854,81.36 2451.4854,91.36 L2451.4854,119.96 C2451.4854,129.96 2421.0027,129.96 2421.0027,129.96 C2421.0027,129.96 2390.52,129.96 2390.52,119.96 L2390.52,91.36" fill="#F1F1F1" style="stroke:#181818;stroke-width:0.5;"/><path d="M2390.52,91.36 C2390.52,101.36 2421.0027,101.36 2421.0027,101.36 C2421.0027,101.36 2451.4854,101.36 2451.4854,91.36" fill="none" style="stroke:#181818;stroke-width:0.5;"/><text fill="#000000" font-family="PingFang SC" font-size="14" lengthAdjust="spacing" textLength="40.9654" x="2400.52" y="120.2">logger</text></g><!--entity BROKER--><g class="entity" data-qualified-name="BROKER" data-source-line="12" id="ent0007"><path d="M1424.89,317.86 L1523.1153,317.86 C1528.1153,317.86 1528.1153,332.66 1528.1153,332.66 C1528.1153,332.66 1528.1153,347.46 1523.1153,347.46 L1424.89,347.46 C1419.89,347.46 1419.89,332.66 1419.89,332.66 C1419.89,332.66 1419.89,317.86 1424.89,317.86" fill="#F1F1F1" style="stroke:#181818;stroke-width:0.5;"/><path d="M1523.1153,317.86 C1518.1153,317.86 1518.1153,332.66 1518.1153,332.66 C1518.1153,347.46 1523.1153,347.46 1523.1153,347.46" fill="none" style="stroke:#181818;stroke-width:0.5;"/><text fill="#000000" font-family="PingFang SC" font-size="14" lengthAdjust="spacing" textLength="88.2253" x="1424.89" y="337.7">MQTT Broker</text></g><g class="entity" data-qualified-name="GMN26" data-source-line="39" id="ent0027"><path d="M1563.52,263.96 L1563.52,401.36 L1798.4818,401.36 L1798.4818,273.96 L1788.4818,263.96 L1563.52,263.96" fill="#FEFFDD" style="stroke:#181818;stroke-width:0.5;"/><path d="M1788.4818,263.96 L1788.4818,273.96 L1798.4818,273.96 L1788.4818,263.96" fill="#FEFFDD" style="stroke:#181818;stroke-width:1;"/><text fill="#000000" font-family="PingFang SC" font-size="13" lengthAdjust="spacing" textLength="81.4346" x="1569.52" y="282.74">&#21363;&#25554;&#21363;&#20805;&#32844;&#36131;:</text><text fill="#000000" font-family="PingFang SC" font-size="13" lengthAdjust="spacing" textLength="102.1944" x="1569.52" y="300.94">1. &#25509;&#25910; vehicle_id</text><text fill="#000000" font-family="PingFang SC" font-size="13" lengthAdjust="spacing" textLength="96.8838" x="1569.52" y="319.14">2. &#23436;&#25104; VIN &#26657;&#39564;</text><text fill="#000000" font-family="PingFang SC" font-size="13" lengthAdjust="spacing" textLength="119.4271" x="1569.52" y="337.34">3. &#21457;&#24067;&#24179;&#21488;&#37492;&#26435;&#35831;&#27714;</text><text fill="#000000" font-family="PingFang SC" font-size="13" lengthAdjust="spacing" textLength="119.5012" x="1569.52" y="355.54">4. &#25509;&#25910;&#24179;&#21488;&#37492;&#26435;&#32467;&#26524;</text><text fill="#000000" font-family="PingFang SC" font-size="13" lengthAdjust="spacing" textLength="120.2241" x="1569.52" y="373.74">5. &#19979;&#21457; vehicle_auth</text><text fill="#000000" font-family="PingFang SC" font-size="13" lengthAdjust="spacing" textLength="213.9618" x="1569.52" y="391.94">6. &#21512;&#24182;&#20805;&#22330;&#26223;&#19979;&#26657;&#39564;&#21452;&#26538; VIN &#19968;&#33268;&#24615;</text></g><!--link HMI to BROKER--><g class="link" data-entity-1="ent0002" data-entity-2="ent0007" data-link-type="dependency" data-source-line="21" id="lnk13"><path d="M1659.18,125.56 C1657.01,152.85 1649.17,203.34 1621,233.96 C1596.69,260.38 1576.27,244.66 1546,263.96 C1522.27,279.09 1503.4014,298.1491 1490.0214,313.0991" fill="none" id="HMI-to-BROKER" style="stroke:#181818;stroke-width:1;"/><polygon fill="#181818" points="1486.02,317.57,1495.0027,313.5312,1489.3545,313.8442,1489.0415,308.1961,1486.02,317.57" style="stroke:#181818;stroke-width:1;"/><text fill="#000000" font-family="PingFang SC" font-size="13" lengthAdjust="spacing" textLength="123.0815" x="1655.29" y="201.74">tcu/logic/{gun}/cmd</text></g><!--link PLAT to BROKER--><g class="link" data-entity-1="ent0003" data-entity-2="ent0007" data-link-type="dependency" data-source-line="22" id="lnk14"><path d="M1825.18,125.64 C1824.33,153.97 1818.2,206.89 1786,233.96 C1703.71,303.12 1643.28,218.22 1546,263.96 C1519.91,276.22 1500.7833,296.845 1488.1533,312.805" fill="none" id="PLAT-to-BROKER" style="stroke:#181818;stroke-width:1;"/><polygon fill="#181818" points="1484.43,317.51,1493.1516,312.9347,1487.5328,313.5892,1486.8783,307.9703,1484.43,317.51" style="stroke:#181818;stroke-width:1;"/><text fill="#000000" font-family="PingFang SC" font-size="13" lengthAdjust="spacing" textLength="152.8555" x="1822.39" y="201.74">tcu/plat/{gun}/cmd,event</text></g><!--link PILE to BROKER--><g class="link" data-entity-1="ent0004" data-entity-2="ent0007" data-link-type="dependency" data-source-line="23" id="lnk15"><path d="M2015.85,125.72 C2010.14,157.8 1997.06,220.41 1980,233.96 C1904.3,294.09 1634.59,225.26 1546,263.96 C1519.43,275.57 1500.2212,296.5965 1487.7512,312.7865" fill="none" id="PILE-to-BROKER" style="stroke:#181818;stroke-width:1;"/><polygon fill="#181818" points="1484.09,317.54,1492.7508,312.8507,1487.141,313.5788,1486.4129,307.969,1484.09,317.54" style="stroke:#181818;stroke-width:1;"/><text fill="#000000" font-family="PingFang SC" font-size="13" lengthAdjust="spacing" textLength="152.4486" x="2009.19" y="201.74">tcu/pile/{gun}/event,data</text></g><!--link METER to BROKER--><g class="link" data-entity-1="ent0005" data-entity-2="ent0007" data-link-type="dependency" data-source-line="24" id="lnk16"><path d="M2212.82,125.54 C2211.41,154.24 2204.07,208.24 2170,233.96 C2114.6,275.78 1609.9,236.84 1546,263.96 C1519.31,275.29 1500.1211,296.3911 1487.6911,312.6711" fill="none" id="METER-to-BROKER" style="stroke:#181818;stroke-width:1;"/><polygon fill="#181818" points="1484.05,317.44,1492.6909,312.7141,1487.0843,313.4659,1486.3324,307.8593,1484.05,317.44" style="stroke:#181818;stroke-width:1;"/><text fill="#000000" font-family="PingFang SC" font-size="13" lengthAdjust="spacing" textLength="166.1271" x="2209.77" y="201.74">tcu/meter/{gun}/data,event</text></g><!--link LOGGER to BROKER--><g class="link" data-entity-1="ent0006" data-entity-2="ent0007" data-link-type="dependency" data-source-line="25" id="lnk17"><path d="M2421.36,130.45 C2420.38,160.04 2413.72,209.61 2382,233.96 C2308.27,290.56 1631.78,228.17 1546,263.96 C1519.24,275.12 1500.0589,296.2718 1487.6489,312.6118" fill="none" id="LOGGER-to-BROKER" style="stroke:#181818;stroke-width:1;"/><polygon fill="#181818" points="1484.02,317.39,1492.6489,312.6421,1487.0441,313.4082,1486.278,307.8035,1484.02,317.39" style="stroke:#181818;stroke-width:1;"/><text fill="#000000" font-family="PingFang SC" font-size="13" lengthAdjust="spacing" textLength="139.0065" x="2419.61" y="201.74">tcu/logger/{gun}/event</text></g><!--link BROKER to LOGIC--><g class="link" data-entity-1="ent0007" data-entity-2="ent0009" data-link-type="dependency" data-source-line="27" id="lnk18"><path d="M1419.59,331.29 C1266.59,329.23 836.56,316.08 727,233.96 C717.77,227.05 693.2832,165.1942 680.3532,131.3842" fill="none" id="BROKER-to-LOGIC" style="stroke:#181818;stroke-width:1;"/><polygon fill="#181818" points="678.21,125.78,677.6887,135.6151,679.996,130.4501,685.1609,132.7574,678.21,125.78" style="stroke:#181818;stroke-width:1;"/><text fill="#000000" font-family="PingFang SC" font-size="13" lengthAdjust="spacing" textLength="58.1179" x="728" y="201.74">subscribe</text></g><!--link LOGIC to BROKER--><g class="link" data-entity-1="ent0009" data-entity-2="ent0007" data-link-type="dependency" data-source-line="28" id="lnk19"><path d="M736.14,125.93 C755.53,134.05 775.67,145.15 791,159.96 C817.31,185.37 797.53,212.3 827,233.96 C921.1,303.14 1275.465,323.9762 1413.635,329.5962" fill="none" id="LOGIC-to-BROKER" style="stroke:#181818;stroke-width:1;"/><polygon fill="#181818" points="1419.63,329.84,1410.8,325.4775,1414.6341,329.6368,1410.4749,333.4709,1419.63,329.84" style="stroke:#181818;stroke-width:1;"/><text fill="#000000" font-family="PingFang SC" font-size="13" lengthAdjust="spacing" textLength="42.7701" x="828" y="201.74">publish</text></g><!--link LOGIC to BROKER--><g class="link" data-entity-1="ent0009" data-entity-2="ent0007" data-link-type="dependency" data-source-line="34" id="lnk23"><path d="M748.79,111.46 C790.15,117.56 839.62,130.95 875,159.96 C903.28,183.15 881.77,211.97 911,233.96 C990.97,294.12 1288.5732,319.7418 1413.6532,328.0618" fill="none" id="LOGIC-to-BROKER-1" style="stroke:#181818;stroke-width:1;"/><polygon fill="#181818" points="1419.64,328.46,1410.9253,323.8715,1414.651,328.1281,1410.3944,331.8538,1419.64,328.46" style="stroke:#181818;stroke-width:1;"/><text fill="#000000" font-family="PingFang SC" font-size="13" lengthAdjust="spacing" textLength="115.4908" x="993.7609" y="183.74">tcu/pile/{gun}/cmd</text><text fill="#000000" font-family="PingFang SC" font-size="13" lengthAdjust="spacing" textLength="175.4312" x="963.7908" y="201.94">start_charge / stop_charge /</text><text fill="#000000" font-family="PingFang SC" font-size="13" lengthAdjust="spacing" textLength="279.0127" x="912" y="220.14">vehicle_id_confirm / vehicle_auth / power_ctrl</text></g><!--link LOGIC to BROKER--><g class="link" data-entity-1="ent0009" data-entity-2="ent0007" data-link-type="dependency" data-source-line="35" id="lnk24"><path d="M748.95,110.41 C886.26,117.62 1160.18,134.95 1196,159.96 C1225.99,180.9 1205.26,209.01 1232,233.96 C1284.92,283.34 1360.1854,307.7834 1413.6954,320.2034" fill="none" id="LOGIC-to-BROKER-2" style="stroke:#181818;stroke-width:1;"/><polygon fill="#181818" points="1419.54,321.56,1411.6774,315.6287,1414.6695,320.4295,1409.8687,323.4216,1419.54,321.56" style="stroke:#181818;stroke-width:1;"/><text fill="#000000" font-family="PingFang SC" font-size="13" lengthAdjust="spacing" textLength="129.8168" x="1266.8293" y="174.74">tcu/logic/{gun}/event</text><text fill="#000000" font-family="PingFang SC" font-size="13" lengthAdjust="spacing" textLength="172.956" x="1245.2597" y="192.94">state_change / cmd_reject /</text><text fill="#000000" font-family="PingFang SC" font-size="13" lengthAdjust="spacing" textLength="197.4753" x="1233" y="211.14">plug_and_charge_auth_request /</text><text fill="#000000" font-family="PingFang SC" font-size="13" lengthAdjust="spacing" textLength="147.9245" x="1257.7754" y="229.34">plug_and_charge_auth_*</text></g><!--link LOGIC to BROKER--><g class="link" data-entity-1="ent0009" data-entity-2="ent0007" data-link-type="dependency" data-source-line="36" id="lnk25"><path d="M748.75,106.92 C932.83,108.25 1383.73,116.02 1435,159.96 C1459.02,180.55 1469.188,274.1219 1472.388,311.4819" fill="none" id="LOGIC-to-BROKER-3" style="stroke:#181818;stroke-width:1;"/><polygon fill="#181818" points="1472.9,317.46,1476.1173,308.1515,1472.4733,312.4782,1468.1465,308.8342,1472.9,317.46" style="stroke:#181818;stroke-width:1;"/><text fill="#000000" font-family="PingFang SC" font-size="13" lengthAdjust="spacing" textLength="144.8604" x="1462.56" y="201.74">tcu/logic/{gun}/feeData</text></g><!--link LOGIC to FSM--><g class="link" data-entity-1="ent0009" data-entity-2="ent0010" data-link-type="dependency" data-source-line="30" id="lnk20"><path d="M593.05,106.18 C494.17,107.42 331.93,116.29 294,159.96 C272.43,184.79 280.26,204.08 294,233.96 C304.78,257.4 319.5648,273.6196 339.4148,289.2396" fill="none" id="LOGIC-to-FSM" style="stroke:#181818;stroke-width:1;"/><polygon fill="#181818" points="344.13,292.95,339.5308,284.241,340.2007,289.858,334.5836,290.5279,344.13,292.95" style="stroke:#181818;stroke-width:1;"/><text fill="#000000" font-family="PingFang SC" font-size="13" lengthAdjust="spacing" textLength="124.8898" x="295" y="201.74">drive state transition</text></g><!--link LOGIC to PNC--><g class="link" data-entity-1="ent0009" data-entity-2="ent0011" data-link-type="dependency" data-source-line="31" id="lnk21"><path d="M593.12,108.56 C449.34,112.87 153.97,125.83 123,159.96 C84.64,202.23 101.7291,271.6626 113.7491,306.8226" fill="none" id="LOGIC-to-PNC" style="stroke:#181818;stroke-width:1;"/><polygon fill="#181818" points="115.69,312.5,116.5636,302.69,114.0726,307.7688,108.9937,305.2778,115.69,312.5" style="stroke:#181818;stroke-width:1;"/><text fill="#000000" font-family="PingFang SC" font-size="13" lengthAdjust="spacing" textLength="148.3301" x="124" y="201.74">vehicle_id / vehicle_auth</text></g><!--link LOGIC to FEE--><g class="link" data-entity-1="ent0009" data-entity-2="ent0012" data-link-type="dependency" data-source-line="32" id="lnk22"><path d="M593.19,114.57 C534.73,122.31 461.66,136.43 443,159.96 C422.56,185.73 422.5,208.24 443,233.96 C480.22,280.67 519.45,239.62 574,263.96 C601.75,276.34 625.0945,293.4183 643.6245,308.7283" fill="none" id="LOGIC-to-FEE" style="stroke:#181818;stroke-width:1;"/><polygon fill="#181818" points="648.25,312.55,643.8596,303.7339,644.3955,309.3653,638.764,309.9011,648.25,312.55" style="stroke:#181818;stroke-width:1;"/><text fill="#000000" font-family="PingFang SC" font-size="13" lengthAdjust="spacing" textLength="242.3812" x="444" y="201.74">start context / fee model / trade record</text></g><!--link PNC to GMN26--><g class="link" data-entity-1="ent0011" data-entity-2="ent0027" data-link-type="association" data-source-line="39" id="lnk28"><path d="M135.49,312.58 C156.52,280.9 202.35,220.53 259.5,196.96 C389.85,143.19 1396.72,146.82 1528.5,196.96 C1564.77,210.76 1597.91,237.58 1623.97,263.76" fill="none" id="PNC-GMN26" style="stroke:#181818;stroke-width:1;stroke-dasharray:7,7;"/></g><?plantuml-src ZLJBRjD05DtFLuowO85eBPuB5aXfweI8F8mJiI4ecjWJnzIPCUDn2q98XQgYGA7biG41eaAe4WiUQbKA_0usuI-uCpR1G2knIMRkENFkdNlkMFeoe5WwSI_Wdk_WRtlFahkRwTBNyTOgGj6ypq8Yo0WxV1HoHfbiosjmG5174kO5j429XiJbYpxpy804KH5nwO34WQnm9fjaHB45f0eSn-qoGXDbF7MsKPl29CBmNmnR0P43BaOQi-gbJX4C_O3s750MF0Yeo3YrkbdaZAZCaORPCMta4adw9A9u2YxjvL2zLQq2TYMcCG2DyvqEdXLyFaTdxTOvG558d7dY0M7IiYby7M5yiJmamgDr5R44TsWKNSfLQsM5MrHCLsE6sv98sY3Eq6UqosfpTTEmRDCgsQRHxfJiJgrPDRgiVBPaLzMotMbPrcHXpXccRRTiBLrfDxHm47ibvcRvSPbpuVgCI2uqoMhgx1LAyI7S4SHL52RfLPbfc2QwWH0q74zFdyblYK-hWJ3qxOphNink6Cx8HQhp_x92CEStwGXTW8uZPS0-LB0gfshQ4UK3qfRyIzQUvMp5ovKpb_OjrflmCohA2OghRG1g5FSZH_XzYhB87pfXt0_yQ8WA6FGO05Vu2nH7oZai1M6HBttE2ZJeCj0MwD1tO1fz5nkJ3Odbi2XecgeCIOJ4JcO4a0TWpuYxD82rr2R10mCZqNvb_jLAw7gNQS6Uays00VeydEowx7TXwgKCV37wgq3OXdoHYfuZHN1Gpk8yw0xhj9AgH4odXL9wWbw6RuFA6i9WzWXpyq9q8e3XWKK7uuV_9pkqQqwD3c8S716-DvIO3_9PJ-vlf-kFu3TPMHdVN1lll3uDqQCpE7tm9dsoMt09miTcSF9kBLtTm1TgJPo-slpnTWt2no6y_Z3PMqu-RoVh7txSsKbVB8_VVqe_tWBqn2-j8lhzw-FqvND0Jyx0H_GU7Fzp130-1Q8RgyddNIWiUVubVVeUU5dAP7qjVVbMr_1jRsbyUoTTsaAKkLXT4Fq4?></g></svg>