<?plantuml 1.2026.1?><svg xmlns="http://www.w3.org/2000/svg" xmlns:xlink="http://www.w3.org/1999/xlink" contentStyleType="text/css" data-diagram-type="SEQUENCE" height="1722px" preserveAspectRatio="none" style="width:767px;height:1722px;background:#FFFFFF;" version="1.1" viewBox="0 0 767 1722" width="767px" zoomAndPan="magnify"><title>tcu_logic &#21512;&#24182;&#20805;&#21452;&#26538;&#21363;&#25554;&#21363;&#20805;&#26102;&#24207;</title><defs/><g><text fill="#000000" font-family="PingFang SC" font-size="14" font-weight="bold" lengthAdjust="spacing" textLength="220.1608" x="274.4745" y="29.84">tcu_logic &#21512;&#24182;&#20805;&#21452;&#26538;&#21363;&#25554;&#21363;&#20805;&#26102;&#24207;</text><rect fill="none" height="1329.4" style="stroke:#000000;stroke-width:1.5;" width="750.1097" x="10" y="292.4"/><rect fill="none" height="980.8" style="stroke:#000000;stroke-width:1.5;" width="612.6448" x="137.4649" y="634"/><rect fill="none" height="513" style="stroke:#000000;stroke-width:1.5;" width="592.6448" x="147.4649" y="1094.8"/><g class="participant-lifeline" data-entity-uid="part1" data-qualified-name="HMI" id="part1-lifeline"><g><title>HMI</title><rect fill="#000000" fill-opacity="0.00000" height="1513.5999" width="8" x="31.8884" y="125.2"/><line style="stroke:#181818;stroke-width:0.5;stroke-dasharray:5,5;" x1="35" x2="35" y1="125.2" y2="1638.7999"/></g></g><g class="participant-lifeline" data-entity-uid="part2" data-qualified-name="LOGIC" id="part2-lifeline"><g><title>tcu_logic</title><rect fill="#000000" fill-opacity="0.00000" height="1513.5999" width="8" x="189.7417" y="125.2"/><line style="stroke:#181818;stroke-width:0.5;stroke-dasharray:5,5;" x1="193.4649" x2="193.4649" y1="125.2" y2="1638.7999"/></g></g><g class="participant-lifeline" data-entity-uid="part3" data-qualified-name="GUN_A" id="part3-lifeline"><g><title>pile_controller....</title><rect fill="#000000" fill-opacity="0.00000" height="1513.5999" width="8" x="423.6126" y="125.2"/><line style="stroke:#181818;stroke-width:0.5;stroke-dasharray:5,5;" x1="427.4051" x2="427.4051" y1="125.2" y2="1638.7999"/></g></g><g class="participant-lifeline" data-entity-uid="part4" data-qualified-name="GUN_B" id="part4-lifeline"><g><title>pile_controller....</title><rect fill="#000000" fill-opacity="0.00000" height="1513.5999" width="8" x="576.0277" y="125.2"/><line style="stroke:#181818;stroke-width:0.5;stroke-dasharray:5,5;" x1="579.8202" x2="579.8202" y1="125.2" y2="1638.7999"/></g></g><g class="participant-lifeline" data-entity-uid="part5" data-qualified-name="PLAT" id="part5-lifeline"><g><title>platform</title><rect fill="#000000" fill-opacity="0.00000" height="1513.5999" width="8" x="691.6725" y="125.2"/><line style="stroke:#181818;stroke-width:0.5;stroke-dasharray:5,5;" x1="695.2353" x2="695.2353" y1="125.2" y2="1638.7999"/></g></g><g class="participant participant-head" data-entity-uid="part1" data-qualified-name="HMI" id="part1-head"><text fill="#000000" font-family="PingFang SC" font-size="14" lengthAdjust="spacing" textLength="25.7768" x="20" y="120.44">HMI</text><ellipse cx="35.8884" cy="54.1" fill="#E2E2F0" rx="8" ry="8" style="stroke:#181818;stroke-width:0.5;"/><path d="M35.8884,62.1 L35.8884,89.1 M22.8884,70.1 L48.8884,70.1 M35.8884,89.1 L22.8884,104.1 M35.8884,89.1 L48.8884,104.1" fill="none" style="stroke:#181818;stroke-width:0.5;"/></g><g class="participant participant-tail" data-entity-uid="part1" data-qualified-name="HMI" id="part1-tail"><text fill="#000000" font-family="PingFang SC" font-size="14" lengthAdjust="spacing" textLength="25.7768" x="20" y="1652.6399">HMI</text><ellipse cx="35.8884" cy="1665.8999" fill="#E2E2F0" rx="8" ry="8" style="stroke:#181818;stroke-width:0.5;"/><path d="M35.8884,1673.8999 L35.8884,1700.8999 M22.8884,1681.8999 L48.8884,1681.8999 M35.8884,1700.8999 L22.8884,1715.8999 M35.8884,1700.8999 L48.8884,1715.8999" fill="none" style="stroke:#181818;stroke-width:0.5;"/></g><g class="participant participant-head" data-entity-uid="part2" data-qualified-name="LOGIC" id="part2-head"><rect fill="#E2E2F0" height="33.6" rx="2.5" ry="2.5" style="stroke:#181818;stroke-width:0.5;" width="72.5536" x="157.4649" y="90.6"/><text fill="#000000" font-family="PingFang SC" font-size="14" lengthAdjust="spacing" textLength="58.5536" x="164.4649" y="112.44">tcu_logic</text></g><g class="participant participant-tail" data-entity-uid="part2" data-qualified-name="LOGIC" id="part2-tail"><rect fill="#E2E2F0" height="33.6" rx="2.5" ry="2.5" style="stroke:#181818;stroke-width:0.5;" width="72.5536" x="157.4649" y="1637.7999"/><text fill="#000000" font-family="PingFang SC" font-size="14" lengthAdjust="spacing" textLength="58.5536" x="164.4649" y="1659.6399">tcu_logic</text></g><g class="participant participant-head" data-entity-uid="part3" data-qualified-name="GUN_A" id="part3-head"><rect fill="#E2E2F0" height="33.6" rx="2.5" ry="2.5" style="stroke:#181818;stroke-width:0.5;" width="142.4151" x="356.4051" y="90.6"/><text fill="#000000" font-family="PingFang SC" font-size="14" lengthAdjust="spacing" textLength="128.4151" x="363.4051" y="112.44">pile_controller(&#20027;&#26538;)</text></g><g class="participant participant-tail" data-entity-uid="part3" data-qualified-name="GUN_A" id="part3-tail"><rect fill="#E2E2F0" height="33.6" rx="2.5" ry="2.5" style="stroke:#181818;stroke-width:0.5;" width="142.4151" x="356.4051" y="1637.7999"/><text fill="#000000" font-family="PingFang SC" font-size="14" lengthAdjust="spacing" textLength="128.4151" x="363.4051" y="1659.6399">pile_controller(&#20027;&#26538;)</text></g><g class="participant participant-head" data-entity-uid="part4" data-qualified-name="GUN_B" id="part4-head"><rect fill="#E2E2F0" height="33.6" rx="2.5" ry="2.5" style="stroke:#181818;stroke-width:0.5;" width="142.4151" x="508.8202" y="90.6"/><text fill="#000000" font-family="PingFang SC" font-size="14" lengthAdjust="spacing" textLength="128.4151" x="515.8202" y="112.44">pile_controller(&#21103;&#26538;)</text></g><g class="participant participant-tail" data-entity-uid="part4" data-qualified-name="GUN_B" id="part4-tail"><rect fill="#E2E2F0" height="33.6" rx="2.5" ry="2.5" style="stroke:#181818;stroke-width:0.5;" width="142.4151" x="508.8202" y="1637.7999"/><text fill="#000000" font-family="PingFang SC" font-size="14" lengthAdjust="spacing" textLength="128.4151" x="515.8202" y="1659.6399">pile_controller(&#21103;&#26538;)</text></g><g class="participant participant-head" data-entity-uid="part5" data-qualified-name="PLAT" id="part5-head"><rect fill="#E2E2F0" height="33.6" rx="2.5" ry="2.5" style="stroke:#181818;stroke-width:0.5;" width="68.8744" x="661.2353" y="90.6"/><text fill="#000000" font-family="PingFang SC" font-size="14" lengthAdjust="spacing" textLength="54.8744" x="668.2353" y="112.44">platform</text></g><g class="participant participant-tail" data-entity-uid="part5" data-qualified-name="PLAT" id="part5-tail"><rect fill="#E2E2F0" height="33.6" rx="2.5" ry="2.5" style="stroke:#181818;stroke-width:0.5;" width="68.8744" x="661.2353" y="1637.7999"/><text fill="#000000" font-family="PingFang SC" font-size="14" lengthAdjust="spacing" textLength="54.8744" x="668.2353" y="1659.6399">platform</text></g><g class="message" data-entity-1="part1" data-entity-2="part2" id="msg1"><polygon fill="#181818" points="181.7417,210,191.7417,214,181.7417,218,185.7417,214" style="stroke:#181818;stroke-width:1;"/><line style="stroke:#181818;stroke-width:1;" x1="35.8884" x2="187.7417" y1="214" y2="214"/><text fill="#000000" font-family="PingFang SC" font-size="13" lengthAdjust="spacing" textLength="123.0815" x="42.8884" y="152.98">tcu/logic/{gun}/cmd</text><text fill="#000000" font-family="PingFang SC" font-size="13" lengthAdjust="spacing" textLength="76.73" x="42.8884" y="171.18">cmd=vin_req</text><text fill="#000000" font-family="PingFang SC" font-size="13" lengthAdjust="spacing" textLength="133.8533" x="42.8884" y="189.38">plugAndChargeFlag=2</text><text fill="#000000" font-family="PingFang SC" font-size="13" lengthAdjust="spacing" textLength="120.1773" x="42.8884" y="207.58">mergeChargeFlag=1</text></g><g class="message" data-entity-1="part2" data-entity-2="part2" id="msg2"><line style="stroke:#181818;stroke-width:1;" x1="193.7417" x2="235.7417" y1="264.4" y2="264.4"/><line style="stroke:#181818;stroke-width:1;" x1="235.7417" x2="235.7417" y1="264.4" y2="277.4"/><line style="stroke:#181818;stroke-width:1;" x1="194.7417" x2="235.7417" y1="277.4" y2="277.4"/><polygon fill="#181818" points="204.7417,273.4,194.7417,277.4,204.7417,281.4,200.7417,277.4" style="stroke:#181818;stroke-width:1;"/><text fill="#000000" font-family="PingFang SC" font-size="13" lengthAdjust="spacing" textLength="52" x="200.7417" y="239.78">&#26597;&#25214;&#23545;&#26538;</text><text fill="#000000" font-family="PingFang SC" font-size="13" lengthAdjust="spacing" textLength="141.7572" x="200.7417" y="257.98">&#26657;&#39564;&#21452;&#26041;&#37117;&#22312; PREPARE</text></g><path d="M10,292.4 L70.9586,292.4 L70.9586,302.6 L60.9586,312.6 L10,312.6 L10,292.4" fill="#EEEEEE" style="stroke:#000000;stroke-width:1.5;"/><rect fill="none" height="1329.4" style="stroke:#000000;stroke-width:1.5;" width="750.1097" x="10" y="292.4"/><text fill="#000000" font-family="PingFang SC" font-size="13" font-weight="bold" lengthAdjust="spacing" textLength="15.9586" x="25" y="307.18">alt</text><text fill="#000000" font-family="PingFang SC" font-size="11" font-weight="bold" lengthAdjust="spacing" textLength="151.6896" x="85.9586" y="306.06">[&#23545;&#26538;&#19981;&#23384;&#22312;&#25110;&#19981;&#22312; PREPARE]</text><g class="message" data-entity-1="part2" data-entity-2="part1" id="msg3"><polygon fill="#181818" points="46.8884,333.2,36.8884,337.2,46.8884,341.2,42.8884,337.2" style="stroke:#181818;stroke-width:1;"/><line style="stroke:#181818;stroke-width:1;" x1="40.8884" x2="192.7417" y1="337.2" y2="337.2"/><text fill="#000000" font-family="PingFang SC" font-size="13" lengthAdjust="spacing" textLength="66.7667" x="52.8884" y="330.78">cmd_reject</text></g><line style="stroke:#000000;stroke-width:1;stroke-dasharray:2,2;" x1="10" x2="760.1097" y1="346.2" y2="346.2"/><text fill="#000000" font-family="PingFang SC" font-size="11" font-weight="bold" lengthAdjust="spacing" textLength="84.8495" x="15" y="357.86">[&#21487;&#20197;&#36827;&#20837;&#21512;&#24182;&#20805;]</text><g class="message" data-entity-1="part2" data-entity-2="part2" id="msg4"><line style="stroke:#181818;stroke-width:1;" x1="193.7417" x2="235.7417" y1="386.8" y2="386.8"/><line style="stroke:#181818;stroke-width:1;" x1="235.7417" x2="235.7417" y1="386.8" y2="399.8"/><line style="stroke:#181818;stroke-width:1;" x1="194.7417" x2="235.7417" y1="399.8" y2="399.8"/><polygon fill="#181818" points="204.7417,395.8,194.7417,399.8,204.7417,403.8,200.7417,399.8" style="stroke:#181818;stroke-width:1;"/><text fill="#000000" font-family="PingFang SC" font-size="13" lengthAdjust="spacing" textLength="136.5729" x="200.7417" y="380.38">gunA armPendingStart</text></g><g class="message" data-entity-1="part2" data-entity-2="part2" id="msg5"><line style="stroke:#181818;stroke-width:1;" x1="193.7417" x2="235.7417" y1="432" y2="432"/><line style="stroke:#181818;stroke-width:1;" x1="235.7417" x2="235.7417" y1="432" y2="445"/><line style="stroke:#181818;stroke-width:1;" x1="194.7417" x2="235.7417" y1="445" y2="445"/><polygon fill="#181818" points="204.7417,441,194.7417,445,204.7417,449,200.7417,445" style="stroke:#181818;stroke-width:1;"/><text fill="#000000" font-family="PingFang SC" font-size="13" lengthAdjust="spacing" textLength="136.8355" x="200.7417" y="425.58">gunB armPendingStart</text></g><g class="message" data-entity-1="part2" data-entity-2="part3" id="msg6"><polygon fill="#181818" points="415.6126,473.2,425.6126,477.2,415.6126,481.2,419.6126,477.2" style="stroke:#181818;stroke-width:1;"/><line style="stroke:#181818;stroke-width:1;" x1="193.7417" x2="421.6126" y1="477.2" y2="477.2"/><text fill="#000000" font-family="PingFang SC" font-size="13" lengthAdjust="spacing" textLength="75.6236" x="200.7417" y="470.78">start_charge</text></g><g class="message" data-entity-1="part2" data-entity-2="part4" id="msg7"><polygon fill="#181818" points="568.0277,505.4,578.0277,509.4,568.0277,513.4,572.0277,509.4" style="stroke:#181818;stroke-width:1;"/><line style="stroke:#181818;stroke-width:1;" x1="193.7417" x2="574.0277" y1="509.4" y2="509.4"/><text fill="#000000" font-family="PingFang SC" font-size="13" lengthAdjust="spacing" textLength="75.6236" x="200.7417" y="502.98">start_charge</text></g><g class="message" data-entity-1="part2" data-entity-2="part2" id="msg8"><line style="stroke:#181818;stroke-width:1;" x1="193.7417" x2="235.7417" y1="541.6" y2="541.6"/><line style="stroke:#181818;stroke-width:1;" x1="235.7417" x2="235.7417" y1="541.6" y2="554.6"/><line style="stroke:#181818;stroke-width:1;" x1="194.7417" x2="235.7417" y1="554.6" y2="554.6"/><polygon fill="#181818" points="204.7417,550.6,194.7417,554.6,204.7417,558.6,200.7417,554.6" style="stroke:#181818;stroke-width:1;"/><text fill="#000000" font-family="PingFang SC" font-size="13" lengthAdjust="spacing" textLength="120.1798" x="200.7417" y="535.18">&#21452;&#26538;&#36827;&#20837; STARTING</text></g><g class="message" data-entity-1="part3" data-entity-2="part2" id="msg9"><polygon fill="#181818" points="204.7417,582.8,194.7417,586.8,204.7417,590.8,200.7417,586.8" style="stroke:#181818;stroke-width:1;"/><line style="stroke:#181818;stroke-width:1;" x1="198.7417" x2="426.6126" y1="586.8" y2="586.8"/><text fill="#000000" font-family="PingFang SC" font-size="13" lengthAdjust="spacing" textLength="103.1109" x="210.7417" y="580.38">vehicle_id(VIN_A)</text></g><g class="message" data-entity-1="part4" data-entity-2="part2" id="msg10"><polygon fill="#181818" points="204.7417,615,194.7417,619,204.7417,623,200.7417,619" style="stroke:#181818;stroke-width:1;"/><line style="stroke:#181818;stroke-width:1;" x1="198.7417" x2="579.0277" y1="619" y2="619"/><text fill="#000000" font-family="PingFang SC" font-size="13" lengthAdjust="spacing" textLength="103.3735" x="210.7417" y="612.58">vehicle_id(VIN_B)</text></g><path d="M137.4649,634 L198.4235,634 L198.4235,644.2 L188.4235,654.2 L137.4649,654.2 L137.4649,634" fill="#EEEEEE" style="stroke:#000000;stroke-width:1.5;"/><rect fill="none" height="980.8" style="stroke:#000000;stroke-width:1.5;" width="612.6448" x="137.4649" y="634"/><text fill="#000000" font-family="PingFang SC" font-size="13" font-weight="bold" lengthAdjust="spacing" textLength="15.9586" x="152.4649" y="648.78">alt</text><text fill="#000000" font-family="PingFang SC" font-size="11" font-weight="bold" lengthAdjust="spacing" textLength="77.7389" x="213.4235" y="647.66">[&#21333;&#36793; VIN &#38750;&#27861;]</text><g class="message" data-entity-1="part2" data-entity-2="part3" id="msg11"><polygon fill="#181818" points="415.6126,674.8,425.6126,678.8,415.6126,682.8,419.6126,678.8" style="stroke:#181818;stroke-width:1;"/><line style="stroke:#181818;stroke-width:1;" x1="193.7417" x2="421.6126" y1="678.8" y2="678.8"/><text fill="#000000" font-family="PingFang SC" font-size="13" lengthAdjust="spacing" textLength="138.4671" x="200.7417" y="672.38">vehicle_id_confirm(fail)</text></g><g class="message" data-entity-1="part2" data-entity-2="part4" id="msg12"><polygon fill="#181818" points="568.0277,707,578.0277,711,568.0277,715,572.0277,711" style="stroke:#181818;stroke-width:1;"/><line style="stroke:#181818;stroke-width:1;" x1="193.7417" x2="574.0277" y1="711" y2="711"/><text fill="#000000" font-family="PingFang SC" font-size="13" lengthAdjust="spacing" textLength="138.4671" x="200.7417" y="704.58">vehicle_id_confirm(fail)</text></g><g class="message" data-entity-1="part2" data-entity-2="part2" id="msg13"><line style="stroke:#181818;stroke-width:1;" x1="193.7417" x2="235.7417" y1="743.2" y2="743.2"/><line style="stroke:#181818;stroke-width:1;" x1="235.7417" x2="235.7417" y1="743.2" y2="756.2"/><line style="stroke:#181818;stroke-width:1;" x1="194.7417" x2="235.7417" y1="756.2" y2="756.2"/><polygon fill="#181818" points="204.7417,752.2,194.7417,756.2,204.7417,760.2,200.7417,756.2" style="stroke:#181818;stroke-width:1;"/><text fill="#000000" font-family="PingFang SC" font-size="13" lengthAdjust="spacing" textLength="104" x="200.7417" y="736.78">&#21452;&#26538;&#32467;&#26463;&#26412;&#27425;&#27969;&#31243;</text></g><line style="stroke:#000000;stroke-width:1;stroke-dasharray:2,2;" x1="137.4649" x2="750.1097" y1="765.2" y2="765.2"/><text fill="#000000" font-family="PingFang SC" font-size="11" font-weight="bold" lengthAdjust="spacing" textLength="89.2116" x="142.4649" y="776.86">[VIN_A != VIN_B]</text><g class="message" data-entity-1="part2" data-entity-2="part3" id="msg14"><polygon fill="#181818" points="415.6126,801.8,425.6126,805.8,415.6126,809.8,419.6126,805.8" style="stroke:#181818;stroke-width:1;"/><line style="stroke:#181818;stroke-width:1;" x1="193.7417" x2="421.6126" y1="805.8" y2="805.8"/><text fill="#000000" font-family="PingFang SC" font-size="13" lengthAdjust="spacing" textLength="168.3814" x="200.7417" y="799.38">vehicle_id_confirm(success)</text></g><g class="message" data-entity-1="part2" data-entity-2="part4" id="msg15"><polygon fill="#181818" points="568.0277,834,578.0277,838,568.0277,842,572.0277,838" style="stroke:#181818;stroke-width:1;"/><line style="stroke:#181818;stroke-width:1;" x1="193.7417" x2="574.0277" y1="838" y2="838"/><text fill="#000000" font-family="PingFang SC" font-size="13" lengthAdjust="spacing" textLength="168.3814" x="200.7417" y="831.58">vehicle_id_confirm(success)</text></g><g class="message" data-entity-1="part2" data-entity-2="part3" id="msg16"><polygon fill="#181818" points="415.6126,866.2,425.6126,870.2,415.6126,874.2,419.6126,870.2" style="stroke:#181818;stroke-width:1;"/><line style="stroke:#181818;stroke-width:1;" x1="193.7417" x2="421.6126" y1="870.2" y2="870.2"/><text fill="#000000" font-family="PingFang SC" font-size="13" lengthAdjust="spacing" textLength="209.8709" x="200.7417" y="863.78">vehicle_auth(fail, failReason=0x02)</text></g><g class="message" data-entity-1="part2" data-entity-2="part4" id="msg17"><polygon fill="#181818" points="568.0277,898.4,578.0277,902.4,568.0277,906.4,572.0277,902.4" style="stroke:#181818;stroke-width:1;"/><line style="stroke:#181818;stroke-width:1;" x1="193.7417" x2="574.0277" y1="902.4" y2="902.4"/><text fill="#000000" font-family="PingFang SC" font-size="13" lengthAdjust="spacing" textLength="209.8709" x="200.7417" y="895.98">vehicle_auth(fail, failReason=0x02)</text></g><g class="message" data-entity-1="part2" data-entity-2="part2" id="msg18"><line style="stroke:#181818;stroke-width:1;" x1="193.7417" x2="235.7417" y1="934.6" y2="934.6"/><line style="stroke:#181818;stroke-width:1;" x1="235.7417" x2="235.7417" y1="934.6" y2="947.6"/><line style="stroke:#181818;stroke-width:1;" x1="194.7417" x2="235.7417" y1="947.6" y2="947.6"/><polygon fill="#181818" points="204.7417,943.6,194.7417,947.6,204.7417,951.6,200.7417,947.6" style="stroke:#181818;stroke-width:1;"/><text fill="#000000" font-family="PingFang SC" font-size="13" lengthAdjust="spacing" textLength="178.9516" x="200.7417" y="928.18">&#21452;&#26538; STARTING -&gt; STOPPED</text></g><line style="stroke:#000000;stroke-width:1;stroke-dasharray:2,2;" x1="137.4649" x2="750.1097" y1="956.6" y2="956.6"/><text fill="#000000" font-family="PingFang SC" font-size="11" font-weight="bold" lengthAdjust="spacing" textLength="52.0759" x="142.4649" y="968.26">[VIN &#19968;&#33268;]</text><g class="message" data-entity-1="part2" data-entity-2="part3" id="msg19"><polygon fill="#181818" points="415.6126,993.2,425.6126,997.2,415.6126,1001.2,419.6126,997.2" style="stroke:#181818;stroke-width:1;"/><line style="stroke:#181818;stroke-width:1;" x1="193.7417" x2="421.6126" y1="997.2" y2="997.2"/><text fill="#000000" font-family="PingFang SC" font-size="13" lengthAdjust="spacing" textLength="168.3814" x="200.7417" y="990.78">vehicle_id_confirm(success)</text></g><g class="message" data-entity-1="part2" data-entity-2="part4" id="msg20"><polygon fill="#181818" points="568.0277,1025.4,578.0277,1029.4,568.0277,1033.4,572.0277,1029.4" style="stroke:#181818;stroke-width:1;"/><line style="stroke:#181818;stroke-width:1;" x1="193.7417" x2="574.0277" y1="1029.4" y2="1029.4"/><text fill="#000000" font-family="PingFang SC" font-size="13" lengthAdjust="spacing" textLength="168.3814" x="200.7417" y="1022.98">vehicle_id_confirm(success)</text></g><g class="message" data-entity-1="part2" data-entity-2="part5" id="msg21"><polygon fill="#181818" points="683.6725,1075.8,693.6725,1079.8,683.6725,1083.8,687.6725,1079.8" style="stroke:#181818;stroke-width:1;"/><line style="stroke:#181818;stroke-width:1;" x1="193.7417" x2="689.6725" y1="1079.8" y2="1079.8"/><text fill="#000000" font-family="PingFang SC" font-size="13" lengthAdjust="spacing" textLength="186.853" x="200.7417" y="1055.18">plug_and_charge_auth_request</text><text fill="#000000" font-family="PingFang SC" font-size="13" lengthAdjust="spacing" textLength="78" x="200.7417" y="1073.38">&#20165;&#20027;&#26538;&#21457;&#19968;&#27425;</text></g><path d="M147.4649,1094.8 L208.4235,1094.8 L208.4235,1105 L198.4235,1115 L147.4649,1115 L147.4649,1094.8" fill="#EEEEEE" style="stroke:#000000;stroke-width:1.5;"/><rect fill="none" height="513" style="stroke:#000000;stroke-width:1.5;" width="592.6448" x="147.4649" y="1094.8"/><text fill="#000000" font-family="PingFang SC" font-size="13" font-weight="bold" lengthAdjust="spacing" textLength="15.9586" x="162.4649" y="1109.58">alt</text><text fill="#000000" font-family="PingFang SC" font-size="11" font-weight="bold" lengthAdjust="spacing" textLength="51.8495" x="223.4235" y="1108.46">[&#24179;&#21488;&#25104;&#21151;]</text><g class="message" data-entity-1="part5" data-entity-2="part2" id="msg22"><polygon fill="#181818" points="204.7417,1135.6,194.7417,1139.6,204.7417,1143.6,200.7417,1139.6" style="stroke:#181818;stroke-width:1;"/><line style="stroke:#181818;stroke-width:1;" x1="198.7417" x2="694.6725" y1="1139.6" y2="1139.6"/><text fill="#000000" font-family="PingFang SC" font-size="13" lengthAdjust="spacing" textLength="322.4587" x="210.7417" y="1133.18">start_charge / plug_and_charge_auth_result(success)</text></g><g class="message" data-entity-1="part2" data-entity-2="part3" id="msg23"><polygon fill="#181818" points="415.6126,1167.8,425.6126,1171.8,415.6126,1175.8,419.6126,1171.8" style="stroke:#181818;stroke-width:1;"/><line style="stroke:#181818;stroke-width:1;" x1="193.7417" x2="421.6126" y1="1171.8" y2="1171.8"/><text fill="#000000" font-family="PingFang SC" font-size="13" lengthAdjust="spacing" textLength="131.2182" x="200.7417" y="1165.38">vehicle_auth(success)</text></g><g class="message" data-entity-1="part2" data-entity-2="part4" id="msg24"><polygon fill="#181818" points="568.0277,1200,578.0277,1204,568.0277,1208,572.0277,1204" style="stroke:#181818;stroke-width:1;"/><line style="stroke:#181818;stroke-width:1;" x1="193.7417" x2="574.0277" y1="1204" y2="1204"/><text fill="#000000" font-family="PingFang SC" font-size="13" lengthAdjust="spacing" textLength="131.2182" x="200.7417" y="1197.58">vehicle_auth(success)</text></g><g class="message" data-entity-1="part3" data-entity-2="part2" id="msg25"><polygon fill="#181818" points="204.7417,1232.2,194.7417,1236.2,204.7417,1240.2,200.7417,1236.2" style="stroke:#181818;stroke-width:1;"/><line style="stroke:#181818;stroke-width:1;" x1="198.7417" x2="426.6126" y1="1236.2" y2="1236.2"/><text fill="#000000" font-family="PingFang SC" font-size="13" lengthAdjust="spacing" textLength="89.9562" x="210.7417" y="1229.78">start_complete</text></g><g class="message" data-entity-1="part4" data-entity-2="part2" id="msg26"><polygon fill="#181818" points="204.7417,1264.4,194.7417,1268.4,204.7417,1272.4,200.7417,1268.4" style="stroke:#181818;stroke-width:1;"/><line style="stroke:#181818;stroke-width:1;" x1="198.7417" x2="579.0277" y1="1268.4" y2="1268.4"/><text fill="#000000" font-family="PingFang SC" font-size="13" lengthAdjust="spacing" textLength="89.9562" x="210.7417" y="1261.98">start_complete</text></g><g class="message" data-entity-1="part2" data-entity-2="part2" id="msg27"><line style="stroke:#181818;stroke-width:1;" x1="193.7417" x2="235.7417" y1="1300.6" y2="1300.6"/><line style="stroke:#181818;stroke-width:1;" x1="235.7417" x2="235.7417" y1="1300.6" y2="1313.6"/><line style="stroke:#181818;stroke-width:1;" x1="194.7417" x2="235.7417" y1="1313.6" y2="1313.6"/><polygon fill="#181818" points="204.7417,1309.6,194.7417,1313.6,204.7417,1317.6,200.7417,1313.6" style="stroke:#181818;stroke-width:1;"/><text fill="#000000" font-family="PingFang SC" font-size="13" lengthAdjust="spacing" textLength="124.4217" x="200.7417" y="1294.18">&#21452;&#26538;&#36827;&#20837; CHARGING</text></g><line style="stroke:#000000;stroke-width:1;stroke-dasharray:2,2;" x1="147.4649" x2="740.1097" y1="1322.6" y2="1322.6"/><text fill="#000000" font-family="PingFang SC" font-size="11" font-weight="bold" lengthAdjust="spacing" textLength="51.8495" x="152.4649" y="1334.26">[&#24179;&#21488;&#22833;&#36133;]</text><g class="message" data-entity-1="part5" data-entity-2="part2" id="msg28"><polygon fill="#181818" points="204.7417,1359.2,194.7417,1363.2,204.7417,1367.2,200.7417,1363.2" style="stroke:#181818;stroke-width:1;"/><line style="stroke:#181818;stroke-width:1;" x1="198.7417" x2="694.6725" y1="1363.2" y2="1363.2"/><text fill="#000000" font-family="PingFang SC" font-size="13" lengthAdjust="spacing" textLength="201.9695" x="210.7417" y="1356.78">plug_and_charge_auth_result(fail)</text></g><g class="message" data-entity-1="part2" data-entity-2="part3" id="msg29"><polygon fill="#181818" points="415.6126,1391.4,425.6126,1395.4,415.6126,1399.4,419.6126,1395.4" style="stroke:#181818;stroke-width:1;"/><line style="stroke:#181818;stroke-width:1;" x1="193.7417" x2="421.6126" y1="1395.4" y2="1395.4"/><text fill="#000000" font-family="PingFang SC" font-size="13" lengthAdjust="spacing" textLength="101.3039" x="200.7417" y="1388.98">vehicle_auth(fail)</text></g><g class="message" data-entity-1="part2" data-entity-2="part4" id="msg30"><polygon fill="#181818" points="568.0277,1423.6,578.0277,1427.6,568.0277,1431.6,572.0277,1427.6" style="stroke:#181818;stroke-width:1;"/><line style="stroke:#181818;stroke-width:1;" x1="193.7417" x2="574.0277" y1="1427.6" y2="1427.6"/><text fill="#000000" font-family="PingFang SC" font-size="13" lengthAdjust="spacing" textLength="101.3039" x="200.7417" y="1421.18">vehicle_auth(fail)</text></g><g class="message" data-entity-1="part2" data-entity-2="part2" id="msg31"><line style="stroke:#181818;stroke-width:1;" x1="193.7417" x2="235.7417" y1="1459.7999" y2="1459.7999"/><line style="stroke:#181818;stroke-width:1;" x1="235.7417" x2="235.7417" y1="1459.7999" y2="1472.7999"/><line style="stroke:#181818;stroke-width:1;" x1="194.7417" x2="235.7417" y1="1472.7999" y2="1472.7999"/><polygon fill="#181818" points="204.7417,1468.7999,194.7417,1472.7999,204.7417,1476.7999,200.7417,1472.7999" style="stroke:#181818;stroke-width:1;"/><text fill="#000000" font-family="PingFang SC" font-size="13" lengthAdjust="spacing" textLength="178.9516" x="200.7417" y="1453.3799">&#21452;&#26538; STARTING -&gt; STOPPED</text></g><line style="stroke:#000000;stroke-width:1;stroke-dasharray:2,2;" x1="147.4649" x2="740.1097" y1="1481.7999" y2="1481.7999"/><text fill="#000000" font-family="PingFang SC" font-size="11" font-weight="bold" lengthAdjust="spacing" textLength="78.7553" x="152.4649" y="1493.4599">[&#24179;&#21488; 30s &#36229;&#26102;]</text><g class="message" data-entity-1="part2" data-entity-2="part3" id="msg32"><polygon fill="#181818" points="415.6126,1518.3999,425.6126,1522.3999,415.6126,1526.3999,419.6126,1522.3999" style="stroke:#181818;stroke-width:1;"/><line style="stroke:#181818;stroke-width:1;" x1="193.7417" x2="421.6126" y1="1522.3999" y2="1522.3999"/><text fill="#000000" font-family="PingFang SC" font-size="13" lengthAdjust="spacing" textLength="209.8319" x="200.7417" y="1515.9799">vehicle_auth(fail, failReason=0x03)</text></g><g class="message" data-entity-1="part2" data-entity-2="part4" id="msg33"><polygon fill="#181818" points="568.0277,1550.5999,578.0277,1554.5999,568.0277,1558.5999,572.0277,1554.5999" style="stroke:#181818;stroke-width:1;"/><line style="stroke:#181818;stroke-width:1;" x1="193.7417" x2="574.0277" y1="1554.5999" y2="1554.5999"/><text fill="#000000" font-family="PingFang SC" font-size="13" lengthAdjust="spacing" textLength="209.8319" x="200.7417" y="1548.1799">vehicle_auth(fail, failReason=0x03)</text></g><g class="message" data-entity-1="part2" data-entity-2="part2" id="msg34"><line style="stroke:#181818;stroke-width:1;" x1="193.7417" x2="235.7417" y1="1586.7999" y2="1586.7999"/><line style="stroke:#181818;stroke-width:1;" x1="235.7417" x2="235.7417" y1="1586.7999" y2="1599.7999"/><line style="stroke:#181818;stroke-width:1;" x1="194.7417" x2="235.7417" y1="1599.7999" y2="1599.7999"/><polygon fill="#181818" points="204.7417,1595.7999,194.7417,1599.7999,204.7417,1603.7999,200.7417,1599.7999" style="stroke:#181818;stroke-width:1;"/><text fill="#000000" font-family="PingFang SC" font-size="13" lengthAdjust="spacing" textLength="178.9516" x="200.7417" y="1580.3799">&#21452;&#26538; STARTING -&gt; STOPPED</text></g><?plantuml-src lPNTJXD15CVlzob6hcYYAS8T2IRT2gK9GjDMhveqazrfkxexMtUdQ69CDAOH55BKW2Ro8ObD2C6W0Gcr4L-civItyCmir2tGTg-ywAITyviv__CnfynW9a5Cg-HDksXeYAyiyCOHhrPvRSdRtENB1rxjFQomutqyuhzgYk8-CcWPEzX2RWdhzXE35b41cou9M7HIm1MJJTcKpMABe1H0KnZ0J5nHiCPi1qtVIoe0CqCpofWoDDGHCOImYsRc4ibuDr0sJ9BNu4h7DatY3BUEco0n8l74_Tbyh3_E5_UxSFKIRc9Mi1rBsbCpiQoYW4Hqwuul1OsBB4MbmEYpOeK-ZsgMdgEmJCmRDE-GnpbQDYl56DNZ9UmKoPI9YnEZEMeH-17Okgtu5mPkzhRgtk89ts-0m1prlcoVxIw90gmrpbxzvkixA9MUJCNIav0xao6VQnqlys-VmEWjh8dl0GgXZWSHmZW2aI3m8T6OGg1GYDVsMyrw-yzdNgrtAXuyTY4CuemXx5WfGdKeOOP1ndfmQZzEbWSuLnZocap6PRlQntxXn-zANpZAP6FfR78seG3fEmYGywHaQD00XZxy80cso3caze7KYBXAfdXvjNtIGB29pZOslODLsBycd7_dHQCL3CSQBc33Z5obrT1qTwYdpG_UnfQtlkVjRNi_Nvxkl0LQrb16XMvCo2zgQ7rkHTE8wuQNsFj0q0Eki9ACvYOIQvfWrwOJ8qz7HWTu2dsmEo-TuWjJ9ZkNIatU3MG6jOvVj5yV_k-iYB41l1W3UKpryqQMCOe1KI4koz5Mi-fFBbvx1pAXi8gyHVPTuu3NldiBA_pDbjn4_fs1-8DF14Lx-N9X-dQB75IyVh0w0Bxo-iv5sbRP98m4A7KWrV_DnwTZwOHuymBrPvbC6V_wetrOxv6oVZdwzmB3T7Uux5nBXkhVhfZGs8YBsaVYZpUqmCklQ2oyui57muP0TSLVnUSl?></g></svg>