<?plantuml 1.2026.1?><svg xmlns="http://www.w3.org/2000/svg" xmlns:xlink="http://www.w3.org/1999/xlink" contentStyleType="text/css" data-diagram-type="STATE" height="906px" preserveAspectRatio="none" style="width:1333px;height:906px;background:#FFFFFF;" version="1.1" viewBox="0 0 1333 906" width="1333px" zoomAndPan="magnify"><title>tcu_logic &#29366;&#24577;&#26426;&#27969;&#36716; UML</title><defs/><g><g class="title" data-source-line="1"><text fill="#000000" font-family="sans-serif" font-size="14" font-weight="bold" lengthAdjust="spacing" textLength="174.4395" x="572.6134" y="23.5352">tcu_logic &#29366;&#24577;&#26426;&#27969;&#36716; UML</text></g><ellipse cx="449.76" cy="226.7283" fill="#222222" rx="10" ry="10" style="stroke:#222222;stroke-width:1;"/><rect fill="#F1F1F1" height="40" rx="12.5" ry="12.5" style="stroke:#181818;stroke-width:0.5;" width="50" x="266.76" y="327.2283"/><text fill="#000000" font-family="sans-serif" font-size="14" lengthAdjust="spacing" textLength="29.5723" x="276.9739" y="352.5193">IDLE</text><rect fill="#F1F1F1" height="40" rx="12.5" ry="12.5" style="stroke:#181818;stroke-width:0.5;" width="68.0166" x="340.75" y="508.7283"/><text fill="#000000" font-family="sans-serif" font-size="14" lengthAdjust="spacing" textLength="58.0166" x="345.75" y="534.0193">PREPARE</text><rect fill="#F1F1F1" height="40" rx="12.5" ry="12.5" style="stroke:#181818;stroke-width:0.5;" width="55.0215" x="118.25" y="625.7283"/><text fill="#000000" font-family="sans-serif" font-size="14" lengthAdjust="spacing" textLength="45.0215" x="123.25" y="651.0193">ERROR</text><rect fill="#F1F1F1" height="40" rx="12.5" ry="12.5" style="stroke:#181818;stroke-width:0.5;" width="78.25" x="706.63" y="625.7283"/><text fill="#000000" font-family="sans-serif" font-size="14" lengthAdjust="spacing" textLength="68.25" x="711.63" y="651.0193">STARTING</text><rect fill="#F1F1F1" height="40" rx="12.5" ry="12.5" style="stroke:#181818;stroke-width:0.5;" width="83.0967" x="906.21" y="742.7283"/><text fill="#000000" font-family="sans-serif" font-size="14" lengthAdjust="spacing" textLength="73.0967" x="911.21" y="768.0193">CHARGING</text><rect fill="#F1F1F1" height="40" rx="12.5" ry="12.5" style="stroke:#181818;stroke-width:0.5;" width="77.2383" x="824.14" y="59.1083"/><text fill="#000000" font-family="sans-serif" font-size="14" lengthAdjust="spacing" textLength="67.2383" x="829.14" y="84.3993">STOPPING</text><rect fill="#F1F1F1" height="40" rx="12.5" ry="12.5" style="stroke:#181818;stroke-width:0.5;" width="70.8193" x="295.35" y="206.7283"/><text fill="#000000" font-family="sans-serif" font-size="14" lengthAdjust="spacing" textLength="60.8193" x="300.35" y="232.0193">STOPPED</text><g class="entity" data-qualified-name="GMN2" data-source-line="29" id="ent0003"><path d="M1093.65,43.4883 L1093.65,75.1083 L901.87,79.1083 L1093.65,83.1083 L1093.65,114.7305 A0,0 0 0 0 1093.65,114.7305 L1277.8736,114.7305 A0,0 0 0 0 1277.8736,114.7305 L1277.8736,53.4883 L1267.8736,43.4883 L1093.65,43.4883 A0,0 0 0 0 1093.65,43.4883" fill="#FEFFDD" style="stroke:#181818;stroke-width:0.5;"/><path d="M1267.8736,43.4883 L1267.8736,53.4883 L1277.8736,53.4883 L1267.8736,43.4883" fill="#FEFFDD" style="stroke:#181818;stroke-width:0.5;"/><text fill="#000000" font-family="sans-serif" font-size="13" lengthAdjust="spacing" textLength="105.5488" x="1099.65" y="61.0566">&#36827;&#20837;STOPPING&#21518;:</text><text fill="#000000" font-family="sans-serif" font-size="13" lengthAdjust="spacing" textLength="144.479" x="1099.65" y="76.3672">- &#21608;&#26399;&#37325;&#21457; stop_charge</text><text fill="#000000" font-family="sans-serif" font-size="13" lengthAdjust="spacing" textLength="141.6353" x="1099.65" y="91.6777">- &#32467;&#31639;&#31383;&#21475;&#31561;&#24453;&#30005;&#34920;&#26356;&#26032;</text><text fill="#000000" font-family="sans-serif" font-size="13" lengthAdjust="spacing" textLength="163.2236" x="1099.65" y="106.9883">- &#28385;&#36275;&#26465;&#20214;&#21518;&#36827;&#20837; STOPPED</text></g><g class="entity" data-qualified-name="GMN5" data-source-line="36" id="ent0006"><path d="M823.49,843.7283 L823.49,899.6599 A0,0 0 0 0 823.49,899.6599 L1072.0281,899.6599 A0,0 0 0 0 1072.0281,899.6599 L1072.0281,853.7283 L1062.0281,843.7283 L951.76,843.7283 L947.76,782.8483 L943.76,843.7283 L823.49,843.7283 A0,0 0 0 0 823.49,843.7283" fill="#FEFFDD" style="stroke:#181818;stroke-width:0.5;"/><path d="M1062.0281,843.7283 L1062.0281,853.7283 L1072.0281,853.7283 L1062.0281,843.7283" fill="#FEFFDD" style="stroke:#181818;stroke-width:0.5;"/><text fill="#000000" font-family="sans-serif" font-size="13" lengthAdjust="spacing" textLength="43.1133" x="829.49" y="861.2966">&#35745;&#36153;&#20013;:</text><text fill="#000000" font-family="sans-serif" font-size="13" lengthAdjust="spacing" textLength="168.27" x="829.49" y="876.6072">- &#20998;&#27573;&#32047;&#35745;&#30005;&#37327;/&#30005;&#36153;/&#26381;&#21153;&#36153;</text><text fill="#000000" font-family="sans-serif" font-size="13" lengthAdjust="spacing" textLength="227.5381" x="829.49" y="891.9177">- &#25509;&#36817;&#39044;&#20805;&#38408;&#20540;&#35302;&#21457; tcu_stop_request</text></g><!--link *start* to IDLE--><g class="link" data-entity-1="ent0002" data-entity-2="ent0003" data-link-type="dependency" data-source-line="5" id="lnk4"><path d="M449.11,237.0983 C447.65,251.1783 442.94,277.8283 427.76,293.7283 C397.97,324.9483 353.4455,336.8648 323.0855,342.0148" fill="none" id="*start*-to-IDLE" style="stroke:#181818;stroke-width:1;"/><polygon fill="#181818" points="317.17,343.0183,326.7122,345.4568,322.0996,342.1821,325.3743,337.5694,317.17,343.0183" style="stroke:#181818;stroke-width:1;"/></g><!--link IDLE to PREPARE--><g class="link" data-entity-1="ent0003" data-entity-2="ent0005" data-link-type="dependency" data-source-line="7" id="lnk6"><path d="M313.4,367.3883 C322.69,376.6483 332.95,388.4083 339.76,400.7283 C359.23,435.9583 367.5803,476.8446 371.4503,502.6546" fill="none" id="IDLE-to-PREPARE" style="stroke:#181818;stroke-width:1;"/><polygon fill="#181818" points="372.34,508.5883,374.9612,499.0946,371.5986,503.6436,367.0497,500.2809,372.34,508.5883" style="stroke:#181818;stroke-width:1;"/><text fill="#000000" font-family="sans-serif" font-size="13" lengthAdjust="spacing" textLength="219.3179" x="367.56" y="444.7966">vehicle_connected &amp;&amp; totalFault=0</text></g><!--link PREPARE to IDLE--><g class="link" data-entity-1="ent0005" data-entity-2="ent0003" data-link-type="dependency" data-source-line="11" id="lnk11"><path d="M340.4,517.5083 C330.52,514.6183 319.72,511.5083 309.76,508.7283 C259.71,494.7683 228.44,519.9183 196.76,478.7283 C175.62,451.2483 179.15,430.5883 196.76,400.7283 C211.7,375.4083 237.9686,363.2234 260.6986,356.1834" fill="none" id="PREPARE-to-IDLE" style="stroke:#181818;stroke-width:1;"/><polygon fill="#181818" points="266.43,354.4083,256.6495,353.2501,261.6538,355.8876,259.0163,360.8919,266.43,354.4083" style="stroke:#181818;stroke-width:1;"/><text fill="#000000" font-family="sans-serif" font-size="13" lengthAdjust="spacing" textLength="133.4912" x="197.76" y="444.7966">vehicle_disconnected</text></g><!--link IDLE to ERROR--><g class="link" data-entity-1="ent0003" data-entity-2="ent0007" data-link-type="dependency" data-source-line="8" id="lnk8"><path d="M266.43,352.0083 C238.86,357.5583 195.78,370.7183 173.76,400.7283 C123.04,469.8183 133.7327,574.9084 141.0827,619.4284" fill="none" id="IDLE-to-ERROR" style="stroke:#181818;stroke-width:1;"/><polygon fill="#181818" points="142.06,625.3483,144.5406,615.8169,141.2456,620.4151,136.6474,617.12,142.06,625.3483" style="stroke:#181818;stroke-width:1;"/><text fill="#000000" font-family="sans-serif" font-size="13" lengthAdjust="spacing" textLength="154.5781" x="138.04" y="533.7966">deviceErr_on / totalFault</text></g><!--link ERROR to IDLE--><g class="link" data-entity-1="ent0007" data-entity-2="ent0003" data-link-type="dependency" data-source-line="26" id="lnk24"><path d="M117.84,631.1383 C76.48,608.9283 6,561.9683 27.76,508.7283 C53.21,446.4683 76.7,436.3283 133.76,400.7283 C176.31,374.1783 227.8828,360.7062 260.4828,354.0062" fill="none" id="ERROR-to-IDLE" style="stroke:#181818;stroke-width:1;"/><polygon fill="#181818" points="266.36,352.7983,256.739,350.692,261.4624,353.8049,258.3495,358.5282,266.36,352.7983" style="stroke:#181818;stroke-width:1;"/><text fill="#000000" font-family="sans-serif" font-size="13" lengthAdjust="spacing" textLength="68.98" x="43.75" y="526.2966">reset_error</text><text fill="#000000" font-family="sans-serif" font-size="13" lengthAdjust="spacing" textLength="98.96" x="28.76" y="541.6072">or deviceErr_off</text></g><!--link PREPARE to STARTING--><g class="link" data-entity-1="ent0005" data-entity-2="ent0009" data-link-type="dependency" data-source-line="10" id="lnk10"><path d="M393.06,549.1283 C408.54,564.3083 432.09,584.6283 456.76,595.7283 C540.29,633.3183 643.2337,642.058 700.5637,644.068" fill="none" id="PREPARE-to-STARTING" style="stroke:#181818;stroke-width:1;"/><polygon fill="#181818" points="706.56,644.2783,697.7057,639.9654,701.5631,644.1031,697.4254,647.9605,706.56,644.2783" style="stroke:#181818;stroke-width:1;"/><text fill="#000000" font-family="sans-serif" font-size="13" lengthAdjust="spacing" textLength="138.9438" x="457.76" y="592.2966">start_cmd &amp;&amp; auth_ok</text></g><!--link PREPARE to ERROR--><g class="link" data-entity-1="ent0005" data-entity-2="ent0007" data-link-type="dependency" data-source-line="12" id="lnk12"><path d="M340.47,540.4483 C313.96,549.2783 276.68,562.8983 245.76,578.7283 C219.28,592.2783 196.0501,607.7838 176.4001,621.9238" fill="none" id="PREPARE-to-ERROR" style="stroke:#181818;stroke-width:1;"/><polygon fill="#181818" points="171.53,625.4283,181.1716,623.4183,175.5885,622.5078,176.4989,616.9247,171.53,625.4283" style="stroke:#181818;stroke-width:1;"/><text fill="#000000" font-family="sans-serif" font-size="13" lengthAdjust="spacing" textLength="154.5781" x="246.76" y="592.2966">deviceErr_on / totalFault</text></g><!--link STARTING to CHARGING--><g class="link" data-entity-1="ent0009" data-entity-2="ent0013" data-link-type="dependency" data-source-line="14" id="lnk14"><path d="M779.57,665.9783 C816.86,687.2083 871.2962,718.189 908.6262,739.449" fill="none" id="STARTING-to-CHARGING" style="stroke:#181818;stroke-width:1;"/><polygon fill="#181818" points="913.84,742.4183,907.9989,734.4885,909.4952,739.9439,904.0398,741.4402,913.84,742.4183" style="stroke:#181818;stroke-width:1;"/><text fill="#000000" font-family="sans-serif" font-size="13" lengthAdjust="spacing" textLength="115.502" x="859.85" y="709.2966">start_complete_ok</text></g><!--link STARTING to STOPPING--><g class="link" data-entity-1="ent0009" data-entity-2="ent0015" data-link-type="dependency" data-source-line="15" id="lnk16"><path d="M745.76,625.5983 C745.76,602.7783 745.76,563.4683 745.76,529.7283 C745.76,225.7283 745.76,225.7283 745.76,225.7283 C745.76,170.4283 792.7751,127.6822 827.4351,102.9622" fill="none" id="STARTING-to-STOPPING" style="stroke:#181818;stroke-width:1;"/><polygon fill="#181818" points="832.32,99.4783,822.67,101.4476,828.2493,102.3816,827.3153,107.9608,832.32,99.4783" style="stroke:#181818;stroke-width:1;"/><text fill="#000000" font-family="sans-serif" font-size="13" lengthAdjust="spacing" textLength="119.3931" x="768.9482" y="337.2966">start_complete_fail</text><text fill="#000000" font-family="sans-serif" font-size="13" lengthAdjust="spacing" textLength="163.7695" x="746.76" y="352.6072">or deviceErr_on/totalFault</text><text fill="#000000" font-family="sans-serif" font-size="13" lengthAdjust="spacing" textLength="78.5522" x="789.3686" y="367.9177">or stop_cmd</text></g><!--link STARTING to STOPPING--><g class="link" data-entity-1="ent0009" data-entity-2="ent0015" data-link-type="dependency" data-source-line="17" id="lnk18"><path d="M785.36,642.8783 C852.33,637.3983 980.76,615.6883 980.76,529.7283 C980.76,225.7283 980.76,225.7283 980.76,225.7283 C980.76,170.2483 933.3234,127.5361 898.3534,102.8761" fill="none" id="STARTING-to-STOPPING-1" style="stroke:#181818;stroke-width:1;"/><polygon fill="#181818" points="893.45,99.4183,898.5,107.8739,897.5362,102.2998,903.1103,101.336,893.45,99.4183" style="stroke:#181818;stroke-width:1;"/><text fill="#000000" font-family="sans-serif" font-size="13" lengthAdjust="spacing" textLength="113.8325" x="981.76" y="352.2966">start_timeout_50s</text></g><!--link STARTING to IDLE--><g class="link" data-entity-1="ent0009" data-entity-2="ent0003" data-link-type="dependency" data-source-line="16" id="lnk17"><path d="M721.06,625.3783 C699.65,607.4883 669.15,579.1383 649.76,548.7283 C612.11,489.6883 649.49,445.6183 595.76,400.7283 C553.42,365.3583 388.3613,353.2408 323.1613,349.7308" fill="none" id="STARTING-to-IDLE" style="stroke:#181818;stroke-width:1;"/><polygon fill="#181818" points="317.17,349.4083,325.942,353.8863,322.1628,349.6771,326.372,345.8979,317.17,349.4083" style="stroke:#181818;stroke-width:1;"/><text fill="#000000" font-family="sans-serif" font-size="13" lengthAdjust="spacing" textLength="68.98" x="650.76" y="533.7966">reset_error</text></g><!--link CHARGING to STOPPING--><g class="link" data-entity-1="ent0013" data-entity-2="ent0015" data-link-type="dependency" data-source-line="19" id="lnk19"><path d="M989.41,756.6383 C1048.28,746.8483 1148.76,719.4983 1148.76,646.7283 C1148.76,225.7283 1148.76,225.7283 1148.76,225.7283 C1148.76,116.0983 985.8082,89.4797 907.6082,82.7897" fill="none" id="CHARGING-to-STOPPING" style="stroke:#181818;stroke-width:1;"/><polygon fill="#181818" points="901.63,82.2783,910.2563,87.0309,906.6118,82.7045,910.9382,79.06,901.63,82.2783" style="stroke:#181818;stroke-width:1;"/><text fill="#000000" font-family="sans-serif" font-size="13" lengthAdjust="spacing" textLength="61.1343" x="1207.146" y="414.2966">stop_cmd</text><text fill="#000000" font-family="sans-serif" font-size="13" lengthAdjust="spacing" textLength="175.9063" x="1149.76" y="429.6072">or tcu_precharge_near_limit</text><text fill="#000000" font-family="sans-serif" font-size="13" lengthAdjust="spacing" textLength="163.7695" x="1155.8284" y="444.9177">or deviceErr_on/totalFault</text><text fill="#000000" font-family="sans-serif" font-size="13" lengthAdjust="spacing" textLength="105.4917" x="1184.9673" y="460.2283">or workStatus=0</text><text fill="#000000" font-family="sans-serif" font-size="13" lengthAdjust="spacing" textLength="109.6431" x="1182.8916" y="475.5388">or stop_complete</text></g><!--link STOPPING to STOPPED--><g class="link" data-entity-1="ent0015" data-entity-2="ent0020" data-link-type="dependency" data-source-line="21" id="lnk21"><path d="M823.81,88.8283 C771.83,100.6483 676.98,122.7883 596.76,144.7283 C513.64,167.4583 422.8224,196.0331 371.9924,212.3631" fill="none" id="STOPPING-to-STOPPED" style="stroke:#181818;stroke-width:1;"/><polygon fill="#181818" points="366.28,214.1983,376.0721,215.2537,371.0404,212.6689,373.6252,207.6372,366.28,214.1983" style="stroke:#181818;stroke-width:1;"/><text fill="#000000" font-family="sans-serif" font-size="13" lengthAdjust="spacing" textLength="102.54" x="607.1228" y="158.2966">meter_stale_15s</text><text fill="#000000" font-family="sans-serif" font-size="13" lengthAdjust="spacing" textLength="121.2656" x="597.76" y="173.6072">or meter_stable_3x</text></g><!--link STOPPING to STOPPING--><g class="link" data-entity-1="ent0015" data-entity-2="ent0015" data-link-type="dependency" data-source-line="22" id="lnk22"><path d="M901.77,64.1383 C920.2,62.3983 936.38,67.3883 936.38,79.1083 C936.38,90.8183 926.1734,96.3722 907.7434,94.6322" fill="none" id="STOPPING-to-STOPPING" style="stroke:#181818;stroke-width:1;"/><polygon fill="#181818" points="901.77,94.0683,910.3542,98.8965,906.7479,94.5382,911.1061,90.9319,901.77,94.0683" style="stroke:#181818;stroke-width:1;"/><text fill="#000000" font-family="sans-serif" font-size="13" lengthAdjust="spacing" textLength="127.9053" x="942.38" y="76.6766">stop_complete_seen</text><text fill="#000000" font-family="sans-serif" font-size="13" lengthAdjust="spacing" textLength="73.4551" x="969.6051" y="91.9872">(&#20165;&#20572;&#27490;&#37325;&#21457;)</text></g><!--link STOPPED to IDLE--><g class="link" data-entity-1="ent0020" data-entity-2="ent0003" data-link-type="dependency" data-source-line="24" id="lnk23"><path d="M308.64,247.0083 C300.79,255.2683 292.88,265.5883 288.76,276.7283 C282.77,292.9283 283.3341,306.8055 285.9441,321.1255" fill="none" id="STOPPED-to-IDLE" style="stroke:#181818;stroke-width:1;"/><polygon fill="#181818" points="287.02,327.0283,289.3414,317.4569,286.1235,322.1093,281.4711,318.8914,287.02,327.0283" style="stroke:#181818;stroke-width:1;"/><text fill="#000000" font-family="sans-serif" font-size="13" lengthAdjust="spacing" textLength="133.4912" x="289.76" y="290.2966">vehicle_disconnected</text></g><?plantuml-src ZPBVQXD158VlvodcggWGKf7U52eK6skXsh2jLrQMxUQa6Rgx4sTFgjurODfQQ6DGhD28f58jOgDW4gnH-pBTFtaBTpQRJLOBzIQGCxypttVE3Z8qWA9UKWs-odJgxNJSZR9R_-6so_wlp_J-tNb22Ym75CmYFgKvi7N1YiYuHSY3QmzfAdMJpitCPmYHl-7Vh9B9JYiPEadNeS1q0rITMnRe23awDaQHesRSrae6JeqFcpAAig04BJbOPpfaX52vHTCZOK86zyhuujAqiZHtRpRei54JgEfcUBbMmeBArnBPa36KoJ4xzada_aCXnihyhJlJocp2WPj50n2aG2AvkBIGpLwOp6lCMBQuI43JGsHuPYCloW6JbqPZ2R01LH22YqkWo4pW9LGdncr2Olb_edrM29RleYX0BsXY5LGBDA4Qp6HugV5ZBjOMKSEIFJK-Ca8qjTnZ18pfcPa0RWQ7GWriWyzqVS8EE-FQIb2yyUI2rb7nmLvj06lPkdBUhJZbkdjosDlQTQgrgn4vW5tsC4Z_DLoywB_dp-S9iJW25MorW9JdOp52gNzsu5IE1WNdnTvaK4nHftRirj_rlIBvSCtXeTTzwJNtlK_xJlMzT_BS-LtnNhNznh5xq79VVmqZRhVXTxwvRnldtKvmQPyos2K1AqUbKUIrmX6vASK6trsADHj-w_Jy-qaajBtfDjjUwqjG3sYzhMfQGbkdQRU-w-p8R1-yT-IVrNg7pvnAfVTcszduwN_y88UGhoKSHC2Z4jWubFW3?></g></svg>