<?plantuml 1.2026.1?><svg xmlns="http://www.w3.org/2000/svg" xmlns:xlink="http://www.w3.org/1999/xlink" contentStyleType="text/css" data-diagram-type="DESCRIPTION" height="619px" preserveAspectRatio="none" style="width:1104px;height:619px;background:#FFFFFF;" version="1.1" viewBox="0 0 1104 619" width="1104px" zoomAndPan="magnify"><title>tcu_meter &#39033;&#30446;&#32467;&#26500; UML</title><defs/><g><g class="title" data-source-line="1"><text fill="#000000" font-family="sans-serif" font-size="14" font-weight="bold" lengthAdjust="spacing" textLength="167.7266" x="461.2853" y="23.5352">tcu_meter &#39033;&#30446;&#32467;&#26500; UML</text></g><!--cluster core/meter--><g class="cluster" data-qualified-name="core.meter" data-source-line="3" id="ent0002"><path d="M91.5,43.4883 L173.3965,43.4883 A3.75,3.75 0 0 1 175.8965,45.9883 L182.8965,65.9766 L306.5,65.9766 A2.5,2.5 0 0 1 309,68.4766 L309,445.5483 A2.5,2.5 0 0 1 306.5,448.0483 L91.5,448.0483 A2.5,2.5 0 0 1 89,445.5483 L89,45.9883 A2.5,2.5 0 0 1 91.5,43.4883" fill="none" style="stroke:#000000;stroke-width:1.5;"/><line style="stroke:#000000;stroke-width:1.5;" x1="89" x2="182.8965" y1="65.9766" y2="65.9766"/><text fill="#000000" font-family="sans-serif" font-size="14" font-weight="bold" lengthAdjust="spacing" textLength="80.8965" x="93" y="59.0234">core/meter</text></g><!--cluster core/base (reuse)--><g class="cluster" data-qualified-name="core.base .reuse." data-source-line="9" id="ent0006"><path d="M8.5,515.0783 L136.874,515.0783 A3.75,3.75 0 0 1 139.374,517.5783 L146.374,537.5666 L839.5,537.5666 A2.5,2.5 0 0 1 842,540.0666 L842,610.0683 A2.5,2.5 0 0 1 839.5,612.5683 L8.5,612.5683 A2.5,2.5 0 0 1 6,610.0683 L6,517.5783 A2.5,2.5 0 0 1 8.5,515.0783" fill="none" style="stroke:#000000;stroke-width:1.5;"/><line style="stroke:#000000;stroke-width:1.5;" x1="6" x2="146.374" y1="537.5666" y2="537.5666"/><text fill="#000000" font-family="sans-serif" font-size="14" font-weight="bold" lengthAdjust="spacing" textLength="127.374" x="10" y="530.6134">core/base (reuse)</text></g><!--entity Main--><g class="entity" data-qualified-name="core.meter.Main" data-source-line="4" id="ent0003"><rect fill="#F1F1F1" height="46.4883" rx="2.5" ry="2.5" style="stroke:#181818;stroke-width:0.5;" width="102.7607" x="147.62" y="78.4883"/><rect fill="#F1F1F1" height="10" style="stroke:#181818;stroke-width:0.5;" width="15" x="230.3807" y="83.4883"/><rect fill="#F1F1F1" height="2" style="stroke:#181818;stroke-width:0.5;" width="4" x="228.3807" y="85.4883"/><rect fill="#F1F1F1" height="2" style="stroke:#181818;stroke-width:0.5;" width="4" x="228.3807" y="89.4883"/><text fill="#000000" font-family="sans-serif" font-size="14" lengthAdjust="spacing" textLength="62.7607" x="162.62" y="112.0234">main.cpp</text></g><!--entity MP--><g class="entity" data-qualified-name="core.meter.MP" data-source-line="5" id="ent0004"><rect fill="#F1F1F1" height="46.4883" rx="2.5" ry="2.5" style="stroke:#181818;stroke-width:0.5;" width="188.7021" x="104.65" y="222.0083"/><rect fill="#F1F1F1" height="10" style="stroke:#181818;stroke-width:0.5;" width="15" x="273.3521" y="227.0083"/><rect fill="#F1F1F1" height="2" style="stroke:#181818;stroke-width:0.5;" width="4" x="271.3521" y="229.0083"/><rect fill="#F1F1F1" height="2" style="stroke:#181818;stroke-width:0.5;" width="4" x="271.3521" y="233.0083"/><text fill="#000000" font-family="sans-serif" font-size="14" lengthAdjust="spacing" textLength="148.7021" x="119.65" y="255.5434">meter_process.h/.cpp</text></g><!--entity D645--><g class="entity" data-qualified-name="core.meter.D645" data-source-line="6" id="ent0005"><rect fill="#F1F1F1" height="46.4883" rx="2.5" ry="2.5" style="stroke:#181818;stroke-width:0.5;" width="180.9707" x="104.51" y="385.5583"/><rect fill="#F1F1F1" height="10" style="stroke:#181818;stroke-width:0.5;" width="15" x="265.4807" y="390.5583"/><rect fill="#F1F1F1" height="2" style="stroke:#181818;stroke-width:0.5;" width="4" x="263.4807" y="392.5583"/><rect fill="#F1F1F1" height="2" style="stroke:#181818;stroke-width:0.5;" width="4" x="263.4807" y="396.5583"/><text fill="#000000" font-family="sans-serif" font-size="14" lengthAdjust="spacing" textLength="140.9707" x="119.51" y="419.0934">dlt645_meter.h/.cpp</text></g><!--entity BP--><g class="entity" data-qualified-name="core.base .reuse..BP" data-source-line="10" id="ent0007"><rect fill="#F1F1F1" height="46.4883" rx="2.5" ry="2.5" style="stroke:#181818;stroke-width:0.5;" width="122.0313" x="240.98" y="550.0783"/><rect fill="#F1F1F1" height="10" style="stroke:#181818;stroke-width:0.5;" width="15" x="343.0113" y="555.0783"/><rect fill="#F1F1F1" height="2" style="stroke:#181818;stroke-width:0.5;" width="4" x="341.0113" y="557.0783"/><rect fill="#F1F1F1" height="2" style="stroke:#181818;stroke-width:0.5;" width="4" x="341.0113" y="561.0783"/><text fill="#000000" font-family="sans-serif" font-size="14" lengthAdjust="spacing" textLength="82.0313" x="255.98" y="583.6134">BaseProcess</text></g><!--entity MC--><g class="entity" data-qualified-name="core.base .reuse..MC" data-source-line="11" id="ent0008"><rect fill="#F1F1F1" height="46.4883" rx="2.5" ry="2.5" style="stroke:#181818;stroke-width:0.5;" width="110.8477" x="397.58" y="550.0783"/><rect fill="#F1F1F1" height="10" style="stroke:#181818;stroke-width:0.5;" width="15" x="488.4277" y="555.0783"/><rect fill="#F1F1F1" height="2" style="stroke:#181818;stroke-width:0.5;" width="4" x="486.4277" y="557.0783"/><rect fill="#F1F1F1" height="2" style="stroke:#181818;stroke-width:0.5;" width="4" x="486.4277" y="561.0783"/><text fill="#000000" font-family="sans-serif" font-size="14" lengthAdjust="spacing" textLength="70.8477" x="412.58" y="583.6134">MqttClient</text></g><!--entity SC--><g class="entity" data-qualified-name="core.base .reuse..SC" data-source-line="12" id="ent0009"><rect fill="#F1F1F1" height="46.4883" rx="2.5" ry="2.5" style="stroke:#181818;stroke-width:0.5;" width="184.2178" x="21.89" y="550.0783"/><rect fill="#F1F1F1" height="10" style="stroke:#181818;stroke-width:0.5;" width="15" x="186.1078" y="555.0783"/><rect fill="#F1F1F1" height="2" style="stroke:#181818;stroke-width:0.5;" width="4" x="184.1078" y="557.0783"/><rect fill="#F1F1F1" height="2" style="stroke:#181818;stroke-width:0.5;" width="4" x="184.1078" y="561.0783"/><text fill="#000000" font-family="sans-serif" font-size="14" lengthAdjust="spacing" textLength="144.2178" x="36.89" y="583.6134">SerialCommunication</text></g><!--entity CFG--><g class="entity" data-qualified-name="core.base .reuse..CFG" data-source-line="13" id="ent0010"><rect fill="#F1F1F1" height="46.4883" rx="2.5" ry="2.5" style="stroke:#181818;stroke-width:0.5;" width="167.9141" x="543.04" y="550.0783"/><rect fill="#F1F1F1" height="10" style="stroke:#181818;stroke-width:0.5;" width="15" x="690.9541" y="555.0783"/><rect fill="#F1F1F1" height="2" style="stroke:#181818;stroke-width:0.5;" width="4" x="688.9541" y="557.0783"/><rect fill="#F1F1F1" height="2" style="stroke:#181818;stroke-width:0.5;" width="4" x="688.9541" y="561.0783"/><text fill="#000000" font-family="sans-serif" font-size="14" lengthAdjust="spacing" textLength="127.9141" x="558.04" y="583.6134">ConfigManagerLite</text></g><!--entity CJ--><g class="entity" data-qualified-name="core.base .reuse..CJ" data-source-line="14" id="ent0011"><rect fill="#F1F1F1" height="46.4883" rx="2.5" ry="2.5" style="stroke:#181818;stroke-width:0.5;" width="80.2842" x="745.86" y="550.0783"/><rect fill="#F1F1F1" height="10" style="stroke:#181818;stroke-width:0.5;" width="15" x="806.1442" y="555.0783"/><rect fill="#F1F1F1" height="2" style="stroke:#181818;stroke-width:0.5;" width="4" x="804.1442" y="557.0783"/><rect fill="#F1F1F1" height="2" style="stroke:#181818;stroke-width:0.5;" width="4" x="804.1442" y="561.0783"/><text fill="#000000" font-family="sans-serif" font-size="14" lengthAdjust="spacing" textLength="40.2842" x="760.86" y="583.6134">cJSON</text></g><g class="entity" data-qualified-name="GMN19" data-source-line="26" id="ent0020"><path d="M327.85,201.9783 L327.85,241.2483 L293.5,245.2483 L327.85,249.2483 L327.85,288.531 A0,0 0 0 0 327.85,288.531 L574.141,288.531 A0,0 0 0 0 574.141,288.531 L574.141,211.9783 L564.141,201.9783 L327.85,201.9783 A0,0 0 0 0 327.85,201.9783" fill="#FEFFDD" style="stroke:#181818;stroke-width:0.5;"/><path d="M564.141,201.9783 L564.141,211.9783 L574.141,211.9783 L564.141,201.9783" fill="#FEFFDD" style="stroke:#181818;stroke-width:0.5;"/><text fill="#000000" font-family="sans-serif" font-size="13" lengthAdjust="spacing" textLength="134.1133" x="333.85" y="219.5466">&#26680;&#24515;&#32844;&#36131;&#19982;&#20027;&#27969;&#31243;&#20989;&#25968;:</text><text fill="#000000" font-family="sans-serif" font-size="13" lengthAdjust="spacing" textLength="225.291" x="333.85" y="234.8572">- loadConfig()/initMqtt()/initMeter()</text><text fill="#000000" font-family="sans-serif" font-size="13" lengthAdjust="spacing" textLength="136.0684" x="333.85" y="250.1677">- pollOnce(): &#25353;&#26538;&#36718;&#35810;</text><text fill="#000000" font-family="sans-serif" font-size="13" lengthAdjust="spacing" textLength="214.1953" x="333.85" y="265.4783">- readGunMeter(): &#21333;&#26538;&#35835;&#21462; + &#37325;&#35797;</text><text fill="#000000" font-family="sans-serif" font-size="13" lengthAdjust="spacing" textLength="191.5532" x="333.85" y="280.7888">- publishData()/publishEvent()</text></g><g class="entity" data-qualified-name="GMN22" data-source-line="34" id="ent0023"><path d="M804.7,365.5283 L804.7,452.081 L1097.2972,452.081 L1097.2972,375.5283 L1087.2972,365.5283 L804.7,365.5283" fill="#FEFFDD" style="stroke:#181818;stroke-width:0.5;"/><path d="M1087.2972,365.5283 L1087.2972,375.5283 L1097.2972,375.5283 L1087.2972,365.5283" fill="#FEFFDD" style="stroke:#181818;stroke-width:1;"/><text fill="#000000" font-family="sans-serif" font-size="13" lengthAdjust="spacing" textLength="134.1133" x="810.7" y="383.0966">&#21327;&#35758;&#32844;&#36131;&#19982;&#20027;&#27969;&#31243;&#20989;&#25968;:</text><text fill="#000000" font-family="sans-serif" font-size="13" lengthAdjust="spacing" textLength="177.3599" x="810.7" y="398.4072">- readAll(): &#24635;&#30005;&#37327;/&#30005;&#21387;/&#30005;&#27969;</text><text fill="#000000" font-family="sans-serif" font-size="13" lengthAdjust="spacing" textLength="167.064" x="810.7" y="413.7177">- readOne()/requestRead()</text><text fill="#000000" font-family="sans-serif" font-size="13" lengthAdjust="spacing" textLength="271.5972" x="810.7" y="429.0283">- tryExtractFrame()/decodeReadResponse()</text><text fill="#000000" font-family="sans-serif" font-size="13" lengthAdjust="spacing" textLength="180.4067" x="810.7" y="444.3388">- checksum()/decodeBcdLe()</text></g><!--link Main to MP--><g class="link" data-entity-1="ent0003" data-entity-2="ent0004" data-link-type="dependency" data-source-line="17" id="lnk12"><path d="M199,125.4683 C199,151.8783 199,189.1883 199,215.5683" fill="none" id="Main-to-MP" style="stroke:#181818;stroke-width:1;"/><polygon fill="#181818" points="199,221.5683,203,212.5683,199,216.5683,195,212.5683,199,221.5683" style="stroke:#181818;stroke-width:1;"/><text fill="#000000" font-family="sans-serif" font-size="13" lengthAdjust="spacing" textLength="84.8174" x="200" y="168.5466">&#21019;&#24314;/&#21551;&#21160;&#36827;&#31243;</text></g><!--link MP to BP--><g class="link" data-entity-1="ent0004" data-entity-2="ent0007" data-link-type="extension" data-source-line="18" id="lnk13"><path d="M227.81,268.6783 C253.08,290.3383 288.06,325.6483 303,365.5283 C326.69,428.7283 318.5875,492.9813 310.7375,532.0313" fill="none" id="MP-to-BP" style="stroke:#181818;stroke-width:1;"/><polygon fill="none" points="307.19,549.6783,316.6198,533.2138,304.8551,530.8488,307.19,549.6783" style="stroke:#181818;stroke-width:1;"/><text fill="#000000" font-family="sans-serif" font-size="13" lengthAdjust="spacing" textLength="26" x="318.08" y="413.8766">&#32487;&#25215;</text></g><!--link MP to D645--><g class="link" data-entity-1="ent0004" data-entity-2="ent0005" data-link-type="dependency" data-source-line="19" id="lnk14"><path d="M198.44,268.7183 C197.68,299.4883 196.468,348.4601 195.708,379.2701" fill="none" id="MP-to-D645" style="stroke:#181818;stroke-width:1;"/><polygon fill="#181818" points="195.56,385.2683,199.7807,376.3697,195.6833,380.2698,191.7832,376.1724,195.56,385.2683" style="stroke:#181818;stroke-width:1;"/><text fill="#000000" font-family="sans-serif" font-size="13" lengthAdjust="spacing" textLength="52" x="198.12" y="332.0966">&#36718;&#35810;&#35835;&#34920;</text></g><!--link MP to MC--><g class="link" data-entity-1="ent0004" data-entity-2="ent0008" data-link-type="dependency" data-source-line="20" id="lnk15"><path d="M237.54,268.8783 C259.09,282.2383 285.96,300.1083 308,318.5283 C330.19,337.0783 336.5,341.7783 353,365.5283 C395.88,427.2683 427.7071,504.5964 442.6271,544.0364" fill="none" id="MP-to-MC" style="stroke:#181818;stroke-width:1;"/><polygon fill="#181818" points="444.75,549.6483,445.3068,539.8152,442.9809,544.9717,437.8243,542.6458,444.75,549.6483" style="stroke:#181818;stroke-width:1;"/><text fill="#000000" font-family="sans-serif" font-size="13" lengthAdjust="spacing" textLength="63.7368" x="404.32" y="413.8766">MQTT&#21457;&#24067;</text></g><!--link MP to CFG--><g class="link" data-entity-1="ent0004" data-entity-2="ent0010" data-link-type="dependency" data-source-line="21" id="lnk16"><path d="M256.04,268.9283 C331.69,299.2983 457.84,351.0383 476,365.5283 C542.55,418.6183 591.2567,502.6777 612.9767,544.3477" fill="none" id="MP-to-CFG" style="stroke:#181818;stroke-width:1;"/><polygon fill="#181818" points="615.75,549.6683,615.1371,539.8385,613.4389,545.2344,608.043,543.5362,615.75,549.6683" style="stroke:#181818;stroke-width:1;"/><text fill="#000000" font-family="sans-serif" font-size="13" lengthAdjust="spacing" textLength="52" x="557.91" y="413.8766">&#35835;&#21462;&#37197;&#32622;</text></g><!--link MP to CJ--><g class="link" data-entity-1="ent0004" data-entity-2="ent0011" data-link-type="dependency" data-source-line="22" id="lnk17"><path d="M254.73,268.9683 C272.26,275.7083 291.8,282.8183 310,288.5283 C445.04,330.8983 499.68,289.4083 619,365.5283 C694.09,413.4283 748.011,501.3687 771.411,544.3487" fill="none" id="MP-to-CJ" style="stroke:#181818;stroke-width:1;"/><polygon fill="#181818" points="774.28,549.6183,773.4896,539.8012,771.8892,545.2269,766.4634,543.6265,774.28,549.6183" style="stroke:#181818;stroke-width:1;"/><text fill="#000000" font-family="sans-serif" font-size="13" lengthAdjust="spacing" textLength="56.748" x="712.44" y="413.8766">&#32452;&#35013;JSON</text></g><!--link D645 to SC--><g class="link" data-entity-1="ent0005" data-entity-2="ent0009" data-link-type="dependency" data-source-line="23" id="lnk18"><path d="M183.74,432.3983 C168.31,463.3683 143.4264,513.2883 127.9764,544.2883" fill="none" id="D645-to-SC" style="stroke:#181818;stroke-width:1;"/><polygon fill="#181818" points="125.3,549.6583,132.8945,543.3875,127.5303,545.1833,125.7345,539.819,125.3,549.6583" style="stroke:#181818;stroke-width:1;"/><text fill="#000000" font-family="sans-serif" font-size="13" lengthAdjust="spacing" textLength="50.6606" x="157.93" y="495.6466">485&#25910;&#21457;</text></g><!--link D645 to GMN22--><g class="link" data-entity-1="ent0005" data-entity-2="ent0023" data-link-type="association" data-source-line="34" id="lnk24"><path d="M223.25,385.2183 C249.06,365.3183 289.24,338.3083 329.5,327.0283 C513.95,275.3583 572.87,288.4583 760.5,327.0283 C797.69,334.6683 836.58,349.9083 869.46,365.1683" fill="none" id="D645-GMN22" style="stroke:#181818;stroke-width:1;stroke-dasharray:7,7;"/></g><?plantuml-src VL9DJnD16BxlhvXmQcFANi2O7aZiyf4qNOiKJyQGONPe9-pEbjbPer4J2P2AKAgHUcb2H0us7beFOggRfd-6_UY_S6QshOI3fzbvdkTztlTvPpdXDWOS-LiEvfY1yUNlkDEBWq_HnI5uOfOqhGxHBgnYC8TSXdMbcWElD02UEf3GULIlFmFG0wQuA50AjkhCHTZpvclwFy6wf2sRtrzOJ9lTPfS5ghsvssqRUXXa6FOzd9qqBGXeFNLNXGLbQ-vnRjW4KvxsCYHOmOn0st0TnwS4GKvSgjYAOWsNxf2g2Qbenqg4OyKPgskIHCLA-L4A5ELOCXt8vPP42f07uRjE6FpHmm_zy7qt6NNYxeacY5pkzPAOHmZYu5jqF4gn9PLDWCcmb_I_9lqWkUnEATCGXFbuSpDiVGm71rDOJ24B-a7O-Zm-QiR3temfAll3vEf8ZgWfRqbKfDF2WyNe_9VmqZJgSWmOgTOuS7VIvKTV1k7e8Da_JNvUtGpERWP1TBqlPWyRmwZz8oyKEM2xq4etaydgX18kDplzb8-MoIfTtRNjCaKuays3wFGuklYUnbCamz1Qy-b4B_RLR4k1YWFkWN6ZcVJRgOs_RHEljWmv54qcjvNduXr57qmj86FS3QF-5I1SMqclz_yuSfA7jgscV1l4vzVZHaiNHtXs8WzHC9ELgGYZCxpdOuzl262IbBENAoyuWuYlCkX8ZOMHQs4fsS1UtQKUdaXH3QDTptTccWAoIlXsahy0?></g></svg>