<?plantuml 1.2026.1?><svg xmlns="http://www.w3.org/2000/svg" xmlns:xlink="http://www.w3.org/1999/xlink" contentStyleType="text/css" data-diagram-type="DESCRIPTION" height="1448px" preserveAspectRatio="none" style="width:1600px;height:1448px;background:#FFFFFF;" version="1.1" viewBox="0 0 1600 1448" width="1600px" zoomAndPan="magnify"><title>&#23884;&#20837;&#24335; Linux &#31995;&#32479;&#21040;&#24212;&#29992;&#22522;&#26412;&#26550;&#26500;&#22270;</title><defs/><g><g class="title" data-source-line="1"><text fill="#000000" font-family="sans-serif" font-size="14" font-weight="bold" lengthAdjust="spacing" textLength="230.583" x="677.7085" y="23.5352">&#23884;&#20837;&#24335; Linux &#31995;&#32479;&#21040;&#24212;&#29992;&#22522;&#26412;&#26550;&#26500;&#22270;</text></g><!--cluster APP--><g class="cluster" data-qualified-name="APP" data-source-line="7" id="ent0002"><rect fill="#E8F4FF" height="271.35" rx="2.5" ry="2.5" style="stroke:#181818;stroke-width:1;" width="473" x="555" y="44.4883"/><text fill="#000000" font-family="sans-serif" font-size="14" font-weight="bold" lengthAdjust="spacing" textLength="139.002" x="721.999" y="60.0234">&#24212;&#29992;&#23618; (Application)</text></g><!--cluster MIDDLE--><g class="cluster" data-qualified-name="MIDDLE" data-source-line="16" id="ent0009"><rect fill="#F3F8E8" height="271.98" rx="2.5" ry="2.5" style="stroke:#181818;stroke-width:1;" width="526" x="1068" y="212.3483"/><text fill="#000000" font-family="sans-serif" font-size="14" font-weight="bold" lengthAdjust="spacing" textLength="196.4375" x="1232.7813" y="227.8834">&#20013;&#38388;&#20214;&#19982;&#22522;&#30784;&#24211; (Middleware)</text></g><!--cluster USER--><g class="cluster" data-qualified-name="USER" data-source-line="24" id="ent0015"><rect fill="#FFF7E8" height="271.98" rx="2.5" ry="2.5" style="stroke:#181818;stroke-width:1;" width="291" x="737" y="380.8383"/><text fill="#000000" font-family="sans-serif" font-size="14" font-weight="bold" lengthAdjust="spacing" textLength="200.8604" x="782.0698" y="396.3734">&#29992;&#25143;&#31354;&#38388;&#31995;&#32479;&#26381;&#21153; (Userspace)</text></g><!--cluster KERNEL--><g class="cluster" data-qualified-name="KERNEL" data-source-line="31" id="ent0020"><rect fill="#FCEEF5" height="271.98" rx="2.5" ry="2.5" style="stroke:#181818;stroke-width:1;" width="333" x="364" y="549.3283"/><text fill="#000000" font-family="sans-serif" font-size="14" font-weight="bold" lengthAdjust="spacing" textLength="147.417" x="456.7915" y="564.8634">Linux &#20869;&#26680;&#23618; (Kernel)</text></g><!--cluster DRV--><g class="cluster" data-qualified-name="DRV" data-source-line="39" id="ent0026"><rect fill="#F8F0FF" height="271.98" rx="2.5" ry="2.5" style="stroke:#181818;stroke-width:1;" width="505" x="737" y="717.8183"/><text fill="#000000" font-family="sans-serif" font-size="14" font-weight="bold" lengthAdjust="spacing" textLength="137.7988" x="920.6006" y="733.3534">&#35774;&#22791;&#39537;&#21160;&#23618; (Drivers)</text></g><!--cluster BSP--><g class="cluster" data-qualified-name="BSP" data-source-line="47" id="ent0032"><rect fill="#F2F2F2" height="271.97" rx="2.5" ry="2.5" style="stroke:#181818;stroke-width:1;" width="352" x="345" y="886.3083"/><text fill="#000000" font-family="sans-serif" font-size="14" font-weight="bold" lengthAdjust="spacing" textLength="110.3936" x="465.8032" y="901.8434">&#26495;&#32423;&#25903;&#25345;&#21253; (BSP)</text></g><!--cluster BOOT--><g class="cluster" data-qualified-name="BOOT" data-source-line="53" id="ent0036"><rect fill="#EFEFEF" height="271.97" rx="2.5" ry="2.5" style="stroke:#181818;stroke-width:1;" width="283" x="7" y="1054.7983"/><text fill="#000000" font-family="sans-serif" font-size="14" font-weight="bold" lengthAdjust="spacing" textLength="103.3662" x="96.8169" y="1070.3334">&#24341;&#23548;&#38142;&#36335; (Boot)</text></g><!--cluster HW--><g class="cluster" data-qualified-name="HW" data-source-line="59" id="ent0040"><rect fill="#EDEDED" height="218.98" rx="2.5" ry="2.5" style="stroke:#181818;stroke-width:1;" width="414" x="330" y="1223.2783"/><text fill="#000000" font-family="sans-serif" font-size="14" font-weight="bold" lengthAdjust="spacing" textLength="126.6631" x="473.6685" y="1238.8134">&#30828;&#20214;&#23618; (Hardware)</text></g><!--entity HMI/????--><g class="entity" data-qualified-name="APP.HMI....." data-source-line="8" id="ent0003"><rect fill="#F1F1F1" height="36.4883" rx="2.5" ry="2.5" style="stroke:#181818;stroke-width:0.5;" width="109.7217" x="579.14" y="87.4883"/><text fill="#000000" font-family="sans-serif" font-size="14" lengthAdjust="spacing" textLength="89.7217" x="589.14" y="111.0234">HMI/&#19994;&#21153;&#24212;&#29992;</text></g><!--entity tcu_logic--><g class="entity" data-qualified-name="APP.tcu_logic" data-source-line="9" id="ent0004"><rect fill="#F1F1F1" height="36.4883" rx="2.5" ry="2.5" style="stroke:#181818;stroke-width:0.5;" width="80.6895" x="723.66" y="87.4883"/><text fill="#000000" font-family="sans-serif" font-size="14" lengthAdjust="spacing" textLength="60.6895" x="733.66" y="111.0234">tcu_logic</text></g><!--entity tcu_pile_controller--><g class="entity" data-qualified-name="APP.tcu_pile_controller" data-source-line="10" id="ent0005"><rect fill="#F1F1F1" height="36.4883" rx="2.5" ry="2.5" style="stroke:#181818;stroke-width:0.5;" width="145.4463" x="839.28" y="87.4883"/><text fill="#000000" font-family="sans-serif" font-size="14" lengthAdjust="spacing" textLength="125.4463" x="849.28" y="111.0234">tcu_pile_controller</text></g><!--entity tcu_meter--><g class="entity" data-qualified-name="APP.tcu_meter" data-source-line="11" id="ent0006"><rect fill="#F1F1F1" height="36.4883" rx="2.5" ry="2.5" style="stroke:#181818;stroke-width:0.5;" width="87.7305" x="585.13" y="255.3483"/><text fill="#000000" font-family="sans-serif" font-size="14" lengthAdjust="spacing" textLength="67.7305" x="595.13" y="278.8834">tcu_meter</text></g><!--entity tcu_comm--><g class="entity" data-qualified-name="APP.tcu_comm" data-source-line="12" id="ent0007"><rect fill="#F1F1F1" height="36.4883" rx="2.5" ry="2.5" style="stroke:#181818;stroke-width:0.5;" width="90.0068" x="708" y="255.3483"/><text fill="#000000" font-family="sans-serif" font-size="14" lengthAdjust="spacing" textLength="70.0068" x="718" y="278.8834">tcu_comm</text></g><!--entity logger/daemon--><g class="entity" data-qualified-name="APP.logger.daemon" data-source-line="13" id="ent0008"><rect fill="#F1F1F1" height="36.4883" rx="2.5" ry="2.5" style="stroke:#181818;stroke-width:0.5;" width="125.6768" x="833.16" y="255.3483"/><text fill="#000000" font-family="sans-serif" font-size="14" lengthAdjust="spacing" textLength="105.6768" x="843.16" y="278.8834">logger/daemon</text></g><!--entity MQTT Broker (mosquitto)--><g class="entity" data-qualified-name="MIDDLE.MQTT Broker .mosquitto." data-source-line="17" id="ent0010"><rect fill="#F1F1F1" height="36.4883" rx="2.5" ry="2.5" style="stroke:#181818;stroke-width:0.5;" width="192.1221" x="1206.94" y="255.3483"/><text fill="#000000" font-family="sans-serif" font-size="14" lengthAdjust="spacing" textLength="172.1221" x="1216.94" y="278.8834">MQTT Broker (mosquitto)</text></g><!--entity MQTT Client SDK--><g class="entity" data-qualified-name="MIDDLE.MQTT Client SDK" data-source-line="18" id="ent0011"><rect fill="#F1F1F1" height="36.4883" rx="2.5" ry="2.5" style="stroke:#181818;stroke-width:0.5;" width="136.1699" x="1433.92" y="255.3483"/><text fill="#000000" font-family="sans-serif" font-size="14" lengthAdjust="spacing" textLength="116.1699" x="1443.92" y="278.8834">MQTT Client SDK</text></g><!--entity cJSON--><g class="entity" data-qualified-name="MIDDLE.cJSON" data-source-line="19" id="ent0012"><rect fill="#F1F1F1" height="36.4883" rx="2.5" ry="2.5" style="stroke:#181818;stroke-width:0.5;" width="60.2842" x="1111.86" y="255.3483"/><text fill="#000000" font-family="sans-serif" font-size="14" lengthAdjust="spacing" textLength="40.2842" x="1121.86" y="278.8834">cJSON</text></g><!--entity libv2gshm / IPC--><g class="entity" data-qualified-name="MIDDLE.libv2gshm . IPC" data-source-line="20" id="ent0013"><rect fill="#F1F1F1" height="36.4883" rx="2.5" ry="2.5" style="stroke:#181818;stroke-width:0.5;" width="128.2881" x="1238.86" y="423.8383"/><text fill="#000000" font-family="sans-serif" font-size="14" lengthAdjust="spacing" textLength="108.2881" x="1248.86" y="447.3734">libv2gshm / IPC</text></g><!--entity ???????--><g class="entity" data-qualified-name="MIDDLE........" data-source-line="21" id="ent0014"><rect fill="#F1F1F1" height="36.4883" rx="2.5" ry="2.5" style="stroke:#181818;stroke-width:0.5;" width="118" x="1402" y="423.8383"/><text fill="#000000" font-family="sans-serif" font-size="14" lengthAdjust="spacing" textLength="98" x="1412" y="447.3734">&#37197;&#32622;&#19982;&#26085;&#24535;&#32452;&#20214;</text></g><!--entity systemd/init--><g class="entity" data-qualified-name="USER.systemd.init" data-source-line="25" id="ent0016"><rect fill="#F1F1F1" height="36.4883" rx="2.5" ry="2.5" style="stroke:#181818;stroke-width:0.5;" width="105.8662" x="795.07" y="423.8383"/><text fill="#000000" font-family="sans-serif" font-size="14" lengthAdjust="spacing" textLength="85.8662" x="805.07" y="447.3734">systemd/init</text></g><!--entity udev--><g class="entity" data-qualified-name="USER.udev" data-source-line="26" id="ent0017"><rect fill="#F1F1F1" height="36.4883" rx="2.5" ry="2.5" style="stroke:#181818;stroke-width:0.5;" width="52.5459" x="935.73" y="423.8383"/><text fill="#000000" font-family="sans-serif" font-size="14" lengthAdjust="spacing" textLength="32.5459" x="945.73" y="447.3734">udev</text></g><!--entity netif/ssh--><g class="entity" data-qualified-name="USER.netif.ssh" data-source-line="27" id="ent0018"><rect fill="#F1F1F1" height="36.4883" rx="2.5" ry="2.5" style="stroke:#181818;stroke-width:0.5;" width="81.2227" x="769.39" y="592.3283"/><text fill="#000000" font-family="sans-serif" font-size="14" lengthAdjust="spacing" textLength="61.2227" x="779.39" y="615.8634">netif/ssh</text></g><!--entity ???????--><g class="entity" data-qualified-name="USER........" data-source-line="28" id="ent0019"><rect fill="#F1F1F1" height="36.4883" rx="2.5" ry="2.5" style="stroke:#181818;stroke-width:0.5;" width="118" x="886" y="592.3283"/><text fill="#000000" font-family="sans-serif" font-size="14" lengthAdjust="spacing" textLength="98" x="896" y="615.8634">&#35786;&#26029;&#19982;&#36816;&#32500;&#24037;&#20855;</text></g><!--entity ????--><g class="entity" data-qualified-name="KERNEL....." data-source-line="32" id="ent0021"><rect fill="#F1F1F1" height="36.4883" rx="2.5" ry="2.5" style="stroke:#181818;stroke-width:0.5;" width="76" x="388" y="592.3283"/><text fill="#000000" font-family="sans-serif" font-size="14" lengthAdjust="spacing" textLength="56" x="398" y="615.8634">&#36827;&#31243;&#35843;&#24230;</text></g><!--entity ????--><g class="entity" data-qualified-name="KERNEL....." data-source-line="33" id="ent0022"><rect fill="#F1F1F1" height="36.4883" rx="2.5" ry="2.5" style="stroke:#181818;stroke-width:0.5;" width="76" x="499" y="592.3283"/><text fill="#000000" font-family="sans-serif" font-size="14" lengthAdjust="spacing" textLength="56" x="509" y="615.8634">&#20869;&#23384;&#31649;&#29702;</text></g><!--entity VFS--><g class="entity" data-qualified-name="KERNEL.VFS" data-source-line="34" id="ent0023"><rect fill="#F1F1F1" height="36.4883" rx="2.5" ry="2.5" style="stroke:#181818;stroke-width:0.5;" width="44.1992" x="609.9" y="592.3283"/><text fill="#000000" font-family="sans-serif" font-size="14" lengthAdjust="spacing" textLength="24.1992" x="619.9" y="615.8634">VFS</text></g><!--entity ?????--><g class="entity" data-qualified-name="KERNEL......" data-source-line="35" id="ent0024"><rect fill="#F1F1F1" height="36.4883" rx="2.5" ry="2.5" style="stroke:#181818;stroke-width:0.5;" width="90" x="388" y="760.8183"/><text fill="#000000" font-family="sans-serif" font-size="14" lengthAdjust="spacing" textLength="70" x="398" y="784.3534">&#32593;&#32476;&#21327;&#35758;&#26632;</text></g><!--entity IPC??--><g class="entity" data-qualified-name="KERNEL.IPC.." data-source-line="36" id="ent0025"><rect fill="#F1F1F1" height="36.4883" rx="2.5" ry="2.5" style="stroke:#181818;stroke-width:0.5;" width="69.458" x="513.27" y="760.8183"/><text fill="#000000" font-family="sans-serif" font-size="14" lengthAdjust="spacing" textLength="49.458" x="523.27" y="784.3534">IPC&#26426;&#21046;</text></g><!--entity CAN/SOCKETCAN--><g class="entity" data-qualified-name="DRV.CAN.SOCKETCAN" data-source-line="40" id="ent0027"><rect fill="#F1F1F1" height="36.4883" rx="2.5" ry="2.5" style="stroke:#181818;stroke-width:0.5;" width="140.4014" x="934.8" y="760.8183"/><text fill="#000000" font-family="sans-serif" font-size="14" lengthAdjust="spacing" textLength="120.4014" x="944.8" y="784.3534">CAN/SOCKETCAN</text></g><!--entity UART/RS485--><g class="entity" data-qualified-name="DRV.UART.RS485" data-source-line="41" id="ent0028"><rect fill="#F1F1F1" height="36.4883" rx="2.5" ry="2.5" style="stroke:#181818;stroke-width:0.5;" width="107.3564" x="1110.32" y="760.8183"/><text fill="#000000" font-family="sans-serif" font-size="14" lengthAdjust="spacing" textLength="87.3564" x="1120.32" y="784.3534">UART/RS485</text></g><!--entity Ethernet/Wi-Fi--><g class="entity" data-qualified-name="DRV.Ethernet.Wi-Fi" data-source-line="42" id="ent0029"><rect fill="#F1F1F1" height="36.4883" rx="2.5" ry="2.5" style="stroke:#181818;stroke-width:0.5;" width="119.7842" x="780.11" y="760.8183"/><text fill="#000000" font-family="sans-serif" font-size="14" lengthAdjust="spacing" textLength="99.7842" x="790.11" y="784.3534">Ethernet/Wi-Fi</text></g><!--entity GPIO/Watchdog--><g class="entity" data-qualified-name="DRV.GPIO.Watchdog" data-source-line="43" id="ent0030"><rect fill="#F1F1F1" height="36.4883" rx="2.5" ry="2.5" style="stroke:#181818;stroke-width:0.5;" width="127.0508" x="935.47" y="929.3083"/><text fill="#000000" font-family="sans-serif" font-size="14" lengthAdjust="spacing" textLength="107.0508" x="945.47" y="952.8434">GPIO/Watchdog</text></g><!--entity Storage/eMMC--><g class="entity" data-qualified-name="DRV.Storage.eMMC" data-source-line="44" id="ent0031"><rect fill="#F1F1F1" height="36.4883" rx="2.5" ry="2.5" style="stroke:#181818;stroke-width:0.5;" width="120.3105" x="1097.84" y="929.3083"/><text fill="#000000" font-family="sans-serif" font-size="14" lengthAdjust="spacing" textLength="100.3105" x="1107.84" y="952.8434">Storage/eMMC</text></g><!--entity ??? (DTS)--><g class="entity" data-qualified-name="BSP.... .DTS." data-source-line="48" id="ent0033"><rect fill="#F1F1F1" height="36.4883" rx="2.5" ry="2.5" style="stroke:#181818;stroke-width:0.5;" width="102.4141" x="388.79" y="929.3083"/><text fill="#000000" font-family="sans-serif" font-size="14" lengthAdjust="spacing" textLength="82.4141" x="398.79" y="952.8434">&#35774;&#22791;&#26641; (DTS)</text></g><!--entity ??/??/????--><g class="entity" data-qualified-name="BSP..........." data-source-line="49" id="ent0034"><rect fill="#F1F1F1" height="36.4883" rx="2.5" ry="2.5" style="stroke:#181818;stroke-width:0.5;" width="146.6836" x="526.66" y="929.3083"/><text fill="#000000" font-family="sans-serif" font-size="14" lengthAdjust="spacing" textLength="126.6836" x="536.66" y="952.8434">&#26102;&#38047;/&#30005;&#28304;/&#24341;&#33050;&#37197;&#32622;</text></g><!--entity SoC ????--><g class="entity" data-qualified-name="BSP.SoC ...." data-source-line="50" id="ent0035"><rect fill="#F1F1F1" height="36.4883" rx="2.5" ry="2.5" style="stroke:#181818;stroke-width:0.5;" width="106.2559" x="388.87" y="1097.7983"/><text fill="#000000" font-family="sans-serif" font-size="14" lengthAdjust="spacing" textLength="86.2559" x="398.87" y="1121.3334">SoC &#22806;&#35774;&#36866;&#37197;</text></g><!--entity BootROM--><g class="entity" data-qualified-name="BOOT.BootROM" data-source-line="54" id="ent0037"><rect fill="#F1F1F1" height="36.4883" rx="2.5" ry="2.5" style="stroke:#181818;stroke-width:0.5;" width="82.2754" x="30.86" y="1097.7983"/><text fill="#000000" font-family="sans-serif" font-size="14" lengthAdjust="spacing" textLength="62.2754" x="40.86" y="1121.3334">BootROM</text></g><!--entity SPL/U-Boot--><g class="entity" data-qualified-name="BOOT.SPL.U-Boot" data-source-line="55" id="ent0038"><rect fill="#F1F1F1" height="36.4883" rx="2.5" ry="2.5" style="stroke:#181818;stroke-width:0.5;" width="98.374" x="147.81" y="1097.7983"/><text fill="#000000" font-family="sans-serif" font-size="14" lengthAdjust="spacing" textLength="78.374" x="157.81" y="1121.3334">SPL/U-Boot</text></g><!--entity Kernel + DTB + RootFS--><g class="entity" data-qualified-name="BOOT.Kernel . DTB . RootFS" data-source-line="56" id="ent0039"><rect fill="#F1F1F1" height="36.4883" rx="2.5" ry="2.5" style="stroke:#181818;stroke-width:0.5;" width="176.9053" x="30.55" y="1266.2783"/><text fill="#000000" font-family="sans-serif" font-size="14" lengthAdjust="spacing" textLength="156.9053" x="40.55" y="1289.8134">Kernel + DTB + RootFS</text></g><!--entity ARM SoC--><g class="entity" data-qualified-name="HW.ARM SoC" data-source-line="60" id="ent0041"><rect fill="#F1F1F1" height="36.4883" rx="2.5" ry="2.5" style="stroke:#181818;stroke-width:0.5;" width="80.8262" x="353.59" y="1266.2783"/><text fill="#000000" font-family="sans-serif" font-size="14" lengthAdjust="spacing" textLength="60.8262" x="363.59" y="1289.8134">ARM SoC</text></g><!--entity CAN???--><g class="entity" data-qualified-name="HW.CAN..." data-source-line="61" id="ent0042"><rect fill="#F1F1F1" height="36.4883" rx="2.5" ry="2.5" style="stroke:#181818;stroke-width:0.5;" width="91.6885" x="469.16" y="1266.2783"/><text fill="#000000" font-family="sans-serif" font-size="14" lengthAdjust="spacing" textLength="71.6885" x="479.16" y="1289.8134">CAN&#25910;&#21457;&#22120;</text></g><!--entity RS485???--><g class="entity" data-qualified-name="HW.RS485..." data-source-line="62" id="ent0043"><rect fill="#F1F1F1" height="36.4883" rx="2.5" ry="2.5" style="stroke:#181818;stroke-width:0.5;" width="104.9502" x="595.52" y="1266.2783"/><text fill="#000000" font-family="sans-serif" font-size="14" lengthAdjust="spacing" textLength="84.9502" x="605.52" y="1289.8134">RS485&#25910;&#21457;&#22120;</text></g><!--entity ??/4G??--><g class="entity" data-qualified-name="HW....4G.." data-source-line="63" id="ent0044"><rect fill="#F1F1F1" height="36.4883" rx="2.5" ry="2.5" style="stroke:#181818;stroke-width:0.5;" width="102.3115" x="353.84" y="1381.7683"/><text fill="#000000" font-family="sans-serif" font-size="14" lengthAdjust="spacing" textLength="82.3115" x="363.84" y="1405.3034">&#32593;&#21475;/4G&#27169;&#22359;</text></g><!--entity Flash/eMMC--><g class="entity" data-qualified-name="HW.Flash.eMMC" data-source-line="64" id="ent0045"><rect fill="#F1F1F1" height="36.4883" rx="2.5" ry="2.5" style="stroke:#181818;stroke-width:0.5;" width="104.0547" x="490.97" y="1381.7683"/><text fill="#000000" font-family="sans-serif" font-size="14" lengthAdjust="spacing" textLength="84.0547" x="500.97" y="1405.3034">Flash/eMMC</text></g><g class="entity" data-qualified-name="GMN53" data-source-line="76" id="ent0054"><path d="M1055.14,70.1083 L1055.14,141.3505 L1248.8661,141.3505 L1248.8661,80.1083 L1238.8661,70.1083 L1055.14,70.1083" fill="#FEFFDD" style="stroke:#181818;stroke-width:0.5;"/><path d="M1238.8661,70.1083 L1238.8661,80.1083 L1248.8661,80.1083 L1238.8661,70.1083" fill="#FEFFDD" style="stroke:#181818;stroke-width:1;"/><text fill="#000000" font-family="sans-serif" font-size="13" lengthAdjust="spacing" textLength="117" x="1061.14" y="87.6766">&#26412;&#39033;&#30446;&#19994;&#21153;&#20027;&#38142;&#36335;&#65306;</text><text fill="#000000" font-family="sans-serif" font-size="13" lengthAdjust="spacing" textLength="172.7261" x="1061.14" y="102.9872">pile_controller / tcu_logic /</text><text fill="#000000" font-family="sans-serif" font-size="13" lengthAdjust="spacing" textLength="142.9429" x="1061.14" y="118.2977">tcu_meter / tcu_comm</text><text fill="#000000" font-family="sans-serif" font-size="13" lengthAdjust="spacing" textLength="123.9634" x="1061.14" y="133.6083">&#36890;&#36807; MQTT &#35299;&#32806;&#21327;&#20316;</text></g><!--link APP to MIDDLE--><g class="link" data-entity-1="ent0002" data-entity-2="ent0009" data-link-type="dependency" data-source-line="67" id="lnk46"><path d="M1028.0643,130.6154 C1028.1414,130.8438 1028.2189,131.0733 1028.2968,131.3042 C1028.6085,132.2274 1028.9269,133.1702 1029.2514,134.1314 C1034.4441,149.5108 1041.2281,169.6033 1048.0113,189.6933 C1054.7944,209.7833 1061.5766,229.8708 1066.7655,245.2402 C1067.0898,246.2007 1067.4079,247.1429 1067.7193,248.0655 C1067.7972,248.2961 1065.9554,242.8408 1066.0325,243.0689" fill="none" id="APP-to-MIDDLE" style="stroke:#181818;stroke-width:1;"/><polygon fill="#181818" points="1067.9517,248.7537,1068.8627,238.9471,1066.3523,244.0164,1061.283,241.5061,1067.9517,248.7537" style="stroke:#181818;stroke-width:1;"/><text fill="#000000" font-family="sans-serif" font-size="13" lengthAdjust="spacing" textLength="78.7173" x="1047.32" y="184.9166">API/&#28040;&#24687;&#24635;&#32447;</text></g><!--link MIDDLE to USER--><g class="link" data-entity-1="ent0009" data-entity-2="ent0015" data-link-type="dependency" data-source-line="68" id="lnk47"><path d="M1067.8651,283.5746 C1067.594,283.8588 1067.3168,284.148 1067.0337,284.4421 C1066.4674,285.0304 1065.8773,285.638 1065.2643,286.2632 C1064.0384,287.5134 1062.7209,288.8334 1061.3189,290.2074 C1058.515,292.9555 1055.3731,295.9195 1051.95,298.9733 C1038.2575,311.1883 1020.065,324.8383 1001,331.8383 C968.83,343.6483 880.85,334.5183 847,339.8383 C804.29,346.5583 781.1,331.9883 753,364.8383 C750.3175,367.9733 748.1673,371.467 746.4599,375.1867 C746.0331,376.1166 745.6339,377.0606 745.261,378.0167 C745.0746,378.4947 744.8947,378.9758 744.7212,379.4596 C744.6344,379.7015 744.5493,379.9441 744.4657,380.1873 C744.4239,380.3089 746.2947,374.7436 746.2537,374.8655" fill="none" id="MIDDLE-to-USER" style="stroke:#181818;stroke-width:1;"/><polygon fill="#181818" points="744.3415,380.5527,751.0012,373.2967,745.935,375.8134,743.4183,370.7472,744.3415,380.5527" style="stroke:#181818;stroke-width:1;"/><text fill="#000000" font-family="sans-serif" font-size="13" lengthAdjust="spacing" textLength="78" x="848" y="353.4066">&#31995;&#32479;&#26381;&#21153;&#35843;&#29992;</text></g><!--link USER to KERNEL--><g class="link" data-entity-1="ent0015" data-entity-2="ent0020" data-link-type="dependency" data-source-line="69" id="lnk48"><path d="M736.8648,455.6132 C736.8167,455.6906 736.7683,455.7683 736.7199,455.8463 C736.526,456.1583 736.3298,456.4749 736.1314,456.7959 C734.5447,459.3639 732.8194,462.217 731.02,465.2883 C723.8225,477.5733 715.44,493.3483 710,508.3283 C706.2,518.7883 703.0088,530.1202 700.3544,541.2881 C699.6908,544.0801 699.0607,546.8619 698.4631,549.6172 C698.1643,550.9948 697.8736,552.3659 697.5909,553.7283 C697.4495,554.4095 697.3102,555.0886 697.1728,555.7652 C697.1384,555.9344 698.292,550.2221 698.2579,550.391" fill="none" id="USER-to-KERNEL" style="stroke:#181818;stroke-width:1;"/><polygon fill="#181818" points="697.0701,556.2723,702.7726,548.2423,698.0599,551.3712,694.931,546.6585,697.0701,556.2723" style="stroke:#181818;stroke-width:1;"/><text fill="#000000" font-family="sans-serif" font-size="13" lengthAdjust="spacing" textLength="41.3994" x="711" y="521.8966">syscall</text></g><!--link KERNEL to DRV--><g class="link" data-entity-1="ent0020" data-entity-2="ent0026" data-link-type="dependency" data-source-line="70" id="lnk49"><path d="M697.0643,635.5461 C697.1414,635.7753 697.2189,636.0058 697.2968,636.2375 C697.6085,637.1642 697.9269,638.1106 698.2514,639.0755 C703.4441,654.5133 710.2281,674.682 717.0113,694.8483 C723.7944,715.0145 730.5766,735.1783 735.7655,750.6061 C736.0898,751.5703 736.4079,752.5161 736.7193,753.4422 C736.7972,753.6737 734.962,748.217 735.039,748.446" fill="none" id="KERNEL-to-DRV" style="stroke:#181818;stroke-width:1;"/><polygon fill="#181818" points="736.9517,754.133,737.874,744.3274,735.3578,749.3939,730.2913,746.8777,736.9517,754.133" style="stroke:#181818;stroke-width:1;"/><text fill="#000000" font-family="sans-serif" font-size="13" lengthAdjust="spacing" textLength="52" x="716.32" y="690.3866">&#39537;&#21160;&#25509;&#21475;</text></g><!--link DRV to BSP--><g class="link" data-entity-1="ent0026" data-entity-2="ent0032" data-link-type="dependency" data-source-line="71" id="lnk50"><path d="M736.8391,788.9656 C736.5672,789.2477 736.2893,789.535 736.0054,789.8271 C735.4377,790.4114 734.8461,791.015 734.2317,791.636 C733.0028,792.8782 731.6824,794.1901 730.2776,795.5563 C727.468,798.2887 724.3209,801.2383 720.8938,804.2808 C707.185,816.4508 688.995,830.1083 670,837.3083 C647.08,845.9883 584.38,842.7883 560,845.3083 C476.59,853.9083 435.84,814.7883 373,870.3083 C369.8212,873.117 367.1191,876.3634 364.8246,879.9003 C363.6774,881.6688 362.6321,883.5098 361.6802,885.4051 C361.5612,885.6421 364.069,880.4847 363.9529,880.7233" fill="none" id="DRV-to-BSP" style="stroke:#181818;stroke-width:1;"/><polygon fill="#181818" points="361.3276,886.1184,368.8624,879.7759,363.5154,881.6224,361.6689,876.2754,361.3276,886.1184" style="stroke:#181818;stroke-width:1;"/><text fill="#000000" font-family="sans-serif" font-size="13" lengthAdjust="spacing" textLength="52" x="561" y="858.8766">&#26495;&#32423;&#36866;&#37197;</text></g><!--link BSP to BOOT--><g class="link" data-entity-1="ent0032" data-entity-2="ent0036" data-link-type="dependency" data-source-line="72" id="lnk51"><path d="M344.9496,952.1914 C344.8653,952.232 344.7805,952.273 344.6951,952.3143 C344.012,952.6446 343.2942,952.9963 342.5448,953.3689 C336.5497,956.3502 328.5269,960.6783 319.9638,966.2508 C302.8375,977.3958 283.55,993.5183 274,1013.7983 C269.265,1023.8458 267.345,1035.0795 267.1413,1046.3072 C267.0903,1049.1141 266.8319,1045.9289 266.9783,1048.7164" fill="none" id="BSP-to-BOOT" style="stroke:#181818;stroke-width:1;"/><polygon fill="#181818" points="267.2931,1054.7082,270.8154,1045.5107,267.0308,1049.715,262.8265,1045.9304,267.2931,1054.7082" style="stroke:#181818;stroke-width:1;"/><text fill="#000000" font-family="sans-serif" font-size="13" lengthAdjust="spacing" textLength="97.8174" x="275" y="1027.3666">&#21551;&#21160;&#21442;&#25968;/&#35774;&#22791;&#26641;</text></g><!--link BOOT to HW--><g class="link" data-entity-1="ent0036" data-entity-2="ent0040" data-link-type="dependency" data-source-line="73" id="lnk52"><path d="M290.1308,1124.0411 C290.2076,1124.1049 290.2849,1124.1691 290.3627,1124.2336 C290.6739,1124.4917 290.9929,1124.7554 291.3194,1125.0244 C296.5438,1129.328 303.71,1134.9902 312.16,1141.042 C329.06,1153.1458 351.095,1166.8083 373,1174.2783 C445.47,1198.9983 657.68,1157.6583 716,1207.2783 C719.2313,1210.0283 721.9731,1213.2303 724.2968,1216.7346 C725.4586,1218.4867 726.5159,1220.3144 727.4775,1222.1989 C727.5977,1222.4345 727.7164,1222.6709 727.8336,1222.9082 C727.8922,1223.0269 725.3275,1217.7494 725.3854,1217.8685" fill="none" id="BOOT-to-HW" style="stroke:#181818;stroke-width:1;"/><polygon fill="#181818" points="728.0084,1223.2648,727.6714,1213.4217,725.8225,1218.7679,720.4764,1216.919,728.0084,1223.2648" style="stroke:#181818;stroke-width:1;"/><text fill="#000000" font-family="sans-serif" font-size="13" lengthAdjust="spacing" textLength="52" x="700.2" y="1195.8466">&#19978;&#30005;&#21551;&#21160;</text></g><!--link APP to GMN53--><g class="link" data-entity-1="ent0002" data-entity-2="ent0054" data-link-type="association" data-source-line="76" id="lnk55"><path d="M1028.097,105.7283 C1028.1414,105.7283 1028.1858,105.7283 1028.2302,105.7283 C1028.5854,105.7283 1028.9406,105.7283 1029.2958,105.7283 C1032.1372,105.7283 1034.9781,105.7283 1037.8188,105.7283 C1043.5,105.7283 1049.18,105.7283 1054.86,105.7283" fill="none" id="APP-GMN53" style="stroke:#181818;stroke-width:1;stroke-dasharray:7,7;"/></g><?plantuml-src PLJHJXj757sVhnWbBqGLsYebAl939R2zWOAnQvlmKA5eOm_sAkiTTtSWZQfAX4A2A0HeI6Y11Ao4X4Z19ce2hatmptXcrq_zXTwTiHtYQgNrpBapUuxlFVSoara4yu-hVEcGdw_ZSTEU_HbxVzUz-ZvVFk6rBM_hYE_NnDuxyU9Kl5ZaknS8kNTDksWuHW6xUIDBxvbs3iyObaikHJAqKAGsiLcAtGSAXsIOOUSiWXWjOaRn7SeOBU2i6KHCQYFKFOAlj7dVB-2-eMBHCZD6SEJQ5MouU2YHm5UZW_g0hkDV4CO_ZiH6jMPrXw-KrBNf06IPsTiMpPcPxgveMkHsXjhCePP5d2vU8EpI3cGNv0OkvuYZPGrIeFOq-lKBVStgSMlxGxD-sgm-XknufNbUUuBxOcOsQv5xXaEKrDXe938UnLVrR_J1wA1I6_iXdSR33hrB7DnNeEvFioOaujfqDnQsJCWQJaN699RvFXMVK8hCEtFNSsw-W3KycWXBhBMqvdqgWmgnVSWRsrvz4KJrgeMSYEKpxsqDDAlIYhqrI1VkctI9unQDJ5llP2gQ1BMw_cr7hNlVPQIGrKpRP99mDalcvC8cp9pHN3SlTtvbHJmx1Xr-OyEhV-1dXtpfh5U7CXT_k2GEghAsOyInYQMunwB9YUWui8UZKVs6OlSRkzxHx_x9RxpsMjB0NNxyfrSkUHiF9N1BJybVxzEcLz_ZQ-j-kImEbYK6EH9xDRxyltpuvGl-wb7hxNk-eZmMSSmvI8GI4adU0XM3-jSTVuM79hHKF3mMJSDAVdboA9dMagc1mHjo6sNvu8ymRShirqq9tKoCnhKfWsNoMPgJI8fHnyWHZSHYuLv1udd3gxqHMnMn-e2lBk6-uLH2YO45YBaUFEsKIEtYO1DKfrFADcBxjFN7lkPjVHIr3OsVF_KNTvGn53CDO_xg6TnipIy0tiiE5tZblFNamZ-h03MbhCqTZwUXq_JWKUH1B1cFgQycnhN9_W2HMrLA_1MEf8VXdGGyA4sF4Kllm9uovIE6a_tSA2DJG1G97aKqb8nXa3tTJh_OEkNhc_mlrTeoyLz2K7w-_b8Rk2cEIlpvjiHqot3pdzCTZ8r-c5Ls_tUTlWp1B1dLnEcoU50HytMlra3jIEUWR8WGljmqu4Re9oGZdMDjxuOmj4l6i2pK1Zhnm58Xh0md7X-2L1H0dN1Gv11M9b0bGW7K3GTr266-KGdykhuWdfveNHiW6UqSXJo6SBEw0bPGnn6oAOFfQ-Ro3DEPO7WYcEMjqZ_URbaDpMQrhch_x_aEwXcIC6cwWnHhg3ikstWmB55hViTlFC9oTlblNlhphw4Dcv_s4B6pE617_m40?></g></svg>