<?plantuml 1.2026.1?><svg xmlns="http://www.w3.org/2000/svg" xmlns:xlink="http://www.w3.org/1999/xlink" contentStyleType="text/css" data-diagram-type="SEQUENCE" height="1349px" preserveAspectRatio="none" style="width:1137px;height:1349px;background:#FFFFFF;" version="1.1" viewBox="0 0 1137 1349" width="1137px" zoomAndPan="magnify"><title>&#20851;&#38190;&#19994;&#21153;&#26102;&#24207; - &#21551;&#21160;/&#20805;&#30005;/&#20572;&#26426;/&#35760;&#24405;&#30830;&#35748;</title><defs/><g><text fill="#000000" font-family="sans-serif" font-size="14" font-weight="bold" lengthAdjust="spacing" textLength="265.918" x="431.7412" y="28.5352">&#20851;&#38190;&#19994;&#21153;&#26102;&#24207; - &#21551;&#21160;/&#20805;&#30005;/&#20572;&#26426;/&#35760;&#24405;&#30830;&#35748;</text><rect fill="none" height="46.6211" style="stroke:#000000;stroke-width:1.5;" width="336.1431" x="10" y="484.3926"/><rect fill="none" height="75.9316" style="stroke:#000000;stroke-width:1.5;" width="440.9453" x="251.4536" y="545.0137"/><rect fill="none" height="134.5527" style="stroke:#000000;stroke-width:1.5;" width="824.313" x="251.4536" y="634.9453"/><g class="participant-lifeline" data-entity-uid="part1" data-qualified-name="UP" id="part1-lifeline"><g><title>HMI...</title><rect fill="#000000" fill-opacity="0.00000" height="1149.4902" width="8" x="49.8608" y="118.9766"/><line style="stroke:#181818;stroke-width:0.5;stroke-dasharray:5,5;" x1="53" x2="53" y1="118.9766" y2="1268.4668"/></g></g><g class="participant-lifeline" data-entity-uid="part2" data-qualified-name="LOGIC" id="part2-lifeline"><g><title>tcu_logic</title><rect fill="#000000" fill-opacity="0.00000" height="1149.4902" width="8" x="294.7983" y="118.9766"/><line style="stroke:#181818;stroke-width:0.5;stroke-dasharray:5,5;" x1="298.4536" x2="298.4536" y1="118.9766" y2="1268.4668"/></g></g><g class="participant-lifeline" data-entity-uid="part3" data-qualified-name="PILE" id="part3-lifeline"><g><title>tcu_pile_controller</title><rect fill="#000000" fill-opacity="0.00000" height="1149.4902" width="8" x="516.9453" y="118.9766"/><line style="stroke:#181818;stroke-width:0.5;stroke-dasharray:5,5;" x1="520.2222" x2="520.2222" y1="118.9766" y2="1268.4668"/></g></g><g class="participant-lifeline" data-entity-uid="part4" data-qualified-name="METER" id="part4-lifeline"><g><title>tcu_meter</title><rect fill="#000000" fill-opacity="0.00000" height="1149.4902" width="8" x="637.5337" y="118.9766"/><line style="stroke:#181818;stroke-width:0.5;stroke-dasharray:5,5;" x1="640.6685" x2="640.6685" y1="118.9766" y2="1268.4668"/></g></g><g class="participant-lifeline" data-entity-uid="part5" data-qualified-name="COMM" id="part5-lifeline"><g><title>tcu_comm</title><rect fill="#000000" fill-opacity="0.00000" height="1149.4902" width="8" x="795.5591" y="118.9766"/><line style="stroke:#181818;stroke-width:0.5;stroke-dasharray:5,5;" x1="799.5557" x2="799.5557" y1="118.9766" y2="1268.4668"/></g></g><g class="participant-lifeline" data-entity-uid="part6" data-qualified-name="PLAT" id="part6-lifeline"><g><title>....</title><rect fill="#000000" fill-opacity="0.00000" height="1149.4902" width="8" x="1026.7666" y="118.9766"/><line style="stroke:#181818;stroke-width:0.5;stroke-dasharray:5,5;" x1="1030.7666" x2="1030.7666" y1="118.9766" y2="1268.4668"/></g></g><g class="participant-lifeline" data-entity-uid="part7" data-qualified-name="LOGGER" id="part7-lifeline"><g><title>logger</title><rect fill="#000000" fill-opacity="0.00000" height="1149.4902" width="8" x="1096.5835" y="118.9766"/><line style="stroke:#181818;stroke-width:0.5;stroke-dasharray:5,5;" x1="1099.7666" x2="1099.7666" y1="118.9766" y2="1268.4668"/></g></g><g class="participant participant-head" data-entity-uid="part1" data-qualified-name="UP" id="part1-head"><text fill="#000000" font-family="sans-serif" font-size="14" lengthAdjust="spacing" textLength="61.7217" x="20" y="116.0234">HMI/&#24179;&#21488;</text><ellipse cx="53.8608" cy="50.9883" fill="#E2E2F0" rx="8" ry="8" style="stroke:#181818;stroke-width:0.5;"/><path d="M53.8608,58.9883 L53.8608,85.9883 M40.8608,66.9883 L66.8608,66.9883 M53.8608,85.9883 L40.8608,100.9883 M53.8608,85.9883 L66.8608,100.9883" fill="none" style="stroke:#181818;stroke-width:0.5;"/></g><g class="participant participant-tail" data-entity-uid="part1" data-qualified-name="UP" id="part1-tail"><text fill="#000000" font-family="sans-serif" font-size="14" lengthAdjust="spacing" textLength="61.7217" x="20" y="1281.002">HMI/&#24179;&#21488;</text><ellipse cx="53.8608" cy="1292.4551" fill="#E2E2F0" rx="8" ry="8" style="stroke:#181818;stroke-width:0.5;"/><path d="M53.8608,1300.4551 L53.8608,1327.4551 M40.8608,1308.4551 L66.8608,1308.4551 M53.8608,1327.4551 L40.8608,1342.4551 M53.8608,1327.4551 L66.8608,1342.4551" fill="none" style="stroke:#181818;stroke-width:0.5;"/></g><g class="participant participant-head" data-entity-uid="part2" data-qualified-name="LOGIC" id="part2-head"><rect fill="#E2E2F0" height="30.4883" rx="2.5" ry="2.5" style="stroke:#181818;stroke-width:0.5;" width="74.6895" x="261.4536" y="87.4883"/><text fill="#000000" font-family="sans-serif" font-size="14" lengthAdjust="spacing" textLength="60.6895" x="268.4536" y="108.0234">tcu_logic</text></g><g class="participant participant-tail" data-entity-uid="part2" data-qualified-name="LOGIC" id="part2-tail"><rect fill="#E2E2F0" height="30.4883" rx="2.5" ry="2.5" style="stroke:#181818;stroke-width:0.5;" width="74.6895" x="261.4536" y="1267.4668"/><text fill="#000000" font-family="sans-serif" font-size="14" lengthAdjust="spacing" textLength="60.6895" x="268.4536" y="1288.002">tcu_logic</text></g><g class="participant participant-head" data-entity-uid="part3" data-qualified-name="PILE" id="part3-head"><rect fill="#E2E2F0" height="30.4883" rx="2.5" ry="2.5" style="stroke:#181818;stroke-width:0.5;" width="139.4463" x="451.2222" y="87.4883"/><text fill="#000000" font-family="sans-serif" font-size="14" lengthAdjust="spacing" textLength="125.4463" x="458.2222" y="108.0234">tcu_pile_controller</text></g><g class="participant participant-tail" data-entity-uid="part3" data-qualified-name="PILE" id="part3-tail"><rect fill="#E2E2F0" height="30.4883" rx="2.5" ry="2.5" style="stroke:#181818;stroke-width:0.5;" width="139.4463" x="451.2222" y="1267.4668"/><text fill="#000000" font-family="sans-serif" font-size="14" lengthAdjust="spacing" textLength="125.4463" x="458.2222" y="1288.002">tcu_pile_controller</text></g><g class="participant participant-head" data-entity-uid="part4" data-qualified-name="METER" id="part4-head"><rect fill="#E2E2F0" height="30.4883" rx="2.5" ry="2.5" style="stroke:#181818;stroke-width:0.5;" width="81.7305" x="600.6685" y="87.4883"/><text fill="#000000" font-family="sans-serif" font-size="14" lengthAdjust="spacing" textLength="67.7305" x="607.6685" y="108.0234">tcu_meter</text></g><g class="participant participant-tail" data-entity-uid="part4" data-qualified-name="METER" id="part4-tail"><rect fill="#E2E2F0" height="30.4883" rx="2.5" ry="2.5" style="stroke:#181818;stroke-width:0.5;" width="81.7305" x="600.6685" y="1267.4668"/><text fill="#000000" font-family="sans-serif" font-size="14" lengthAdjust="spacing" textLength="67.7305" x="607.6685" y="1288.002">tcu_meter</text></g><g class="participant participant-head" data-entity-uid="part5" data-qualified-name="COMM" id="part5-head"><rect fill="#E2E2F0" height="30.4883" rx="2.5" ry="2.5" style="stroke:#181818;stroke-width:0.5;" width="84.0068" x="757.5557" y="87.4883"/><text fill="#000000" font-family="sans-serif" font-size="14" lengthAdjust="spacing" textLength="70.0068" x="764.5557" y="108.0234">tcu_comm</text></g><g class="participant participant-tail" data-entity-uid="part5" data-qualified-name="COMM" id="part5-tail"><rect fill="#E2E2F0" height="30.4883" rx="2.5" ry="2.5" style="stroke:#181818;stroke-width:0.5;" width="84.0068" x="757.5557" y="1267.4668"/><text fill="#000000" font-family="sans-serif" font-size="14" lengthAdjust="spacing" textLength="70.0068" x="764.5557" y="1288.002">tcu_comm</text></g><g class="participant participant-head" data-entity-uid="part6" data-qualified-name="PLAT" id="part6-head"><rect fill="#E2E2F0" height="30.4883" rx="2.5" ry="2.5" style="stroke:#181818;stroke-width:0.5;" width="70" x="995.7666" y="87.4883"/><text fill="#000000" font-family="sans-serif" font-size="14" lengthAdjust="spacing" textLength="56" x="1002.7666" y="108.0234">&#24179;&#21488;&#20027;&#31449;</text></g><g class="participant participant-tail" data-entity-uid="part6" data-qualified-name="PLAT" id="part6-tail"><rect fill="#E2E2F0" height="30.4883" rx="2.5" ry="2.5" style="stroke:#181818;stroke-width:0.5;" width="70" x="995.7666" y="1267.4668"/><text fill="#000000" font-family="sans-serif" font-size="14" lengthAdjust="spacing" textLength="56" x="1002.7666" y="1288.002">&#24179;&#21488;&#20027;&#31449;</text></g><g class="participant participant-head" data-entity-uid="part7" data-qualified-name="LOGGER" id="part7-head"><text fill="#000000" font-family="sans-serif" font-size="14" lengthAdjust="spacing" textLength="43.6338" x="1075.7666" y="116.0234">logger</text><path d="M1082.5835,66.4883 C1082.5835,56.4883 1100.5835,56.4883 1100.5835,56.4883 C1100.5835,56.4883 1118.5835,56.4883 1118.5835,66.4883 L1118.5835,92.4883 C1118.5835,102.4883 1100.5835,102.4883 1100.5835,102.4883 C1100.5835,102.4883 1082.5835,102.4883 1082.5835,92.4883 L1082.5835,66.4883" fill="#E2E2F0" style="stroke:#181818;stroke-width:0.5;"/><path d="M1082.5835,66.4883 C1082.5835,76.4883 1100.5835,76.4883 1100.5835,76.4883 C1100.5835,76.4883 1118.5835,76.4883 1118.5835,66.4883" fill="none" style="stroke:#181818;stroke-width:0.5;"/></g><g class="participant participant-tail" data-entity-uid="part7" data-qualified-name="LOGGER" id="part7-tail"><text fill="#000000" font-family="sans-serif" font-size="14" lengthAdjust="spacing" textLength="43.6338" x="1075.7666" y="1281.002">logger</text><path d="M1082.5835,1293.9551 C1082.5835,1283.9551 1100.5835,1283.9551 1100.5835,1283.9551 C1100.5835,1283.9551 1118.5835,1283.9551 1118.5835,1293.9551 L1118.5835,1319.9551 C1118.5835,1329.9551 1100.5835,1329.9551 1100.5835,1329.9551 C1100.5835,1329.9551 1082.5835,1329.9551 1082.5835,1319.9551 L1082.5835,1293.9551" fill="#E2E2F0" style="stroke:#181818;stroke-width:0.5;"/><path d="M1082.5835,1293.9551 C1082.5835,1303.9551 1100.5835,1303.9551 1100.5835,1303.9551 C1100.5835,1303.9551 1118.5835,1303.9551 1118.5835,1293.9551" fill="none" style="stroke:#181818;stroke-width:0.5;"/></g><rect fill="#EEEEEE" height="3" style="stroke:#EEEEEE;stroke-width:1;" width="1130.4004" x="0" y="149.6318"/><line style="stroke:#000000;stroke-width:1;" x1="0" x2="1130.4004" y1="149.6318" y2="149.6318"/><line style="stroke:#000000;stroke-width:1;" x1="0" x2="1130.4004" y1="152.6318" y2="152.6318"/><rect fill="#EEEEEE" height="23.3105" style="stroke:#000000;stroke-width:2;" width="70.2847" x="530.0579" y="138.9766"/><text fill="#000000" font-family="sans-serif" font-size="13" font-weight="bold" lengthAdjust="spacing" textLength="52" x="536.0579" y="155.5449">&#21551;&#21160;&#38454;&#27573;</text><g class="message" data-entity-1="part1" data-entity-2="part2" id="msg1"><polygon fill="#181818" points="286.7983,189.5977,296.7983,193.5977,286.7983,197.5977,290.7983,193.5977" style="stroke:#181818;stroke-width:1;"/><line style="stroke:#181818;stroke-width:1;" x1="53.8608" x2="292.7983" y1="193.5977" y2="193.5977"/><text fill="#000000" font-family="sans-serif" font-size="13" font-weight="bold" lengthAdjust="spacing" textLength="8.5757" x="60.8608" y="188.8555">1</text><text fill="#000000" font-family="sans-serif" font-size="13" lengthAdjust="spacing" textLength="150.8647" x="73.4365" y="188.8555">MQTT cmd:start_charge</text></g><g class="message" data-entity-1="part2" data-entity-2="part2" id="msg2"><line style="stroke:#181818;stroke-width:1;" x1="298.7983" x2="340.7983" y1="238.2188" y2="238.2188"/><line style="stroke:#181818;stroke-width:1;" x1="340.7983" x2="340.7983" y1="238.2188" y2="251.2188"/><line style="stroke:#181818;stroke-width:1;" x1="299.7983" x2="340.7983" y1="251.2188" y2="251.2188"/><polygon fill="#181818" points="309.7983,247.2188,299.7983,251.2188,309.7983,255.2188,305.7983,251.2188" style="stroke:#181818;stroke-width:1;"/><text fill="#000000" font-family="sans-serif" font-size="13" font-weight="bold" lengthAdjust="spacing" textLength="8.5757" x="305.7983" y="225.8213">2</text><text fill="#000000" font-family="sans-serif" font-size="13" lengthAdjust="spacing" textLength="114.3276" x="318.374" y="218.166">&#29366;&#24577;&#26657;&#39564;(PREPARE)</text><text fill="#000000" font-family="sans-serif" font-size="13" lengthAdjust="spacing" textLength="52" x="318.374" y="233.4766">&#37492;&#26435;&#36890;&#36807;</text></g><g class="message" data-entity-1="part2" data-entity-2="part3" id="msg3"><polygon fill="#181818" points="508.9453,291.8398,518.9453,295.8398,508.9453,299.8398,512.9453,295.8398" style="stroke:#181818;stroke-width:1;"/><line style="stroke:#181818;stroke-width:1;" x1="298.7983" x2="514.9453" y1="295.8398" y2="295.8398"/><text fill="#000000" font-family="sans-serif" font-size="13" font-weight="bold" lengthAdjust="spacing" textLength="8.5757" x="305.7983" y="283.4424">3</text><text fill="#000000" font-family="sans-serif" font-size="13" lengthAdjust="spacing" textLength="164.5059" x="318.374" y="275.7871">MQTT tcu/pile/{gun}/cmd</text><text fill="#000000" font-family="sans-serif" font-size="13" lengthAdjust="spacing" textLength="77.9238" x="318.374" y="291.0977">start_charge</text></g><g class="message" data-entity-1="part3" data-entity-2="part2" id="msg4"><polygon fill="#181818" points="309.7983,321.1504,299.7983,325.1504,309.7983,329.1504,305.7983,325.1504" style="stroke:#181818;stroke-width:1;"/><line style="stroke:#181818;stroke-width:1;stroke-dasharray:2,2;" x1="303.7983" x2="519.9453" y1="325.1504" y2="325.1504"/><text fill="#000000" font-family="sans-serif" font-size="13" font-weight="bold" lengthAdjust="spacing" textLength="8.5757" x="315.7983" y="320.4082">4</text><text fill="#000000" font-family="sans-serif" font-size="13" lengthAdjust="spacing" textLength="172.7515" x="328.374" y="320.4082">MQTT event:start_response</text></g><g class="message" data-entity-1="part3" data-entity-2="part2" id="msg5"><polygon fill="#181818" points="309.7983,350.4609,299.7983,354.4609,309.7983,358.4609,305.7983,354.4609" style="stroke:#181818;stroke-width:1;"/><line style="stroke:#181818;stroke-width:1;stroke-dasharray:2,2;" x1="303.7983" x2="519.9453" y1="354.4609" y2="354.4609"/><text fill="#000000" font-family="sans-serif" font-size="13" font-weight="bold" lengthAdjust="spacing" textLength="8.5757" x="315.7983" y="349.7188">5</text><text fill="#000000" font-family="sans-serif" font-size="13" lengthAdjust="spacing" textLength="173.5259" x="328.374" y="349.7188">MQTT event:start_complete</text></g><g class="message" data-entity-1="part2" data-entity-2="part2" id="msg6"><line style="stroke:#181818;stroke-width:1;" x1="298.7983" x2="340.7983" y1="383.7715" y2="383.7715"/><line style="stroke:#181818;stroke-width:1;" x1="340.7983" x2="340.7983" y1="383.7715" y2="396.7715"/><line style="stroke:#181818;stroke-width:1;" x1="299.7983" x2="340.7983" y1="396.7715" y2="396.7715"/><polygon fill="#181818" points="309.7983,392.7715,299.7983,396.7715,309.7983,400.7715,305.7983,396.7715" style="stroke:#181818;stroke-width:1;"/><text fill="#000000" font-family="sans-serif" font-size="13" font-weight="bold" lengthAdjust="spacing" textLength="8.5757" x="305.7983" y="379.0293">6</text><text fill="#000000" font-family="sans-serif" font-size="13" lengthAdjust="spacing" textLength="157.333" x="318.374" y="379.0293">STARTING -&gt; CHARGING</text></g><g class="message" data-entity-1="part2" data-entity-2="part1" id="msg7"><polygon fill="#181818" points="64.8608,422.082,54.8608,426.082,64.8608,430.082,60.8608,426.082" style="stroke:#181818;stroke-width:1;"/><line style="stroke:#181818;stroke-width:1;stroke-dasharray:2,2;" x1="58.8608" x2="297.7983" y1="426.082" y2="426.082"/><text fill="#000000" font-family="sans-serif" font-size="13" font-weight="bold" lengthAdjust="spacing" textLength="8.5757" x="70.8608" y="421.3398">7</text><text fill="#000000" font-family="sans-serif" font-size="13" lengthAdjust="spacing" textLength="199.7861" x="83.4365" y="421.3398">MQTT logic/event:state_change</text></g><rect fill="#EEEEEE" height="3" style="stroke:#EEEEEE;stroke-width:1;" width="1130.4004" x="0" y="454.7373"/><line style="stroke:#000000;stroke-width:1;" x1="0" x2="1130.4004" y1="454.7373" y2="454.7373"/><line style="stroke:#000000;stroke-width:1;" x1="0" x2="1130.4004" y1="457.7373" y2="457.7373"/><rect fill="#EEEEEE" height="23.3105" style="stroke:#000000;stroke-width:2;" width="70.2847" x="530.0579" y="444.082"/><text fill="#000000" font-family="sans-serif" font-size="13" font-weight="bold" lengthAdjust="spacing" textLength="52" x="536.0579" y="460.6504">&#20805;&#30005;&#38454;&#27573;</text><path d="M10,484.3926 L84.4468,484.3926 L84.4468,491.7031 L74.4468,501.7031 L10,501.7031 L10,484.3926" fill="#EEEEEE" style="stroke:#000000;stroke-width:1.5;"/><rect fill="none" height="46.6211" style="stroke:#000000;stroke-width:1.5;" width="336.1431" x="10" y="484.3926"/><text fill="#000000" font-family="sans-serif" font-size="13" font-weight="bold" lengthAdjust="spacing" textLength="29.4468" x="25" y="497.9609">loop</text><text fill="#000000" font-family="sans-serif" font-size="11" font-weight="bold" lengthAdjust="spacing" textLength="44.666" x="99.4468" y="497.0273">[&#27599;15&#31186;]</text><g class="message" data-entity-1="part2" data-entity-2="part1" id="msg8"><polygon fill="#181818" points="64.8608,519.0137,54.8608,523.0137,64.8608,527.0137,60.8608,523.0137" style="stroke:#181818;stroke-width:1;"/><line style="stroke:#181818;stroke-width:1;stroke-dasharray:2,2;" x1="58.8608" x2="297.7983" y1="523.0137" y2="523.0137"/><text fill="#000000" font-family="sans-serif" font-size="13" font-weight="bold" lengthAdjust="spacing" textLength="8.5757" x="70.8608" y="518.2715">8</text><text fill="#000000" font-family="sans-serif" font-size="13" lengthAdjust="spacing" textLength="127.1563" x="83.4365" y="518.2715">MQTT logic/feeData</text></g><path d="M251.4536,545.0137 L325.9004,545.0137 L325.9004,552.3242 L315.9004,562.3242 L251.4536,562.3242 L251.4536,545.0137" fill="#EEEEEE" style="stroke:#000000;stroke-width:1.5;"/><rect fill="none" height="75.9316" style="stroke:#000000;stroke-width:1.5;" width="440.9453" x="251.4536" y="545.0137"/><text fill="#000000" font-family="sans-serif" font-size="13" font-weight="bold" lengthAdjust="spacing" textLength="29.4468" x="266.4536" y="558.582">loop</text><text fill="#000000" font-family="sans-serif" font-size="11" font-weight="bold" lengthAdjust="spacing" textLength="52.1533" x="340.9004" y="557.6484">[&#21608;&#26399;&#36718;&#35810;]</text><g class="message" data-entity-1="part4" data-entity-2="part2" id="msg9"><polygon fill="#181818" points="309.7983,579.6348,299.7983,583.6348,309.7983,587.6348,305.7983,583.6348" style="stroke:#181818;stroke-width:1;"/><line style="stroke:#181818;stroke-width:1;stroke-dasharray:2,2;" x1="303.7983" x2="640.5337" y1="583.6348" y2="583.6348"/><text fill="#000000" font-family="sans-serif" font-size="13" font-weight="bold" lengthAdjust="spacing" textLength="8.5757" x="315.7983" y="578.8926">9</text><text fill="#000000" font-family="sans-serif" font-size="13" lengthAdjust="spacing" textLength="292.1763" x="328.374" y="578.8926">MQTT meter/data(totalEnergy,voltage,current)</text></g><g class="message" data-entity-1="part3" data-entity-2="part2" id="msg10"><polygon fill="#181818" points="309.7983,608.9453,299.7983,612.9453,309.7983,616.9453,305.7983,612.9453" style="stroke:#181818;stroke-width:1;"/><line style="stroke:#181818;stroke-width:1;stroke-dasharray:2,2;" x1="303.7983" x2="519.9453" y1="612.9453" y2="612.9453"/><text fill="#000000" font-family="sans-serif" font-size="13" font-weight="bold" lengthAdjust="spacing" textLength="17.1514" x="315.7983" y="608.2031">10</text><text fill="#000000" font-family="sans-serif" font-size="13" lengthAdjust="spacing" textLength="142.4985" x="336.9497" y="608.2031">MQTT pile/data(yx/yc)</text></g><path d="M251.4536,634.9453 L325.9004,634.9453 L325.9004,642.2559 L315.9004,652.2559 L251.4536,652.2559 L251.4536,634.9453" fill="#EEEEEE" style="stroke:#000000;stroke-width:1.5;"/><rect fill="none" height="134.5527" style="stroke:#000000;stroke-width:1.5;" width="824.313" x="251.4536" y="634.9453"/><text fill="#000000" font-family="sans-serif" font-size="13" font-weight="bold" lengthAdjust="spacing" textLength="29.4468" x="266.4536" y="648.5137">loop</text><text fill="#000000" font-family="sans-serif" font-size="11" font-weight="bold" lengthAdjust="spacing" textLength="74.1533" x="340.9004" y="647.5801">[&#24179;&#21488;&#19978;&#25253;&#21608;&#26399;]</text><g class="message" data-entity-1="part2" data-entity-2="part5" id="msg11"><polygon fill="#181818" points="787.5591,669.5664,797.5591,673.5664,787.5591,677.5664,791.5591,673.5664" style="stroke:#181818;stroke-width:1;"/><line style="stroke:#181818;stroke-width:1;" x1="298.7983" x2="793.5591" y1="673.5664" y2="673.5664"/><text fill="#000000" font-family="sans-serif" font-size="13" font-weight="bold" lengthAdjust="spacing" textLength="17.1514" x="305.7983" y="668.8242">11</text><text fill="#000000" font-family="sans-serif" font-size="13" lengthAdjust="spacing" textLength="179.8608" x="326.9497" y="668.8242">MQTT logic/event + feeData</text></g><g class="message" data-entity-1="part3" data-entity-2="part5" id="msg12"><polygon fill="#181818" points="787.5591,698.877,797.5591,702.877,787.5591,706.877,791.5591,702.877" style="stroke:#181818;stroke-width:1;"/><line style="stroke:#181818;stroke-width:1;" x1="520.9453" x2="793.5591" y1="702.877" y2="702.877"/><text fill="#000000" font-family="sans-serif" font-size="13" font-weight="bold" lengthAdjust="spacing" textLength="17.1514" x="527.9453" y="698.1348">12</text><text fill="#000000" font-family="sans-serif" font-size="13" lengthAdjust="spacing" textLength="181.4731" x="549.0967" y="698.1348">MQTT pile/data + pile/event</text></g><g class="message" data-entity-1="part4" data-entity-2="part5" id="msg13"><polygon fill="#181818" points="787.5591,728.1875,797.5591,732.1875,787.5591,736.1875,791.5591,732.1875" style="stroke:#181818;stroke-width:1;"/><line style="stroke:#181818;stroke-width:1;" x1="641.5337" x2="793.5591" y1="732.1875" y2="732.1875"/><text fill="#000000" font-family="sans-serif" font-size="13" font-weight="bold" lengthAdjust="spacing" textLength="17.1514" x="648.5337" y="727.4453">13</text><text fill="#000000" font-family="sans-serif" font-size="13" lengthAdjust="spacing" textLength="112.874" x="669.6851" y="727.4453">MQTT meter/data</text></g><g class="message" data-entity-1="part5" data-entity-2="part6" id="msg14"><polygon fill="#181818" points="1018.7666,757.498,1028.7666,761.498,1018.7666,765.498,1022.7666,761.498" style="stroke:#181818;stroke-width:1;"/><line style="stroke:#181818;stroke-width:1;" x1="799.5591" x2="1024.7666" y1="761.498" y2="761.498"/><text fill="#000000" font-family="sans-serif" font-size="13" font-weight="bold" lengthAdjust="spacing" textLength="17.1514" x="806.5591" y="756.7559">14</text><text fill="#000000" font-family="sans-serif" font-size="13" lengthAdjust="spacing" textLength="119.0884" x="827.7104" y="756.7559">&#24179;&#21488;&#23454;&#26102;&#24103;(&#22914;0x13)</text></g><rect fill="#EEEEEE" height="3" style="stroke:#EEEEEE;stroke-width:1;" width="1130.4004" x="0" y="797.1533"/><line style="stroke:#000000;stroke-width:1;" x1="0" x2="1130.4004" y1="797.1533" y2="797.1533"/><line style="stroke:#000000;stroke-width:1;" x1="0" x2="1130.4004" y1="800.1533" y2="800.1533"/><rect fill="#EEEEEE" height="23.3105" style="stroke:#000000;stroke-width:2;" width="70.2847" x="530.0579" y="786.498"/><text fill="#000000" font-family="sans-serif" font-size="13" font-weight="bold" lengthAdjust="spacing" textLength="52" x="536.0579" y="803.0664">&#20572;&#26426;&#38454;&#27573;</text><g class="message" data-entity-1="part1" data-entity-2="part2" id="msg15"><polygon fill="#181818" points="286.7983,852.4297,296.7983,856.4297,286.7983,860.4297,290.7983,856.4297" style="stroke:#181818;stroke-width:1;"/><line style="stroke:#181818;stroke-width:1;" x1="53.8608" x2="292.7983" y1="856.4297" y2="856.4297"/><text fill="#000000" font-family="sans-serif" font-size="13" font-weight="bold" lengthAdjust="spacing" textLength="17.1514" x="60.8608" y="844.0322">15</text><text fill="#000000" font-family="sans-serif" font-size="13" lengthAdjust="spacing" textLength="149.6714" x="82.0122" y="836.377">MQTT cmd:stop_charge</text><text fill="#000000" font-family="sans-serif" font-size="13" lengthAdjust="spacing" textLength="73.4551" x="82.0122" y="851.6875">(&#25110;&#25925;&#38556;&#35302;&#21457;)</text></g><g class="message" data-entity-1="part2" data-entity-2="part3" id="msg16"><polygon fill="#181818" points="508.9453,881.7402,518.9453,885.7402,508.9453,889.7402,512.9453,885.7402" style="stroke:#181818;stroke-width:1;"/><line style="stroke:#181818;stroke-width:1;" x1="298.7983" x2="514.9453" y1="885.7402" y2="885.7402"/><text fill="#000000" font-family="sans-serif" font-size="13" font-weight="bold" lengthAdjust="spacing" textLength="17.1514" x="305.7983" y="880.998">16</text><text fill="#000000" font-family="sans-serif" font-size="13" lengthAdjust="spacing" textLength="149.6714" x="326.9497" y="880.998">MQTT cmd:stop_charge</text></g><g class="message" data-entity-1="part3" data-entity-2="part2" id="msg17"><polygon fill="#181818" points="309.7983,911.0508,299.7983,915.0508,309.7983,919.0508,305.7983,915.0508" style="stroke:#181818;stroke-width:1;"/><line style="stroke:#181818;stroke-width:1;stroke-dasharray:2,2;" x1="303.7983" x2="519.9453" y1="915.0508" y2="915.0508"/><text fill="#000000" font-family="sans-serif" font-size="13" font-weight="bold" lengthAdjust="spacing" textLength="17.1514" x="315.7983" y="910.3086">17</text><text fill="#000000" font-family="sans-serif" font-size="13" lengthAdjust="spacing" textLength="171.5581" x="336.9497" y="910.3086">MQTT event:stop_response</text></g><g class="message" data-entity-1="part3" data-entity-2="part2" id="msg18"><polygon fill="#181818" points="309.7983,940.3613,299.7983,944.3613,309.7983,948.3613,305.7983,944.3613" style="stroke:#181818;stroke-width:1;"/><line style="stroke:#181818;stroke-width:1;stroke-dasharray:2,2;" x1="303.7983" x2="519.9453" y1="944.3613" y2="944.3613"/><text fill="#000000" font-family="sans-serif" font-size="13" font-weight="bold" lengthAdjust="spacing" textLength="17.1514" x="315.7983" y="939.6191">18</text><text fill="#000000" font-family="sans-serif" font-size="13" lengthAdjust="spacing" textLength="172.3325" x="336.9497" y="939.6191">MQTT event:stop_complete</text></g><g class="message" data-entity-1="part2" data-entity-2="part2" id="msg19"><line style="stroke:#181818;stroke-width:1;" x1="298.7983" x2="340.7983" y1="988.9824" y2="988.9824"/><line style="stroke:#181818;stroke-width:1;" x1="340.7983" x2="340.7983" y1="988.9824" y2="1001.9824"/><line style="stroke:#181818;stroke-width:1;" x1="299.7983" x2="340.7983" y1="1001.9824" y2="1001.9824"/><polygon fill="#181818" points="309.7983,997.9824,299.7983,1001.9824,309.7983,1005.9824,305.7983,1001.9824" style="stroke:#181818;stroke-width:1;"/><text fill="#000000" font-family="sans-serif" font-size="13" font-weight="bold" lengthAdjust="spacing" textLength="17.1514" x="305.7983" y="976.585">19</text><text fill="#000000" font-family="sans-serif" font-size="13" lengthAdjust="spacing" textLength="186.9956" x="326.9497" y="968.9297">STOPPING&#25910;&#25947;(15s/3&#27425;&#26080;&#21464;&#21270;)</text><text fill="#000000" font-family="sans-serif" font-size="13" lengthAdjust="spacing" textLength="78.4443" x="326.9497" y="984.2402">-&gt; STOPPED</text></g><g class="message" data-entity-1="part2" data-entity-2="part1" id="msg20"><polygon fill="#181818" points="64.8608,1027.293,54.8608,1031.293,64.8608,1035.293,60.8608,1031.293" style="stroke:#181818;stroke-width:1;"/><line style="stroke:#181818;stroke-width:1;stroke-dasharray:2,2;" x1="58.8608" x2="297.7983" y1="1031.293" y2="1031.293"/><text fill="#000000" font-family="sans-serif" font-size="13" font-weight="bold" lengthAdjust="spacing" textLength="17.1514" x="70.8608" y="1026.5508">20</text><text fill="#000000" font-family="sans-serif" font-size="13" lengthAdjust="spacing" textLength="199.7861" x="92.0122" y="1026.5508">MQTT logic/event:state_change</text></g><rect fill="#EEEEEE" height="3" style="stroke:#EEEEEE;stroke-width:1;" width="1130.4004" x="0" y="1059.9482"/><line style="stroke:#000000;stroke-width:1;" x1="0" x2="1130.4004" y1="1059.9482" y2="1059.9482"/><line style="stroke:#000000;stroke-width:1;" x1="0" x2="1130.4004" y1="1062.9482" y2="1062.9482"/><rect fill="#EEEEEE" height="23.3105" style="stroke:#000000;stroke-width:2;" width="70.2847" x="530.0579" y="1049.293"/><text fill="#000000" font-family="sans-serif" font-size="13" font-weight="bold" lengthAdjust="spacing" textLength="52" x="536.0579" y="1065.8613">&#20132;&#26131;&#35760;&#24405;</text><g class="message" data-entity-1="part2" data-entity-2="part5" id="msg21"><polygon fill="#181818" points="787.5591,1099.9141,797.5591,1103.9141,787.5591,1107.9141,791.5591,1103.9141" style="stroke:#181818;stroke-width:1;"/><line style="stroke:#181818;stroke-width:1;stroke-dasharray:2,2;" x1="298.7983" x2="793.5591" y1="1103.9141" y2="1103.9141"/><text fill="#000000" font-family="sans-serif" font-size="13" font-weight="bold" lengthAdjust="spacing" textLength="17.1514" x="305.7983" y="1099.1719">21</text><text fill="#000000" font-family="sans-serif" font-size="13" lengthAdjust="spacing" textLength="208.1143" x="326.9497" y="1099.1719">MQTT logic/event:update_record</text></g><g class="message" data-entity-1="part2" data-entity-2="part7" id="msg22"><polygon fill="#181818" points="1088.5835,1129.2246,1098.5835,1133.2246,1088.5835,1137.2246,1092.5835,1133.2246" style="stroke:#181818;stroke-width:1;"/><line style="stroke:#181818;stroke-width:1;" x1="298.7983" x2="1094.5835" y1="1133.2246" y2="1133.2246"/><text fill="#000000" font-family="sans-serif" font-size="13" font-weight="bold" lengthAdjust="spacing" textLength="17.1514" x="305.7983" y="1128.4824">22</text><text fill="#000000" font-family="sans-serif" font-size="13" lengthAdjust="spacing" textLength="120.396" x="326.9497" y="1128.4824">logTradeRecord(...)</text></g><g class="message" data-entity-1="part5" data-entity-2="part6" id="msg23"><polygon fill="#181818" points="1018.7666,1158.5352,1028.7666,1162.5352,1018.7666,1166.5352,1022.7666,1162.5352" style="stroke:#181818;stroke-width:1;"/><line style="stroke:#181818;stroke-width:1;" x1="799.5591" x2="1024.7666" y1="1162.5352" y2="1162.5352"/><text fill="#000000" font-family="sans-serif" font-size="13" font-weight="bold" lengthAdjust="spacing" textLength="17.1514" x="806.5591" y="1157.793">23</text><text fill="#000000" font-family="sans-serif" font-size="13" lengthAdjust="spacing" textLength="186.0562" x="827.7104" y="1157.793">&#19978;&#20256;&#20132;&#26131;&#35760;&#24405;&#24103;(&#22914;0x60/0x3D)</text></g><g class="message" data-entity-1="part6" data-entity-2="part5" id="msg24"><polygon fill="#181818" points="810.5591,1187.8457,800.5591,1191.8457,810.5591,1195.8457,806.5591,1191.8457" style="stroke:#181818;stroke-width:1;"/><line style="stroke:#181818;stroke-width:1;stroke-dasharray:2,2;" x1="804.5591" x2="1029.7666" y1="1191.8457" y2="1191.8457"/><text fill="#000000" font-family="sans-serif" font-size="13" font-weight="bold" lengthAdjust="spacing" textLength="17.1514" x="816.5591" y="1187.1035">24</text><text fill="#000000" font-family="sans-serif" font-size="13" lengthAdjust="spacing" textLength="106.0884" x="837.7104" y="1187.1035">&#35760;&#24405;&#30830;&#35748;(&#22914;0x70)</text></g><g class="message" data-entity-1="part5" data-entity-2="part7" id="msg25"><polygon fill="#181818" points="1088.5835,1217.1563,1098.5835,1221.1563,1088.5835,1225.1563,1092.5835,1221.1563" style="stroke:#181818;stroke-width:1;"/><line style="stroke:#181818;stroke-width:1;" x1="799.5591" x2="1094.5835" y1="1221.1563" y2="1221.1563"/><text fill="#000000" font-family="sans-serif" font-size="13" font-weight="bold" lengthAdjust="spacing" textLength="17.1514" x="806.5591" y="1216.4141">25</text><text fill="#000000" font-family="sans-serif" font-size="13" lengthAdjust="spacing" textLength="187.2876" x="827.7104" y="1216.4141">confirmTradeRecord(tradeNo)</text></g><g class="message" data-entity-1="part5" data-entity-2="part2" id="msg26"><polygon fill="#181818" points="309.7983,1246.4668,299.7983,1250.4668,309.7983,1254.4668,305.7983,1250.4668" style="stroke:#181818;stroke-width:1;"/><line style="stroke:#181818;stroke-width:1;stroke-dasharray:2,2;" x1="303.7983" x2="798.5591" y1="1250.4668" y2="1250.4668"/><text fill="#000000" font-family="sans-serif" font-size="13" font-weight="bold" lengthAdjust="spacing" textLength="17.1514" x="315.7983" y="1245.7246">26</text><text fill="#000000" font-family="sans-serif" font-size="13" lengthAdjust="spacing" textLength="213.0908" x="336.9497" y="1245.7246">MQTT plat/cmd:record_cfm (&#21487;&#36873;)</text></g><?plantuml-src bLHTJnD157sVNp7fKnk5BI5eGgn90qrfGg7MyaRI3DjfsRXVsPqYn9Y0fb4Qaee28bO5Wq3Kj2H8WoZnptIsxRzmTdRRRYaglcrspZttt7FF3968Z24jdBGsAlMp7LhSirxNw7a93a3weagBHm8j51eRfm9TALlbSw5PEQONcuszIhEo3u3vG59rP205clCeepsKr1pC8jd40EM9fkQLEMm0W4IY6T0t4Oy9zFi9BHtx83BXJ0AmKYA9aevK0dr4pATbBIU9_7HoEXeRwmVeaepJegOIGvDbR71e8ZOPwKSgcBZdyKWgakm7Y9gYyFEnwNYyzzXHMJ_xqVZoncan6Kw1329e3faO-fZCd4lET4OPEmY5NBzQspMhSWf38J2JW0DtdK7WA8pVIwMWg6H6JS9QfSLvPEGmS4uzi4QnPYslMBjxhSzh_aGoaWWd8u5PjRNwpNhtjBMyq_prh5jaJzwcPYC9jZl2ernUVIomJhDgJoiE7hYi22zWbRYQ36pgccfU1yhCqsNcSFy0zrFXP2es5RN_ZKs4ar7stKQnNymKbuxlMkYG4cmBLPbGxYKFNTTBMTDqQ5LBGoEDmvS0mZyJPZ4UPui2MCq0fuok7rdb3ysBIhFwaPNoEFHFn_CYs3ls4uqWEQ9Y8xTqSq6J2ShXcsBUC9ZI02EusXtkFIzVMXIMn81NW1kdebNyv8XXB7Rgu9s1NXAF9_06R8_I1NiNtcd8aFoRbtd0pg1zuxKHTdvOh1d0qKShx-shVtRefmTFWej3m-u8zZRutRz6iZNTJTkiwhUURrcRXTPEkNbuG4lhWQjZUwdk7z5Zk6k6r6RyIqQd4mcMIskZPcs-zG-DcCAmzPMzVBkqj4tNjjY5OsYEYep_VtZhv_lMzYldfRJjwX9muw-WoEiPcyF0ecPaUlH6-GePDcMW34voW7zmS300BYsHnQl-SzVRkhFAMq4Xk3Wy7W0Swj7XVSmTwErWbxZJdRstMSbGl0g8_JsbjS5zbq56n7w2Hfs9qc9MWNvQghQMLmFWDm00?></g></svg>