<?plantuml 1.2026.1?><svg xmlns="http://www.w3.org/2000/svg" xmlns:xlink="http://www.w3.org/1999/xlink" contentStyleType="text/css" data-diagram-type="DESCRIPTION" height="951px" preserveAspectRatio="none" style="width:1664px;height:951px;background:#FFFFFF;" version="1.1" viewBox="0 0 1664 951" width="1664px" zoomAndPan="magnify"><title>&#20805;&#30005;&#35745;&#36153;&#21333;&#20803; - &#20027;&#35201;&#36827;&#31243;&#26694;&#26550;</title><defs/><g><g class="title" data-source-line="1"><text fill="#000000" font-family="sans-serif" font-size="14" font-weight="bold" lengthAdjust="spacing" textLength="186.1699" x="732.1517" y="23.5352">&#20805;&#30005;&#35745;&#36153;&#21333;&#20803; - &#20027;&#35201;&#36827;&#31243;&#26694;&#26550;</text></g><!--entity MQ--><g class="entity" data-qualified-name="MQ" data-source-line="11" id="ent0002"><rect fill="#FFF2CC" height="69.4648" rx="2.5" ry="2.5" style="stroke:#4A4A4A;stroke-width:0.5;" width="118.6699" x="762.67" y="548.8583"/><text fill="#222222" font-family="sans-serif" font-size="14" lengthAdjust="spacing" textLength="89.1611" x="772.67" y="572.3934">MQTT Broker</text><text fill="#222222" font-family="sans-serif" font-size="14" lengthAdjust="spacing" textLength="78.5313" x="772.67" y="588.8817">(mosquitto)</text><text fill="#222222" font-family="sans-serif" font-size="14" lengthAdjust="spacing" textLength="98.6699" x="772.67" y="605.37">&#171;&#26680;&#24515;&#36335;&#30001;&#24635;&#32447;&#187;</text></g><!--entity LOGIC--><g class="entity" data-qualified-name="LOGIC" data-source-line="13" id="ent0003"><rect fill="#F1F1F1" height="52.9766" rx="2.5" ry="2.5" style="stroke:#181818;stroke-width:0.5;" width="126.4355" x="1133.75" y="414.0983"/><text fill="#000000" font-family="sans-serif" font-size="14" lengthAdjust="spacing" textLength="60.6895" x="1143.75" y="437.6334">tcu_logic</text><text fill="#000000" font-family="sans-serif" font-size="14" lengthAdjust="spacing" textLength="106.4355" x="1143.75" y="454.1217">(core/tcu_logic)</text></g><!--entity PILE--><g class="entity" data-qualified-name="PILE" data-source-line="14" id="ent0004"><rect fill="#F1F1F1" height="52.9766" rx="2.5" ry="2.5" style="stroke:#181818;stroke-width:0.5;" width="163.0967" x="1115.42" y="680.0983"/><text fill="#000000" font-family="sans-serif" font-size="14" lengthAdjust="spacing" textLength="125.4463" x="1125.42" y="703.6334">tcu_pile_controller</text><text fill="#000000" font-family="sans-serif" font-size="14" lengthAdjust="spacing" textLength="143.0967" x="1125.42" y="720.1217">(core/pile_controller)</text></g><!--entity METER--><g class="entity" data-qualified-name="METER" data-source-line="15" id="ent0005"><rect fill="#F1F1F1" height="52.9766" rx="2.5" ry="2.5" style="stroke:#181818;stroke-width:0.5;" width="105.3809" x="336.32" y="607.0983"/><text fill="#000000" font-family="sans-serif" font-size="14" lengthAdjust="spacing" textLength="67.7305" x="346.32" y="630.6334">tcu_meter</text><text fill="#000000" font-family="sans-serif" font-size="14" lengthAdjust="spacing" textLength="85.3809" x="346.32" y="647.1217">(core/meter)</text></g><!--entity COMM--><g class="entity" data-qualified-name="COMM" data-source-line="16" id="ent0006"><rect fill="#F1F1F1" height="52.9766" rx="2.5" ry="2.5" style="stroke:#181818;stroke-width:0.5;" width="194.5557" x="291.74" y="193.0983"/><text fill="#000000" font-family="sans-serif" font-size="14" lengthAdjust="spacing" textLength="70.0068" x="301.74" y="216.6334">tcu_comm</text><text fill="#000000" font-family="sans-serif" font-size="14" lengthAdjust="spacing" textLength="174.5557" x="301.74" y="233.1217">(core/comm/&lt;Platform&gt;)</text></g><!--entity LOGGER--><g class="entity" data-qualified-name="LOGGER" data-source-line="17" id="ent0007"><rect fill="#F1F1F1" height="52.9766" rx="2.5" ry="2.5" style="stroke:#181818;stroke-width:0.5;" width="109.3799" x="1504.31" y="150.0983"/><text fill="#000000" font-family="sans-serif" font-size="14" lengthAdjust="spacing" textLength="43.6338" x="1514.31" y="173.6334">logger</text><text fill="#000000" font-family="sans-serif" font-size="14" lengthAdjust="spacing" textLength="89.3799" x="1514.31" y="190.1217">(core/logger)</text></g><!--entity DAEMON--><g class="entity" data-qualified-name="DAEMON" data-source-line="18" id="ent0008"><rect fill="#F1F1F1" height="52.9766" rx="2.5" ry="2.5" style="stroke:#181818;stroke-width:0.5;" width="120.4473" x="7" y="442.0983"/><text fill="#000000" font-family="sans-serif" font-size="14" lengthAdjust="spacing" textLength="54.7012" x="17" y="465.6334">daemon</text><text fill="#000000" font-family="sans-serif" font-size="14" lengthAdjust="spacing" textLength="100.4473" x="17" y="482.1217">(core/daemon)</text></g><!--entity CCU--><g class="entity" data-qualified-name="CCU" data-source-line="20" id="ent0009"><path d="M1515.5099,782.6179 C1517.8468,777.168 1521.4244,777.2503 1525.1475,781.1961 C1528.5369,776.3857 1533.7116,775.827 1536.3448,781.9692 C1539.6544,776.2521 1545.3343,774.852 1549.6981,780.758 C1552.6631,776.7068 1557.37,777.1619 1559.7175,781.496 C1563.0759,775.9326 1567.8834,775.682 1571.8901,780.754 C1574.6976,775.3655 1578.8463,775.2122 1582.0594,780.3626 C1586.4344,774.4079 1591.3138,775.0377 1594.4284,781.6074 C1597.6408,777.3898 1602.4385,777.9882 1604.3645,782.9932 C1611.7824,782.4478 1613.8665,788.4104 1610.5304,793.9286 C1617.0462,795.3308 1618.8991,800.213 1615.1501,805.658 C1619.2881,811.1791 1618.0391,816.6587 1610.8417,818.3239 C1615.2052,823.7419 1612.9469,828.98 1606.142,829.8402 C1602.3962,836.0716 1597.5229,835.5665 1593.2504,830.438 C1591.8711,835.9188 1587.9395,838.2407 1583.0745,834.14 C1580.7714,840.8572 1575.2535,841.0369 1571.2854,835.7792 C1569.5315,842.3399 1564.8514,844.5076 1559.6779,839.0942 C1554.9823,844.4348 1549.3172,842.9956 1547.9918,835.9217 C1543.6243,840.5675 1538.6116,839.0363 1537.4544,832.8101 C1532.9613,837.8392 1529.3337,837.1925 1526.7527,830.9884 C1522.5993,835.6796 1517.2097,835.3162 1514.428,829.3954 C1508.9976,826.095 1507.4338,820.9297 1513.52,816.7992 C1507.5249,815.3792 1505.0751,810.9672 1509.4382,805.7282 C1503.4232,801.3093 1505.9421,795.4633 1511.791,793.2882 C1507.7139,787.7313 1509.7781,784.756 1515.5099,782.6179" fill="#F1F1F1" style="stroke:#181818;stroke-width:0.5;"/><text fill="#000000" font-family="sans-serif" font-size="14" lengthAdjust="spacing" textLength="70" x="1520.64" y="801.6334">&#20805;&#30005;&#26729;&#20027;&#25511;</text><text fill="#000000" font-family="sans-serif" font-size="14" lengthAdjust="spacing" textLength="76.7197" x="1520.64" y="818.1217">(CAN2CCU)</text></g><!--entity NET_PILE--><g class="entity" data-qualified-name="NET_PILE" data-source-line="21" id="ent0010"><path d="M1517.01,881.2714 C1520.7058,873.783 1526.0549,872.5899 1531.3356,879.7181 C1535.929,874.1423 1541.321,873.1345 1545.5076,880.1752 C1549.3714,873.2499 1554.8663,871.9437 1559.8224,879.0617 C1564.2535,872.9789 1569.9239,872.1319 1573.9122,879.5247 C1579.3149,872.5741 1583.9027,874.223 1588.3518,880.5609 C1592.7792,873.4059 1597.4371,874.3234 1602.0449,880.3739 C1608.7693,882.7731 1610.4752,886.7793 1605.1982,892.3408 C1610.1575,894.8214 1611.5995,899.7862 1606.034,903.0856 C1611.3494,907.8069 1609.9022,911.6707 1604.5063,915.021 C1610.3418,919.2401 1609.0322,924.7892 1602.6113,927.0825 C1599.1046,934.0849 1595.2513,935.9774 1589.1355,929.7377 C1586.4792,938.2346 1579.4824,939.3749 1573.8904,932.6847 C1571.8833,939.5991 1566.3444,941.9984 1560.9446,936.1171 C1554.8123,944.0128 1548.3346,942.7683 1544.9095,933.5766 C1539.5329,939.4574 1533.0674,936.4205 1531.3317,929.6646 C1526.0468,933.7501 1520.9877,934.344 1518.732,926.4726 C1513.1701,925.0021 1511.1828,921.7338 1514.1348,916.3838 C1505.7236,915.6933 1503.6736,909.1057 1508.4702,902.8763 C1505.2579,897.1938 1506.0195,893.5402 1513.1799,892.6217 C1508.3799,886.7988 1509.7559,883.0267 1517.01,881.2714" fill="#F1F1F1" style="stroke:#181818;stroke-width:0.5;"/><text fill="#000000" font-family="sans-serif" font-size="14" lengthAdjust="spacing" textLength="70" x="1523.67" y="899.6334">&#32593;&#32476;&#26729;&#35774;&#22791;</text><text fill="#000000" font-family="sans-serif" font-size="14" lengthAdjust="spacing" textLength="70.6494" x="1523.67" y="916.1217">(UDP/TCP)</text></g><!--entity SERIAL_PILE--><g class="entity" data-qualified-name="SERIAL_PILE" data-source-line="22" id="ent0011"><path d="M1496.7749,450.2912 C1500.6254,444.3615 1505.152,443.3137 1510.163,448.9476 C1514.4439,444.0773 1518.2081,443.6249 1521.5676,449.8913 C1525.8218,442.9855 1530.6293,442.8505 1535.0346,449.7438 C1538.7117,444.2779 1542.5146,443.5234 1546.9133,448.9572 C1550.5709,441.3307 1555.9881,442.3855 1560.7471,447.7878 C1565.258,443.2861 1570.2044,443.7853 1573.0376,449.7567 C1576.5426,443.5566 1581.3172,442.2837 1585.9679,448.5702 C1590.0843,443.5836 1596.1537,443.7728 1598.6843,450.3187 C1601.5784,444.0923 1607.2989,442.5375 1611.4864,449.0153 C1615.8527,442.5088 1621.0642,443.897 1624.4065,450.0596 C1630.2478,453.702 1630.7158,458.1339 1624.4006,461.7701 C1629.4074,463.9323 1631.1347,469.0451 1625.9624,472.6663 C1632.2847,477.8111 1630.3912,483.0364 1623.6524,485.9017 C1629.334,488.785 1630.0697,492.452 1624.8244,496.5392 C1621.0227,503.6492 1615.2627,503.2723 1611.1351,496.8693 C1608.711,502.9535 1603.3407,503.0834 1599.4162,498.5208 C1596.2225,505.3629 1590.4448,505.8466 1585.8917,499.9659 C1581.3768,505.4041 1576.8243,505.6255 1572.4176,499.836 C1569.4292,505.3598 1564.5439,506.2765 1560.4062,501.1299 C1555.5381,506.2194 1550.939,506.7762 1547.779,499.3996 C1543.3153,505.0514 1539.2343,505.5615 1534.8192,499.3465 C1530.4942,505.1886 1523.749,505.791 1520.7713,497.962 C1516.9412,501.8774 1512.9982,501.9642 1510.1666,496.7963 C1507.1935,504.547 1500.8822,503.3752 1496.6283,498.1306 C1490.1363,495.652 1489.7816,491.2015 1494.1204,486.4061 C1486.8544,484.2826 1485.1677,479.4957 1490.123,473.5671 C1486.3336,468.5075 1486.3308,464.4916 1493.1085,462.2097 C1488.4727,457.1124 1490.7178,452.0991 1496.7749,450.2912" fill="#F1F1F1" style="stroke:#181818;stroke-width:0.5;"/><text fill="#000000" font-family="sans-serif" font-size="14" lengthAdjust="spacing" textLength="70" x="1502.24" y="469.6334">&#20018;&#21475;&#26729;&#35774;&#22791;</text><text fill="#000000" font-family="sans-serif" font-size="14" lengthAdjust="spacing" textLength="113.5039" x="1502.24" y="486.1217">(RS485/Modbus)</text></g><!--entity PILE_MQTT--><g class="entity" data-qualified-name="PILE_MQTT" data-source-line="23" id="ent0012"><path d="M1504.2099,547.311 C1508.6438,541.2471 1512.8113,541.2944 1516.3318,548.1669 C1518.6966,542.2951 1523.4923,542.5143 1526.8404,547.187 C1529.8131,542.5056 1534.5583,542.5268 1536.9311,547.7953 C1539.4714,542.0973 1544.7347,540.7597 1548.4701,546.6 C1551.3687,542.1182 1555.9885,541.7099 1559.1694,546.2657 C1563.4284,540.7255 1568.0787,540.9587 1571.9062,546.7506 C1575.4572,542.4495 1579.7229,542.3532 1582.8026,547.3056 C1586.4285,542.1223 1589.894,542.0288 1593.5757,547.2479 C1597.1371,542.161 1601.0488,542.7997 1603.5424,548.2571 C1606.5832,542.274 1612.2138,542.9295 1615.7221,547.729 C1622.6476,549.7335 1623.6581,556.0131 1619.1447,560.9735 C1625.2163,561.5914 1628.495,566.5229 1625.0294,572.1585 C1628.7169,577.4158 1627.4212,583.1251 1620.0401,583.5228 C1624.5045,588.3038 1623.6234,594.4519 1616.2577,595.4958 C1613.4965,601.8403 1609.8846,602.4927 1604.9855,597.6499 C1601.0066,604.2217 1596.4297,603.3169 1592.2499,597.8628 C1590.8353,603.0801 1585.58,605.3549 1581.328,601.153 C1579.1771,606.7747 1574.9389,606.6598 1571.5611,602.361 C1569.1161,609.3048 1564.8897,610.9675 1559.3386,605.3939 C1555.0496,608.9729 1551.9414,608.3378 1549.2315,603.4981 C1544.7731,607.1872 1539.9029,605.5191 1538.2226,600.1293 C1534.4981,604.5724 1529.2983,603.9486 1526.7245,598.7562 C1523.0088,602.9318 1517.6439,603.3421 1515.6239,596.9714 C1511.3657,601.8883 1506.8178,601.1074 1504.6814,594.8868 C1497.2521,593.6548 1495.9651,587.64 1500.8911,582.5974 C1494.5473,581.2631 1492.1929,576.5988 1496.033,570.9988 C1492.6964,565.7154 1494.0689,559.8863 1501.4618,559.8079 C1496.544,554.6863 1498.1391,550.0163 1504.2099,547.311" fill="#F1F1F1" style="stroke:#181818;stroke-width:0.5;"/><text fill="#000000" font-family="sans-serif" font-size="14" lengthAdjust="spacing" textLength="96.6396" x="1510.68" y="567.6334">&#26729;&#20391;MQTT&#20195;&#29702;</text><text fill="#000000" font-family="sans-serif" font-size="14" lengthAdjust="spacing" textLength="37.1055" x="1510.68" y="584.1217">(&#21487;&#36873;)</text></g><!--entity METER_HW--><g class="entity" data-qualified-name="METER_HW" data-source-line="24" id="ent0013"><path d="M774.201,662.3609 C777.5901,656.6376 781.2701,656.7211 784.768,662.2589 C788.7967,654.7222 793.1806,654.6241 798.234,661.2872 C803.1049,654.8018 807.1914,654.7464 811.6456,661.703 C814.4042,656.1349 818.3591,655.0587 822.934,659.6935 C828.5957,653.4942 832.6213,655.6275 835.9674,662.0791 C839.1098,657.5665 844.1967,656.2851 847.0806,662.3506 C850.8295,657.0084 855.6781,656.2893 859.6497,662.0995 C864.3797,655.8359 868.916,656.201 873.5551,662.2026 C879.3644,663.8984 880.3532,668.8804 876.6399,673.2381 C883.0863,675.2504 884.7205,679.6921 880.801,685.2849 C884.9847,691.3807 883.9649,695.8799 876.6946,698.3854 C881.0112,703.0035 880.7803,707.4651 874.0352,709.4163 C870.9626,716.1051 864.4751,716.6207 860.0921,710.8872 C857.9222,716.8092 854.863,718.8836 849.153,714.731 C844.4753,722.2394 839.4988,722.4987 834.5231,715.0219 C833.0142,720.7183 828.1707,721.5562 824.1664,717.7382 C818.5987,723.1856 814.277,722.0753 810.675,715.5273 C805.2303,721.9394 801.52,719.8689 797.665,713.8619 C793.5981,719.5915 788.1243,717.9487 785.3657,712.4312 C779.9862,716.6407 775.1592,715.911 773.7327,708.4806 C766.3522,706.6939 765.9072,702.1485 769.7807,696.6139 C763.455,694.5052 761.2818,690.5737 766.0601,684.9293 C761.9404,680.4911 763.2481,674.8875 769.7573,674.0671 C764.7268,668.8032 766.7109,662.872 774.201,662.3609" fill="#F1F1F1" style="stroke:#181818;stroke-width:0.5;"/><text fill="#000000" font-family="sans-serif" font-size="14" lengthAdjust="spacing" textLength="85.791" x="779.11" y="681.6334">DLT645 &#30005;&#34920;</text><text fill="#000000" font-family="sans-serif" font-size="14" lengthAdjust="spacing" textLength="52.0557" x="779.11" y="698.1217">(RS485)</text></g><!--entity PLAT--><g class="entity" data-qualified-name="PLAT" data-source-line="25" id="ent0014"><path d="M767.6239,153.2017 C770.6247,148.245 773.7794,147.7703 777.2582,152.7377 C780.2422,147.017 783.8418,146.9328 788.4566,150.8409 C792.4351,145.8324 796.3518,145.9077 799.7145,151.4951 C802.5015,145.133 807.0628,144.8671 811.2824,150.0609 C815.2752,144.0199 818.9727,143.5576 823.41,149.6153 C827.5395,143.9543 831.8284,145.2119 835.1909,150.4448 C838.106,146.2966 842.5609,145.769 844.8754,151.0609 C848.4623,145.8817 853.7937,144.8956 857.0647,151.3906 C860.6712,145.922 864.3418,146.2479 867.9797,151.3582 C871.5759,146.1125 876.3633,146.9519 878.6284,152.6531 C884.7165,154.7699 885.4688,159.4647 880.7139,163.6397 C886.8179,166.7381 886.3431,171.7177 881.4755,175.5196 C886.2401,178.8442 887.3873,183.6053 881.5368,186.9866 C886.8804,191.4015 885.8095,194.7985 880.4684,198.1949 C878.3979,204.4575 872.8764,206.0283 868.7435,200.1938 C865.5839,205.9377 862.1582,206.3477 857.9198,201.2732 C854.6239,208.9004 850.6291,208.6342 845.2006,203.3787 C843.1181,208.3073 838.4969,208.5039 835.3958,204.4963 C832.2631,210.3169 827.0124,210.3559 822.9245,205.6254 C818.8618,210.4497 814.9582,208.8911 812.6444,203.8103 C808.6116,210.4503 804.0216,210.7929 799.4851,204.3156 C796.1731,208.0623 791.449,208.0937 789.2767,202.9997 C784.3223,207.6239 779.589,206.3198 777.8185,199.7427 C774.8224,204.5241 769.5965,204.8908 767.133,199.1993 C761.4547,197.6986 758.8729,192.7575 763.9537,188.1586 C756.834,185.6259 756.5902,179.9364 761.8503,175.3679 C757.9241,171.5157 759.0676,166.1897 764.46,164.5948 C760.3113,159.9479 761.8413,155.0907 767.6239,153.2017" fill="#F1F1F1" style="stroke:#181818;stroke-width:0.5;"/><text fill="#000000" font-family="sans-serif" font-size="14" lengthAdjust="spacing" textLength="56" x="772.64" y="171.6334">&#24179;&#21488;&#20027;&#31449;</text><text fill="#000000" font-family="sans-serif" font-size="14" lengthAdjust="spacing" textLength="98.7246" x="772.64" y="188.1217">(TCP/&#31169;&#26377;&#21327;&#35758;)</text></g><!--entity HMI--><g class="entity" data-qualified-name="HMI" data-source-line="26" id="ent0015"><ellipse cx="389.02" cy="488.8483" fill="#F1F1F1" rx="8" ry="8" style="stroke:#181818;stroke-width:0.5;"/><path d="M389.02,496.8483 L389.02,523.8483 M376.02,504.8483 L402.02,504.8483 M389.02,523.8483 L376.02,538.8483 M389.02,523.8483 L402.02,538.8483" fill="none" style="stroke:#181818;stroke-width:0.5;"/><text fill="#000000" font-family="sans-serif" font-size="14" lengthAdjust="spacing" textLength="26.3799" x="375.8301" y="553.8834">HMI</text></g><g class="entity" data-qualified-name="GMN41" data-source-line="59" id="ent0042"><path d="M241.45,280.6283 L241.45,336.5599 A0,0 0 0 0 241.45,336.5599 L536.5862,336.5599 A0,0 0 0 0 536.5862,336.5599 L536.5862,290.6283 L526.5862,280.6283 L393.02,280.6283 L389.02,246.2083 L385.02,280.6283 L241.45,280.6283 A0,0 0 0 0 241.45,280.6283" fill="#FEFFDD" style="stroke:#181818;stroke-width:0.5;"/><path d="M526.5862,280.6283 L526.5862,290.6283 L536.5862,290.6283 L526.5862,280.6283" fill="#FEFFDD" style="stroke:#181818;stroke-width:0.5;"/><text fill="#000000" font-family="sans-serif" font-size="13" lengthAdjust="spacing" textLength="143" x="247.45" y="298.1966">&#27599;&#20010;&#24179;&#21488;&#29420;&#31435;&#30446;&#24405;&#23454;&#29616;&#65306;</text><text fill="#000000" font-family="sans-serif" font-size="13" lengthAdjust="spacing" textLength="274.1362" x="247.45" y="313.5072">core/comm/ChangzhouLiyangSmartcityPlat</text><text fill="#000000" font-family="sans-serif" font-size="13" lengthAdjust="spacing" textLength="182.165" x="247.45" y="328.8177">core/comm/Zhongshihua2.0</text></g><g class="entity" data-qualified-name="GMN44" data-source-line="65" id="ent0045"><path d="M1460.51,636.6583 L1460.51,688.7483 L1278.76,702.3283 L1460.51,696.7483 L1460.51,738.5216 A0,0 0 0 0 1460.51,738.5216 L1657.4734,738.5216 A0,0 0 0 0 1657.4734,738.5216 L1657.4734,646.6583 L1647.4734,636.6583 L1460.51,636.6583 A0,0 0 0 0 1460.51,636.6583" fill="#FEFFDD" style="stroke:#181818;stroke-width:0.5;"/><path d="M1647.4734,636.6583 L1647.4734,646.6583 L1657.4734,646.6583 L1647.4734,636.6583" fill="#FEFFDD" style="stroke:#181818;stroke-width:0.5;"/><text fill="#000000" font-family="sans-serif" font-size="13" lengthAdjust="spacing" textLength="104" x="1466.51" y="654.2266">&#22810;&#26041;&#24335;&#25509;&#20837;&#33021;&#21147;&#65306;</text><text fill="#000000" font-family="sans-serif" font-size="13" lengthAdjust="spacing" textLength="117.0317" x="1466.51" y="669.5372">- CAN / CAN2CCU</text><text fill="#000000" font-family="sans-serif" font-size="13" lengthAdjust="spacing" textLength="77.0098" x="1466.51" y="684.8477">- UDP / TCP</text><text fill="#000000" font-family="sans-serif" font-size="13" lengthAdjust="spacing" textLength="116.8032" x="1466.51" y="700.1583">- RS485 / Modbus</text><text fill="#000000" font-family="sans-serif" font-size="13" lengthAdjust="spacing" textLength="109.8271" x="1466.51" y="715.4688">- MQTT(&#21487;&#36873;&#36879;&#20256;)</text><text fill="#000000" font-family="sans-serif" font-size="13" lengthAdjust="spacing" textLength="175.9634" x="1466.51" y="730.7794">&#36890;&#36807;&#32479;&#19968; MQTT &#20027;&#39064;&#23545;&#22806;&#36755;&#20986;</text></g><g class="entity" data-qualified-name="GMN47" data-source-line="74" id="ent0048"><path d="M745.58,442.9683 L745.58,514.2105 A0,0 0 0 0 745.58,514.2105 L818,514.2105 L822,548.7283 L826,514.2105 L898.4145,514.2105 A0,0 0 0 0 898.4145,514.2105 L898.4145,452.9683 L888.4145,442.9683 L745.58,442.9683 A0,0 0 0 0 745.58,442.9683" fill="#FEFFDD" style="stroke:#181818;stroke-width:0.5;"/><path d="M888.4145,442.9683 L888.4145,452.9683 L898.4145,452.9683 L888.4145,442.9683" fill="#FEFFDD" style="stroke:#181818;stroke-width:0.5;"/><text fill="#000000" font-family="sans-serif" font-size="13" lengthAdjust="spacing" textLength="91" x="751.58" y="460.5366">&#26680;&#24515;&#36335;&#30001;&#32844;&#36131;&#65306;</text><text fill="#000000" font-family="sans-serif" font-size="13" lengthAdjust="spacing" textLength="63.6353" x="751.58" y="475.8472">- &#36827;&#31243;&#35299;&#32806;</text><text fill="#000000" font-family="sans-serif" font-size="13" lengthAdjust="spacing" textLength="128.5527" x="751.58" y="491.1577">- Topic &#32423;&#36335;&#30001;&#19982;&#24191;&#25773;</text><text fill="#000000" font-family="sans-serif" font-size="13" lengthAdjust="spacing" textLength="131.8345" x="751.58" y="506.4683">- QoS &#20445;&#38556;&#21629;&#20196;&#21487;&#38752;&#24615;</text></g><!--link HMI to MQ--><g class="link" data-entity-1="ent0015" data-entity-2="ent0002" data-link-type="dependency" data-source-line="28" id="lnk16"><path d="M402.82,519.5583 C446.69,522.9883 594.9,535.5683 715.58,557.5883 C730.79,560.3683 741.2422,562.6012 756.3522,566.3012" fill="none" id="HMI-to-MQ" style="stroke:#181818;stroke-width:1;"/><polygon fill="#181818" points="762.18,567.7283,754.3896,561.7025,757.3235,566.5391,752.4869,569.4729,762.18,567.7283" style="stroke:#181818;stroke-width:1;"/><text fill="#000000" font-family="sans-serif" font-size="13" lengthAdjust="spacing" textLength="129.981" x="576.58" y="533.1166">tcu/logic/{gun}/cmd</text></g><!--link MQ to LOGIC--><g class="link" data-entity-1="ent0002" data-entity-2="ent0003" data-link-type="dependency" data-source-line="29" id="lnk17"><path d="M881.77,550.2383 C896.67,542.6983 912.86,535.2583 928.42,529.5883 C995.68,505.0783 1017.84,517.2083 1085.42,493.5883 C1105.71,486.4983 1121.8231,479.4107 1140.4031,470.2107" fill="none" id="MQ-to-LOGIC" style="stroke:#181818;stroke-width:1;"/><polygon fill="#181818" points="1145.78,467.5483,1135.9396,467.9573,1141.2992,469.767,1139.4895,475.1265,1145.78,467.5483" style="stroke:#181818;stroke-width:1;"/><text fill="#000000" font-family="sans-serif" font-size="13" lengthAdjust="spacing" textLength="81.2119" x="966.4017" y="429.1566">logic/+/cmd</text><text fill="#000000" font-family="sans-serif" font-size="13" lengthAdjust="spacing" textLength="74.9277" x="969.5438" y="444.4672">plat/+/cmd</text><text fill="#000000" font-family="sans-serif" font-size="13" lengthAdjust="spacing" textLength="81.0532" x="966.481" y="459.7777">pile/+/event</text><text fill="#000000" font-family="sans-serif" font-size="13" lengthAdjust="spacing" textLength="74.312" x="969.8516" y="475.0883">pile/+/data</text><text fill="#000000" font-family="sans-serif" font-size="13" lengthAdjust="spacing" textLength="88.1753" x="962.92" y="490.3988">meter/+/data</text></g><!--link LOGIC to MQ--><g class="link" data-entity-1="ent0003" data-entity-2="ent0002" data-link-type="dependency" data-source-line="30" id="lnk18"><path d="M1184.63,467.3883 C1168.38,501.8683 1134.89,560.1983 1085.42,584.5883 C1021.26,616.2183 942.9941,609.8008 887.4941,599.2308" fill="none" id="LOGIC-to-MQ" style="stroke:#181818;stroke-width:1;"/><polygon fill="#181818" points="881.6,598.1083,889.6927,603.7214,886.5117,599.0437,891.1894,595.8627,881.6,598.1083" style="stroke:#181818;stroke-width:1;"/><text fill="#000000" font-family="sans-serif" font-size="13" lengthAdjust="spacing" textLength="122.6558" x="945.762" y="551.1566">tcu/pile/{gun}/cmd</text><text fill="#000000" font-family="sans-serif" font-size="13" lengthAdjust="spacing" textLength="137.1475" x="940.5728" y="566.4672">tcu/logic/{gun}/event</text><text fill="#000000" font-family="sans-serif" font-size="13" lengthAdjust="spacing" textLength="151.2266" x="933.5333" y="581.7777">tcu/logic/{gun}/feeData</text></g><!--link MQ to PILE--><g class="link" data-entity-1="ent0002" data-entity-2="ent0004" data-link-type="dependency" data-source-line="32" id="lnk19"><path d="M881.77,616.9383 C896.67,624.4783 912.86,631.9183 928.42,637.5883 C995.68,662.0983 1016.19,655.3383 1085.42,673.5883 C1095,676.1183 1099.2537,677.24 1109.1637,680.09" fill="none" id="MQ-to-PILE" style="stroke:#181818;stroke-width:1;"/><polygon fill="#181818" points="1114.93,681.7483,1107.3861,675.4166,1110.1248,680.3664,1105.175,683.105,1114.93,681.7483" style="stroke:#181818;stroke-width:1;"/><text fill="#000000" font-family="sans-serif" font-size="13" lengthAdjust="spacing" textLength="122.6558" x="945.92" y="634.1566">tcu/pile/{gun}/cmd</text></g><!--link PILE to MQ--><g class="link" data-entity-1="ent0004" data-entity-2="ent0002" data-link-type="dependency" data-source-line="33" id="lnk20"><path d="M1115.2,732.0083 C1058.1,744.7883 982.42,750.6783 928.42,713.5883 C897.8,692.5583 921.4,664.7683 898.42,635.5883 C893.6,629.4683 892.4392,627.6653 886.3092,622.4753" fill="none" id="PILE-to-MQ" style="stroke:#181818;stroke-width:1;"/><polygon fill="#181818" points="881.73,618.5983,886.0141,627.4666,885.546,621.8291,891.1834,621.361,881.73,618.5983" style="stroke:#181818;stroke-width:1;"/><text fill="#000000" font-family="sans-serif" font-size="13" lengthAdjust="spacing" textLength="129.8223" x="942.42" y="695.1566">tcu/pile/{gun}/event</text><text fill="#000000" font-family="sans-serif" font-size="13" lengthAdjust="spacing" textLength="123.0811" x="947.8472" y="710.4672">tcu/pile/{gun}/data</text></g><!--link PILE to CCU--><g class="link" data-entity-1="ent0004" data-entity-2="ent0009" data-link-type="dependency" data-source-line="34" id="lnk21"><path d="M1278.82,727.2483 C1323.6,738.8283 1380.22,753.6983 1430.51,767.5883 C1455.17,774.3983 1476.6518,780.5722 1499.6018,787.2922" fill="none" id="PILE-to-CCU" style="stroke:#181818;stroke-width:1;"/><polygon fill="#181818" points="1505.36,788.9783,1497.8467,782.6104,1500.5615,787.5732,1495.5986,790.288,1505.36,788.9783" style="stroke:#181818;stroke-width:1;"/><text fill="#000000" font-family="sans-serif" font-size="13" lengthAdjust="spacing" textLength="57.6812" x="1341.01" y="731.9566">CAN &#25509;&#20837;</text></g><!--link CCU to PILE--><g class="link" data-entity-1="ent0009" data-entity-2="ent0004" data-link-type="dependency" data-source-line="35" id="lnk22"><path d="M1505.53,811.0383 C1453.75,815.3583 1373.17,816.5283 1308.51,792.5883 C1274.99,780.1783 1247.8038,757.8694 1227.0738,737.5394" fill="none" id="CCU-to-PILE" style="stroke:#181818;stroke-width:1;"/><polygon fill="#181818" points="1222.79,733.3383,1226.4149,742.4958,1226.3598,736.8392,1232.0164,736.7841,1222.79,733.3383" style="stroke:#181818;stroke-width:1;"/><text fill="#000000" font-family="sans-serif" font-size="13" lengthAdjust="spacing" textLength="91.6348" x="1324.01" y="789.1566">&#29366;&#24577;/&#21709;&#24212;/&#36965;&#27979;</text></g><!--link PILE to NET_PILE--><g class="link" data-entity-1="ent0004" data-entity-2="ent0010" data-link-type="dependency" data-source-line="36" id="lnk23"><path d="M1203.89,733.2483 C1215.36,777.6783 1245.26,865.6483 1308.51,902.5883 C1369.85,938.4183 1449.1336,929.6432 1502.4036,917.7732" fill="none" id="PILE-to-NET_PILE" style="stroke:#181818;stroke-width:1;"/><polygon fill="#181818" points="1508.26,916.4683,1498.6055,914.5215,1503.3797,917.5557,1500.3454,922.33,1508.26,916.4683" style="stroke:#181818;stroke-width:1;"/><text fill="#000000" font-family="sans-serif" font-size="13" lengthAdjust="spacing" textLength="87.2612" x="1326.01" y="899.1566">UDP/TCP &#25509;&#20837;</text></g><!--link NET_PILE to PILE--><g class="link" data-entity-1="ent0010" data-entity-2="ent0004" data-link-type="dependency" data-source-line="37" id="lnk24"><path d="M1508.27,893.5883 C1445.45,881.5683 1341.52,859.3883 1308.51,838.5883 C1266.16,811.8983 1235.0504,768.7246 1216.4304,738.5446" fill="none" id="NET_PILE-to-PILE" style="stroke:#181818;stroke-width:1;"/><polygon fill="#181818" points="1213.28,733.4383,1214.6014,743.1981,1215.9054,737.6936,1221.4099,738.9975,1213.28,733.4383" style="stroke:#181818;stroke-width:1;"/><text fill="#000000" font-family="sans-serif" font-size="13" lengthAdjust="spacing" textLength="91.6348" x="1324.01" y="835.1566">&#29366;&#24577;/&#21709;&#24212;/&#36965;&#27979;</text></g><!--link PILE to SERIAL_PILE--><g class="link" data-entity-1="ent0004" data-entity-2="ent0011" data-link-type="dependency" data-source-line="38" id="lnk25"><path d="M1220.56,679.9783 C1241.62,656.2883 1274.77,621.7583 1308.51,597.5883 C1324.74,585.9783 1418.0095,540.1527 1486.2795,507.1027" fill="none" id="PILE-to-SERIAL_PILE" style="stroke:#181818;stroke-width:1;"/><polygon fill="#181818" points="1491.68,504.4883,1481.8364,504.8096,1487.1796,506.6669,1485.3223,512.0102,1491.68,504.4883" style="stroke:#181818;stroke-width:1;"/><text fill="#000000" font-family="sans-serif" font-size="13" lengthAdjust="spacing" textLength="69.9956" x="1335.01" y="531.8766">RS485 &#25509;&#20837;</text></g><!--link SERIAL_PILE to PILE--><g class="link" data-entity-1="ent0011" data-entity-2="ent0004" data-link-type="dependency" data-source-line="39" id="lnk26"><path d="M1486.89,467.8383 C1433.39,467.7783 1360.62,475.5583 1308.51,511.5883 C1249.14,552.6483 1219.475,630.8356 1206.695,673.9556" fill="none" id="SERIAL_PILE-to-PILE" style="stroke:#181818;stroke-width:1;"/><polygon fill="#181818" points="1204.99,679.7083,1211.3826,672.216,1206.4108,674.9144,1203.7124,669.9426,1204.99,679.7083" style="stroke:#181818;stroke-width:1;"/><text fill="#000000" font-family="sans-serif" font-size="13" lengthAdjust="spacing" textLength="91.6348" x="1324.01" y="467.5666">&#29366;&#24577;/&#21709;&#24212;/&#36965;&#27979;</text></g><!--link PILE to PILE_MQTT--><g class="link" data-entity-1="ent0004" data-entity-2="ent0012" data-link-type="dependency" data-source-line="40" id="lnk27"><path d="M1274.713,677.5983 C1340.693,652.6783 1426.727,620.1784 1489.817,596.3484" fill="none" id="PILE-PILE_MQTT" style="stroke:#181818;stroke-width:1;"/><polygon fill="#181818" points="1269.1,679.7183,1278.9328,680.2803,1273.7775,677.9516,1276.1062,672.7963,1269.1,679.7183" style="stroke:#181818;stroke-width:1;"/><polygon fill="#181818" points="1495.43,594.2283,1485.5972,593.6665,1490.7525,595.995,1488.424,601.1504,1495.43,594.2283" style="stroke:#181818;stroke-width:1;"/><text fill="#000000" font-family="sans-serif" font-size="13" lengthAdjust="spacing" textLength="102.3052" x="1318.51" y="618.9766">MQTT &#25509;&#20837;(&#21487;&#36873;)</text></g><!--link METER to METER_HW--><g class="link" data-entity-1="ent0005" data-entity-2="ent0013" data-link-type="dependency" data-source-line="42" id="lnk28"><path d="M442,639.7383 C523.16,649.3483 673.4216,667.123 757.7316,677.103" fill="none" id="METER-to-METER_HW" style="stroke:#181818;stroke-width:1;"/><polygon fill="#181818" points="763.69,677.8083,755.2226,672.778,758.7247,677.2205,754.2822,680.7226,763.69,677.8083" style="stroke:#181818;stroke-width:1;"/><text fill="#000000" font-family="sans-serif" font-size="13" lengthAdjust="spacing" textLength="50.6606" x="616.08" y="651.0866">645&#36718;&#35810;</text></g><!--link METER_HW to METER--><g class="link" data-entity-1="ent0013" data-entity-2="ent0005" data-link-type="dependency" data-source-line="43" id="lnk29"><path d="M763.64,691.6683 C748.07,693.2883 731.2,694.7783 715.58,695.5883 C649.45,699.0283 631.86,706.7183 566.58,695.5883 C523.35,688.2183 482.1549,673.6705 447.6349,659.4005" fill="none" id="METER_HW-to-METER" style="stroke:#181818;stroke-width:1;"/><polygon fill="#181818" points="442.09,657.1083,448.8792,664.2431,446.7108,659.0184,451.9355,656.8499,442.09,657.1083" style="stroke:#181818;stroke-width:1;"/><text fill="#000000" font-family="sans-serif" font-size="13" lengthAdjust="spacing" textLength="91.6348" x="595.58" y="692.1566">&#30005;&#37327;/&#30005;&#21387;/&#30005;&#27969;</text></g><!--link METER to MQ--><g class="link" data-entity-1="ent0005" data-entity-2="ent0002" data-link-type="dependency" data-source-line="44" id="lnk30"><path d="M442,627.5583 C522.71,618.1983 671.7,600.9098 756.33,591.0898" fill="none" id="METER-to-MQ" style="stroke:#181818;stroke-width:1;"/><polygon fill="#181818" points="762.29,590.3983,752.8889,587.4623,757.3233,590.9746,753.811,595.409,762.29,590.3983" style="stroke:#181818;stroke-width:1;"/><text fill="#000000" font-family="sans-serif" font-size="13" lengthAdjust="spacing" textLength="136.9443" x="573.0072" y="578.5666">tcu/meter/{gun}/data</text><text fill="#000000" font-family="sans-serif" font-size="13" lengthAdjust="spacing" textLength="143.6855" x="571.6933" y="593.8772">tcu/meter/{gun}/event</text></g><!--link COMM to PLAT--><g class="link" data-entity-1="ent0006" data-entity-2="ent0014" data-link-type="dependency" data-source-line="46" id="lnk31"><path d="M456.72,192.6083 C489.27,180.8583 529.35,168.4483 566.58,162.5883 C632,152.2883 649.47,158.8383 715.58,162.5883 C729.1,163.3583 737.5851,164.0205 751.3051,165.5105" fill="none" id="COMM-to-PLAT" style="stroke:#181818;stroke-width:1;"/><polygon fill="#181818" points="757.27,166.1583,748.7545,161.21,752.2992,165.6185,747.8907,169.1632,757.27,166.1583" style="stroke:#181818;stroke-width:1;"/><text fill="#000000" font-family="sans-serif" font-size="13" lengthAdjust="spacing" textLength="65" x="608.58" y="153.6266">&#24179;&#21488;&#19978;&#34892;&#24103;</text></g><!--link PLAT to COMM--><g class="link" data-entity-1="ent0014" data-entity-2="ent0006" data-link-type="dependency" data-source-line="47" id="lnk32"><path d="M757.2,182.7183 C743.48,184.3883 729.05,186.0983 715.58,187.5883 C638.67,196.1083 557.3836,204.066 492.5736,210.166" fill="none" id="PLAT-to-COMM" style="stroke:#181818;stroke-width:1;"/><polygon fill="#181818" points="486.6,210.7283,495.9352,213.8673,491.578,210.2597,495.1856,205.9025,486.6,210.7283" style="stroke:#181818;stroke-width:1;"/><text fill="#000000" font-family="sans-serif" font-size="13" lengthAdjust="spacing" textLength="65" x="608.58" y="184.1566">&#24179;&#21488;&#19979;&#34892;&#24103;</text></g><!--link COMM to MQ--><g class="link" data-entity-1="ent0006" data-entity-2="ent0002" data-link-type="dependency" data-source-line="48" id="lnk33"><path d="M486.49,233.4783 C505.07,240.0283 522.95,249.6083 536.58,263.5883 C571.96,299.8783 530.23,338.2883 566.58,373.5883 C615.45,421.0583 667.31,361.5183 715.58,409.5883 C755.15,448.9883 713.86,485.6383 745.58,531.5883 C750.19,538.2683 751.4316,540.4121 757.7016,545.8621" fill="none" id="COMM-to-MQ" style="stroke:#181818;stroke-width:1;"/><polygon fill="#181818" points="762.23,549.7983,758.0615,540.8751,758.4563,546.5181,752.8133,546.913,762.23,549.7983" style="stroke:#181818;stroke-width:1;"/><text fill="#000000" font-family="sans-serif" font-size="13" lengthAdjust="spacing" textLength="123.6968" x="579.7199" y="355.1566">tcu/plat/{gun}/cmd</text><text fill="#000000" font-family="sans-serif" font-size="13" lengthAdjust="spacing" textLength="130.8633" x="578.1933" y="370.4672">tcu/plat/{gun}/event</text></g><!--link MQ to COMM--><g class="link" data-entity-1="ent0002" data-entity-2="ent0006" data-link-type="dependency" data-source-line="49" id="lnk34"><path d="M762.39,550.8183 C755.92,545.1383 750.06,538.7283 745.58,531.5883 C699.22,457.6783 772.01,404.1383 715.58,337.5883 C670.5,284.4183 627.55,322.3883 566.58,288.5883 C551.4,280.1783 551.87,271.8083 536.58,263.5883 C521.02,255.2283 509.3388,250.1456 492.1588,244.3856" fill="none" id="MQ-to-COMM" style="stroke:#181818;stroke-width:1;"/><polygon fill="#181818" points="486.47,242.4783,493.7316,249.1317,491.2106,244.0677,496.2747,241.5467,486.47,242.4783" style="stroke:#181818;stroke-width:1;"/><text fill="#000000" font-family="sans-serif" font-size="13" lengthAdjust="spacing" textLength="88.3784" x="597.1762" y="224.1566">logic/+/event</text><text fill="#000000" font-family="sans-serif" font-size="13" lengthAdjust="spacing" textLength="102.4575" x="592.1933" y="239.4672">logic/+/feeData</text><text fill="#000000" font-family="sans-serif" font-size="13" lengthAdjust="spacing" textLength="74.312" x="606.266" y="254.7777">pile/+/data</text><text fill="#000000" font-family="sans-serif" font-size="13" lengthAdjust="spacing" textLength="81.0532" x="602.8954" y="270.0883">pile/+/event</text><text fill="#000000" font-family="sans-serif" font-size="13" lengthAdjust="spacing" textLength="88.1753" x="599.3344" y="285.3988">meter/+/data</text></g><!--link LOGIC to LOGGER--><g class="link" data-entity-1="ent0003" data-entity-2="ent0007" data-link-type="dependency" data-source-line="51" id="lnk35"><path d="M1234.47,413.8283 C1303.47,363.2283 1447.4813,257.6261 1516.5613,206.9761" fill="none" id="LOGIC-to-LOGGER" style="stroke:#181818;stroke-width:1;"/><polygon fill="#181818" points="1521.4,203.4283,1511.7767,205.5241,1517.3677,206.3848,1516.5071,211.9758,1521.4,203.4283" style="stroke:#181818;stroke-width:1;"/><text fill="#000000" font-family="sans-serif" font-size="13" lengthAdjust="spacing" textLength="120.396" x="1309.51" y="273.7466">logTradeRecord(...)</text></g><!--link COMM to LOGGER--><g class="link" data-entity-1="ent0006" data-entity-2="ent0007" data-link-type="dependency" data-source-line="52" id="lnk36"><path d="M431.19,192.6683 C465.76,171.6883 517.28,144.0683 566.58,131.5883 C914.63,43.4883 1347.0826,127.2736 1498.1126,162.0036" fill="none" id="COMM-to-LOGGER" style="stroke:#181818;stroke-width:1;"/><polygon fill="#181818" points="1503.96,163.3483,1496.0853,157.4331,1499.0872,162.2278,1494.2925,165.2296,1503.96,163.3483" style="stroke:#181818;stroke-width:1;"/><text fill="#000000" font-family="sans-serif" font-size="13" lengthAdjust="spacing" textLength="149.2524" x="932.42" y="89.5866">confirmTradeRecord(...)</text></g><!--link DAEMON to LOGIC--><g class="link" data-entity-1="ent0008" data-entity-2="ent0003" data-link-type="dependency" data-source-line="53" id="lnk37"><path d="M127.75,466.2783 C276.89,460.3683 658.69,444.4683 715.58,434.5883 C729.3,432.2083 731.9,428.1383 745.58,425.5883 C825.71,410.6883 846.98,414.7083 928.42,411.5883 C998.14,408.9283 1016.21,402.6683 1085.42,411.5883 C1101.16,413.6183 1112.0481,415.7278 1127.5681,419.7078" fill="none" id="DAEMON-to-LOGIC" style="stroke:#181818;stroke-width:1;"/><polygon fill="#181818" points="1133.38,421.1983,1125.6557,415.088,1128.5367,419.9563,1123.6685,422.8373,1133.38,421.1983" style="stroke:#181818;stroke-width:1;"/><text fill="#000000" font-family="sans-serif" font-size="13" lengthAdjust="spacing" textLength="52" x="615.08" y="431.1566">&#36827;&#31243;&#23432;&#25252;</text></g><!--link DAEMON to PILE--><g class="link" data-entity-1="ent0008" data-entity-2="ent0004" data-link-type="dependency" data-source-line="54" id="lnk38"><path d="M81.87,495.4083 C106.74,541.2383 164.1,633.8983 241.45,677.5883 C508.63,828.4983 621.68,738.1183 928.42,746.5883 C998.17,748.5183 1016.69,758.6383 1085.42,746.5883 C1101.3,743.8083 1112.2504,740.9204 1127.6204,735.5104" fill="none" id="DAEMON-to-PILE" style="stroke:#181818;stroke-width:1;"/><polygon fill="#181818" points="1133.28,733.5183,1123.4625,732.7333,1128.5636,735.1784,1126.1186,740.2795,1133.28,733.5183" style="stroke:#181818;stroke-width:1;"/><text fill="#000000" font-family="sans-serif" font-size="13" lengthAdjust="spacing" textLength="52" x="615.08" y="751.6366">&#36827;&#31243;&#23432;&#25252;</text></g><!--link DAEMON to METER--><g class="link" data-entity-1="ent0008" data-entity-2="ent0005" data-link-type="dependency" data-source-line="55" id="lnk39"><path d="M107.74,495.3883 C142.16,518.0883 193.88,550.6683 241.45,574.5883 C271.96,589.9283 301.8461,602.1907 330.2661,612.9107" fill="none" id="DAEMON-to-METER" style="stroke:#181818;stroke-width:1;"/><polygon fill="#181818" points="335.88,615.0283,328.8708,608.1093,331.2017,613.2636,326.0474,615.5945,335.88,615.0283" style="stroke:#181818;stroke-width:1;"/><text fill="#000000" font-family="sans-serif" font-size="13" lengthAdjust="spacing" textLength="52" x="158.45" y="524.7166">&#36827;&#31243;&#23432;&#25252;</text></g><!--link DAEMON to COMM--><g class="link" data-entity-1="ent0008" data-entity-2="ent0006" data-link-type="dependency" data-source-line="56" id="lnk40"><path d="M83.74,441.6483 C110.37,397.7983 168.97,311.1183 241.45,263.5883 C256.55,253.6783 268.3104,247.9018 285.7504,241.8618" fill="none" id="DAEMON-to-COMM" style="stroke:#181818;stroke-width:1;"/><polygon fill="#181818" points="291.42,239.8983,281.6066,239.0639,286.6953,241.5346,284.2246,246.6234,291.42,239.8983" style="stroke:#181818;stroke-width:1;"/><text fill="#000000" font-family="sans-serif" font-size="13" lengthAdjust="spacing" textLength="52" x="158.45" y="286.5466">&#36827;&#31243;&#23432;&#25252;</text></g><?plantuml-src ZLLjJnj74Fw-ls95lWHLS1KYLLKX969CWcI7DwDA5HAw-CxsANUtxldSYaQHR252WmDk6XArG5884ATDQz8sf0O3_ZFUk_Ed_eNEtjwRJP629MvdvfcNdNrcrrHCLSPqPSNUF7RgUyxx4xh-ZAuium7SRZITrsMdjMs_gLXx3wsN7n0gt5Fql6Y86auJBKzqMJVdp2M8OCXfKzIpgXo157AYHBvLz2pEY6eXQWdG-3x2-2On9Dc84PKO-Dhm6Fk1TeBefgSRSl_G0wJA6HER11jADcTYIM5n5A8Z50RiIywaKlYcGUx9ne9-NIE5hukAQPB-1NranDfjqDQoyy-HlVcdLMhQfwtHqJui5d1o1b-Rc9WOYiKG2dQ6-ynqSL4bMIKDaTB4a8L0qU-w9QPkJSPw7VAAAY-ceNg3gAfRXElQe-O1fYSJyLv_JJP3BrVWs6Gy5P_j1OEe-LYs5aQcLT7C44CRvLwngMGowWJLPyFmN0esSwixWIJA6j5zB9SuTdmidfow0xrIIL72VPm_rjwlm1bhemOUiR4xqCnvhuROl8-qpv_OpHr0ElKBUh0AoFdnQI4Lc-R8E_7K8ky9XxSRVz7gVXG-EpVy-GqXIQIxnGBtcOlFJeubkjnO9HSrneHsSz_-uI7uqUfHf_GexFeYi_huyKJgi-4RcCt0tXi_IQJhYxU_3BPwyZUjleDzscz_1YHKBjYrihNpYAvNdNhTIv0OIo4nRG9v-sud9rqTV162VtXWO9JnxGiCvoUuP1BkPulw0o6jIGWCpEuI2o3S_0apBUXvEDbW3Mo2jVmD75GWIQ8fBkWkPJm9yK1TALrma751lrI75_IIFYFBuoocNoHhu__6HAxbggJHy16rMsxW29G1Js0HjZOEwSeXOef8KdljWrKg2_JfEZtT53hbG-ku4dhxD0AWHoy_J63vw5WHUW7MPOOVB6hwg7WZFifb7q3T3u_cCnJQooZ7s-UH3v30J-UyxXozGe4oGB2ScyUTrQe07xfHOH_hk1mDv9y39qVOSUySechtV11Y5mVV5P0Pl7tYhpbxZscZXborUrGC6DehdZtm3pd0-DjBl8YI9_R8vKNr1y0dZIzxN0HD5_TnzrpWhbc830E_wtZyb25AygmCTvnqVN1mi3-iF431jPrH3EqIab-3NHFBtqjQ_zvQEuZQFMvSPVRFyIgxruukCzA9AUEx15ut3PCCl-gjesgxyHi_3Blok_ssOc_NwVapMdzfRxpxzsmBXMz5B0TlvdSvKameIx2QqqJ3J2lc4dj28h2lSaJF5d9AhYWE3NwAP5t2BBENdx_5aDwzWEd1blNyX9vLEQcTvNEwjiso3hZ3B63lOG0P9XDac4rOyx4ICB_NGS46mvk8JgdQFjljHvtIbjDQjPk_j1ibFZXm2tTU_KIFJkZ1S-VYALqzxItE97bMMd86HPz-f_pOUR_Fg-8TTMhxJkarY2cILzBOFgrnPBknGKzQrez_W6c6pE5swqLdQuS-EMyt3rXrBtQjKYrC-Xy0?></g></svg>