<?plantuml 1.2026.1?><svg xmlns="http://www.w3.org/2000/svg" xmlns:xlink="http://www.w3.org/1999/xlink" contentStyleType="text/css" data-diagram-type="STATE" height="1972px" preserveAspectRatio="none" style="width:673px;height:1972px;background:#FFFFFF;" version="1.1" viewBox="0 0 673 1972" width="673px" zoomAndPan="magnify"><title>tcu_hmi &#21152;&#36733;&#19982;&#29366;&#24577;&#36716;&#25442; UML</title><defs/><g><g class="title" data-source-line="2"><text fill="#000000" font-family="sans-serif" font-size="14" font-weight="bold" lengthAdjust="spacing" textLength="195.0293" x="228.7465" y="23.5352">tcu_hmi &#21152;&#36733;&#19982;&#29366;&#24577;&#36716;&#25442; UML</text></g><g><rect fill="#F1F1F1" height="50.6211" rx="12.5" ry="12.5" style="stroke:#181818;stroke-width:0.5;" width="78.7549" x="293.88" y="124.4883"/><line style="stroke:#181818;stroke-width:0.5;" x1="293.88" x2="372.6349" y1="150.9766" y2="150.9766"/><text fill="#000000" font-family="sans-serif" font-size="14" lengthAdjust="spacing" textLength="58.7549" x="303.88" y="143.0234">AppStart</text><text fill="#000000" font-family="sans-serif" font-size="12" lengthAdjust="spacing" textLength="36.5508" x="298.88" y="167.5781">main()</text></g><path d="M286.51,252.1083 L380.0159,252.1083 A12.5,12.5 0 0 1 392.5159,264.6083 L392.5159,278.5966 L274.01,278.5966 L274.01,264.6083 A12.5,12.5 0 0 1 286.51,252.1083" fill="#F1F1F1"/><rect fill="none" height="555.4883" rx="12.5" ry="12.5" style="stroke:#181818;stroke-width:0.5;" width="118.5059" x="274.01" y="252.1083"/><line style="stroke:#181818;stroke-width:0.5;" x1="274.01" x2="392.5159" y1="278.5966" y2="278.5966"/><text fill="#000000" font-family="sans-serif" font-size="14" lengthAdjust="spacing" textLength="74.915" x="295.8054" y="270.6434">InitWindow</text><ellipse cx="334.76" cy="299.5966" fill="#222222" rx="10" ry="10" style="stroke:#222222;stroke-width:1;"/><g><rect fill="#F1F1F1" height="50" rx="12.5" ry="12.5" style="stroke:#181818;stroke-width:0.5;" width="97.5059" x="286.01" y="345.5966"/><line style="stroke:#181818;stroke-width:0.5;" x1="286.01" x2="383.5159" y1="372.0848" y2="372.0848"/><text fill="#000000" font-family="sans-serif" font-size="14" lengthAdjust="spacing" textLength="77.5059" x="296.01" y="364.1317">LoadConfig</text></g><g><rect fill="#F1F1F1" height="50" rx="12.5" ry="12.5" style="stroke:#181818;stroke-width:0.5;" width="73.3477" x="298.09" y="431.5966"/><line style="stroke:#181818;stroke-width:0.5;" x1="298.09" x2="371.4377" y1="458.0848" y2="458.0848"/><text fill="#000000" font-family="sans-serif" font-size="14" lengthAdjust="spacing" textLength="53.3477" x="308.09" y="450.1317">InitMqtt</text></g><g><rect fill="#F1F1F1" height="50" rx="12.5" ry="12.5" style="stroke:#181818;stroke-width:0.5;" width="85.7344" x="291.9" y="517.5966"/><line style="stroke:#181818;stroke-width:0.5;" x1="291.9" x2="377.6344" y1="544.0848" y2="544.0848"/><text fill="#000000" font-family="sans-serif" font-size="14" lengthAdjust="spacing" textLength="65.7344" x="301.9" y="536.1317">Subscribe</text></g><g><rect fill="#F1F1F1" height="50" rx="12.5" ry="12.5" style="stroke:#181818;stroke-width:0.5;" width="90.9707" x="289.28" y="603.5966"/><line style="stroke:#181818;stroke-width:0.5;" x1="289.28" x2="380.2507" y1="630.0848" y2="630.0848"/><text fill="#000000" font-family="sans-serif" font-size="14" lengthAdjust="spacing" textLength="70.9707" x="299.28" y="622.1317">StartTimer</text></g><g><rect fill="#F1F1F1" height="50" rx="12.5" ry="12.5" style="stroke:#181818;stroke-width:0.5;" width="89.0156" x="290.26" y="689.5966"/><line style="stroke:#181818;stroke-width:0.5;" x1="290.26" x2="379.2756" y1="716.0848" y2="716.0848"/><text fill="#000000" font-family="sans-serif" font-size="14" lengthAdjust="spacing" textLength="69.0156" x="300.26" y="708.1317">FullScreen</text></g><ellipse cx="334.76" cy="786.5966" fill="none" rx="11" ry="11" style="stroke:#222222;stroke-width:1;"/><ellipse cx="334.76" cy="786.5966" fill="#222222" rx="6" ry="6" style="stroke:#222222;stroke-width:1;"/><!--link *start*InitWindow to LoadConfig--><g class="link" data-entity-1="ent0005" data-entity-2="ent0006" data-link-type="dependency" data-source-line="9" id="lnk7"><path d="M334.76,309.9066 C334.76,318.9466 334.76,327.0866 334.76,339.3266" fill="none" id="*start*InitWindow-to-LoadConfig" style="stroke:#181818;stroke-width:1;"/><polygon fill="#181818" points="334.76,345.3266,338.76,336.3266,334.76,340.3266,330.76,336.3266,334.76,345.3266" style="stroke:#181818;stroke-width:1;"/></g><!--link LoadConfig to InitMqtt--><g class="link" data-entity-1="ent0006" data-entity-2="ent0008" data-link-type="dependency" data-source-line="10" id="lnk9"><path d="M334.76,395.8966 C334.76,407.0366 334.76,414.2166 334.76,425.3566" fill="none" id="LoadConfig-to-InitMqtt" style="stroke:#181818;stroke-width:1;"/><polygon fill="#181818" points="334.76,431.3566,338.76,422.3566,334.76,426.3566,330.76,422.3566,334.76,431.3566" style="stroke:#181818;stroke-width:1;"/></g><!--link InitMqtt to Subscribe--><g class="link" data-entity-1="ent0008" data-entity-2="ent0010" data-link-type="dependency" data-source-line="11" id="lnk11"><path d="M334.76,481.8966 C334.76,493.0366 334.76,500.2166 334.76,511.3566" fill="none" id="InitMqtt-to-Subscribe" style="stroke:#181818;stroke-width:1;"/><polygon fill="#181818" points="334.76,517.3566,338.76,508.3566,334.76,512.3566,330.76,508.3566,334.76,517.3566" style="stroke:#181818;stroke-width:1;"/></g><!--link Subscribe to StartTimer--><g class="link" data-entity-1="ent0010" data-entity-2="ent0012" data-link-type="dependency" data-source-line="12" id="lnk13"><path d="M334.76,567.8966 C334.76,579.0366 334.76,586.2166 334.76,597.3566" fill="none" id="Subscribe-to-StartTimer" style="stroke:#181818;stroke-width:1;"/><polygon fill="#181818" points="334.76,603.3566,338.76,594.3566,334.76,598.3566,330.76,594.3566,334.76,603.3566" style="stroke:#181818;stroke-width:1;"/></g><!--link StartTimer to FullScreen--><g class="link" data-entity-1="ent0012" data-entity-2="ent0014" data-link-type="dependency" data-source-line="13" id="lnk15"><path d="M334.76,653.8966 C334.76,665.0366 334.76,672.2166 334.76,683.3566" fill="none" id="StartTimer-to-FullScreen" style="stroke:#181818;stroke-width:1;"/><polygon fill="#181818" points="334.76,689.3566,338.76,680.3566,334.76,684.3566,330.76,680.3566,334.76,689.3566" style="stroke:#181818;stroke-width:1;"/></g><!--link FullScreen to *end*InitWindow--><g class="link" data-entity-1="ent0014" data-entity-2="ent0016" data-link-type="dependency" data-source-line="14" id="lnk17"><path d="M334.76,740.0766 C334.76,752.0666 334.76,759.8666 334.76,769.0966" fill="none" id="FullScreen-to-*end*InitWindow" style="stroke:#181818;stroke-width:1;"/><polygon fill="#181818" points="334.76,775.0966,338.76,766.0966,334.76,770.0966,330.76,766.0966,334.76,775.0966" style="stroke:#181818;stroke-width:1;"/></g><path d="M70.06,868.5983 L596.47,868.5983 A12.5,12.5 0 0 1 608.97,881.0983 L608.97,895.0866 L57.56,895.0866 L57.56,881.0983 A12.5,12.5 0 0 1 70.06,868.5983" fill="#F1F1F1"/><rect fill="none" height="349.8694" rx="12.5" ry="12.5" style="stroke:#181818;stroke-width:0.5;" width="551.41" x="57.56" y="868.5983"/><line style="stroke:#181818;stroke-width:0.5;" x1="57.56" x2="608.97" y1="895.0866" y2="895.0866"/><text fill="#000000" font-family="sans-serif" font-size="14" lengthAdjust="spacing" textLength="56.3828" x="305.0736" y="887.1334">Running</text><g><rect fill="#F1F1F1" height="64.7539" rx="12.5" ry="12.5" style="stroke:#181818;stroke-width:0.5;" width="182.791" x="219.34" y="907.0866"/><line style="stroke:#181818;stroke-width:0.5;" x1="219.34" x2="402.131" y1="933.5748" y2="933.5748"/><text fill="#000000" font-family="sans-serif" font-size="14" lengthAdjust="spacing" textLength="104.1182" x="258.6764" y="925.6217">ApplySetConfig</text><text fill="#000000" font-family="sans-serif" font-size="12" lengthAdjust="spacing" textLength="162.791" x="224.34" y="950.1764">&#26356;&#26032; gunCount/cdzId/gunId</text><text fill="#000000" font-family="sans-serif" font-size="12" lengthAdjust="spacing" textLength="84.8086" x="224.34" y="964.3092">&#29983;&#25104; qrPayload</text></g><g><rect fill="#F1F1F1" height="50.6211" rx="12.5" ry="12.5" style="stroke:#181818;stroke-width:0.5;" width="147.3008" x="82.09" y="1157.8466"/><line style="stroke:#181818;stroke-width:0.5;" x1="82.09" x2="229.3908" y1="1184.3348" y2="1184.3348"/><text fill="#000000" font-family="sans-serif" font-size="14" lengthAdjust="spacing" textLength="63.9844" x="123.7482" y="1176.3817">UpdateYc</text><text fill="#000000" font-family="sans-serif" font-size="12" lengthAdjust="spacing" textLength="127.3008" x="87.09" y="1200.9364">&#35745;&#31639; power=U*I/1000</text></g><ellipse cx="483.74" cy="939.4666" fill="#222222" rx="10" ry="10" style="stroke:#222222;stroke-width:1;"/><g><rect fill="#F1F1F1" height="50" rx="12.5" ry="12.5" style="stroke:#181818;stroke-width:0.5;" width="114.5205" x="269.48" y="1039.8466"/><line style="stroke:#181818;stroke-width:0.5;" x1="269.48" x2="384.0005" y1="1066.3348" y2="1066.3348"/><text fill="#000000" font-family="sans-serif" font-size="14" lengthAdjust="spacing" textLength="94.5205" x="279.48" y="1058.3817">WaitMessages</text></g><g><rect fill="#F1F1F1" height="50" rx="12.5" ry="12.5" style="stroke:#181818;stroke-width:0.5;" width="101.6348" x="298.92" y="1158.1566"/><line style="stroke:#181818;stroke-width:0.5;" x1="298.92" x2="400.5548" y1="1184.6448" y2="1184.6448"/><text fill="#000000" font-family="sans-serif" font-size="14" lengthAdjust="spacing" textLength="81.6348" x="308.92" y="1176.6917">UpdateState</text></g><g><rect fill="#F1F1F1" height="50" rx="12.5" ry="12.5" style="stroke:#181818;stroke-width:0.5;" width="91.1963" x="444.14" y="1158.1566"/><line style="stroke:#181818;stroke-width:0.5;" x1="444.14" x2="535.3363" y1="1184.6448" y2="1184.6448"/><text fill="#000000" font-family="sans-serif" font-size="14" lengthAdjust="spacing" textLength="71.1963" x="454.14" y="1176.6917">UpdateFee</text></g><!--link *start*Running to WaitMessages--><g class="link" data-entity-1="ent0019" data-entity-2="ent0020" data-link-type="dependency" data-source-line="20" id="lnk21"><path d="M484.63,949.8766 C485.67,966.6066 485.28,1001.6466 466.74,1021.8466 C445.81,1044.6566 418.9451,1054.2507 390.3651,1059.1107" fill="none" id="*start*Running-to-WaitMessages" style="stroke:#181818;stroke-width:1;"/><polygon fill="#181818" points="384.45,1060.1166,393.9932,1062.5512,389.3792,1059.2784,392.6521,1054.6644,384.45,1060.1166" style="stroke:#181818;stroke-width:1;"/></g><!--link WaitMessages to ApplySetConfig--><g class="link" data-entity-1="ent0020" data-entity-2="ent0005" data-link-type="dependency" data-source-line="22" id="lnk22"><path d="M323.59,1039.5866 C321.1,1020.3166 318.3507,999.1869 315.6307,978.1869" fill="none" id="WaitMessages-to-ApplySetConfig" style="stroke:#181818;stroke-width:1;"/><polygon fill="#181818" points="314.86,972.2366,312.0492,981.6758,315.5023,977.1951,319.9829,980.6482,314.86,972.2366" style="stroke:#181818;stroke-width:1;"/><text fill="#000000" font-family="sans-serif" font-size="13" lengthAdjust="spacing" textLength="130.8633" x="326.7216" y="1003.4149">tcu/plat/{gun}/event</text><text fill="#000000" font-family="sans-serif" font-size="13" lengthAdjust="spacing" textLength="140.0864" x="322.11" y="1018.7255">(type/cmd=setConfig)</text></g><!--link ApplySetConfig to WaitMessages--><g class="link" data-entity-1="ent0005" data-entity-2="ent0020" data-link-type="dependency" data-source-line="25" id="lnk23"><path d="M309.98,971.9666 C310.1,987.1366 310.97,1005.5366 313.74,1021.8466 C314.74,1027.7166 314.6168,1028.1593 316.3468,1033.9293" fill="none" id="ApplySetConfig-to-WaitMessages" style="stroke:#181818;stroke-width:1;"/><polygon fill="#181818" points="318.07,1039.6766,319.3167,1029.9069,316.634,1034.8872,311.6538,1032.2045,318.07,1039.6766" style="stroke:#181818;stroke-width:1;"/></g><!--link WaitMessages to UpdateState--><g class="link" data-entity-1="ent0020" data-entity-2="ent0024" data-link-type="dependency" data-source-line="27" id="lnk25"><path d="M269.02,1088.5666 C261.73,1093.8266 255.26,1100.1866 250.74,1107.8466 C243.51,1120.0966 242.91,1127.9766 250.74,1139.8466 C261.6,1156.3066 274.6457,1164.4559 292.9057,1170.6259" fill="none" id="WaitMessages-to-UpdateState" style="stroke:#181818;stroke-width:1;"/><polygon fill="#181818" points="298.59,1172.5466,291.3441,1165.876,293.8531,1170.946,288.7831,1173.455,298.59,1172.5466" style="stroke:#181818;stroke-width:1;"/><text fill="#000000" font-family="sans-serif" font-size="13" lengthAdjust="spacing" textLength="137.1475" x="251.74" y="1121.4149">tcu/logic/{gun}/event</text><text fill="#000000" font-family="sans-serif" font-size="13" lengthAdjust="spacing" textLength="135.5288" x="252.5493" y="1136.7255">(event=state_change)</text></g><!--link UpdateState to WaitMessages--><g class="link" data-entity-1="ent0024" data-entity-2="ent0020" data-link-type="dependency" data-source-line="28" id="lnk26"><path d="M378.26,1158.0166 C382.95,1152.5666 387.12,1146.4166 389.74,1139.8466 C395,1126.6266 396.45,1120.3866 389.74,1107.8466 C386.14,1101.1266 385.5141,1099.1695 379.6241,1094.1695" fill="none" id="UpdateState-to-WaitMessages" style="stroke:#181818;stroke-width:1;"/><polygon fill="#181818" points="375.05,1090.2866,379.3225,1099.1604,378.8618,1093.5224,384.4998,1093.0616,375.05,1090.2866" style="stroke:#181818;stroke-width:1;"/></g><!--link WaitMessages to UpdateFee--><g class="link" data-entity-1="ent0020" data-entity-2="ent0027" data-link-type="dependency" data-source-line="30" id="lnk28"><path d="M377.83,1090.1366 C387.41,1095.4766 397.12,1101.4666 405.74,1107.8466 C421.91,1119.8066 422.81,1126.3666 437.74,1139.8466 C444.39,1145.8466 447.1121,1148.26 454.1421,1154.03" fill="none" id="WaitMessages-to-UpdateFee" style="stroke:#181818;stroke-width:1;"/><polygon fill="#181818" points="458.78,1157.8366,454.3609,1149.0347,454.9151,1154.6644,449.2855,1155.2186,458.78,1157.8366" style="stroke:#181818;stroke-width:1;"/><text fill="#000000" font-family="sans-serif" font-size="13" lengthAdjust="spacing" textLength="151.2266" x="438.74" y="1128.9149">tcu/logic/{gun}/feeData</text></g><!--link UpdateFee to WaitMessages--><g class="link" data-entity-1="ent0027" data-entity-2="ent0020" data-link-type="dependency" data-source-line="31" id="lnk29"><path d="M535.84,1174.6566 C556.26,1168.7966 578.42,1158.3666 590.74,1139.8466 C598.62,1128.0066 599.97,1118.6666 590.74,1107.8466 C564.75,1077.3966 459.9167,1069.1149 390.3767,1066.8149" fill="none" id="UpdateFee-to-WaitMessages" style="stroke:#181818;stroke-width:1;"/><polygon fill="#181818" points="384.38,1066.6166,393.2429,1070.9119,389.3773,1066.7818,393.5073,1062.9163,384.38,1066.6166" style="stroke:#181818;stroke-width:1;"/></g><!--link WaitMessages to UpdateYc--><g class="link" data-entity-1="ent0020" data-entity-2="ent0006" data-link-type="dependency" data-source-line="33" id="lnk30"><path d="M269.17,1067.2566 C203.41,1070.2366 101.76,1079.4266 77.74,1107.8466 C68.56,1118.7066 70.47,1127.6266 77.74,1139.8466 C81.84,1146.7266 82.7332,1148.9097 89.1332,1153.8297" fill="none" id="WaitMessages-to-UpdateYc" style="stroke:#181818;stroke-width:1;"/><polygon fill="#181818" points="93.89,1157.4866,89.1926,1148.8301,89.926,1154.4392,84.3168,1155.1726,93.89,1157.4866" style="stroke:#181818;stroke-width:1;"/><text fill="#000000" font-family="sans-serif" font-size="13" lengthAdjust="spacing" textLength="123.0811" x="78.74" y="1121.4149">tcu/pile/{gun}/data</text><text fill="#000000" font-family="sans-serif" font-size="13" lengthAdjust="spacing" textLength="59.3188" x="110.6211" y="1136.7255">(type=yc)</text></g><!--link UpdateYc to WaitMessages--><g class="link" data-entity-1="ent0006" data-entity-2="ent0020" data-link-type="dependency" data-source-line="35" id="lnk31"><path d="M183.36,1157.3666 C205.73,1137.3866 234.54,1111.9666 240.74,1107.8466 C250.29,1101.5066 255.5961,1098.2547 266.0561,1092.9147" fill="none" id="UpdateYc-to-WaitMessages" style="stroke:#181818;stroke-width:1;"/><polygon fill="#181818" points="271.4,1090.1866,261.5654,1090.7162,266.9468,1092.46,265.2029,1097.8414,271.4,1090.1866" style="stroke:#181818;stroke-width:1;"/></g><path d="M19.5,1279.4683 L647.0224,1279.4683 A12.5,12.5 0 0 1 659.5224,1291.9683 L659.5224,1305.9566 L7,1305.9566 L7,1291.9683 A12.5,12.5 0 0 1 19.5,1279.4683" fill="#F1F1F1"/><rect fill="none" height="687.3522" rx="12.5" ry="12.5" style="stroke:#181818;stroke-width:0.5;" width="652.5224" x="7" y="1279.4683"/><line style="stroke:#181818;stroke-width:0.5;" x1="7" x2="659.5224" y1="1305.9566" y2="1305.9566"/><text fill="#000000" font-family="sans-serif" font-size="14" lengthAdjust="spacing" textLength="69.7334" x="298.3945" y="1298.0034">UI&#29366;&#24577;&#26144;&#23556;</text><g><rect fill="#F1F1F1" height="50.6211" rx="12.5" ry="12.5" style="stroke:#181818;stroke-width:0.5;" width="56" x="320.83" y="1373.9566"/><line style="stroke:#181818;stroke-width:0.5;" x1="320.83" x2="376.83" y1="1400.4448" y2="1400.4448"/><text fill="#000000" font-family="sans-serif" font-size="14" lengthAdjust="spacing" textLength="29.5723" x="334.0439" y="1392.4917">IDLE</text><text fill="#000000" font-family="sans-serif" font-size="12" lengthAdjust="spacing" textLength="36" x="325.83" y="1417.0464">&#35831;&#25554;&#26538;</text></g><g><rect fill="#F1F1F1" height="50.6211" rx="12.5" ry="12.5" style="stroke:#181818;stroke-width:0.5;" width="80" x="187.83" y="1477.5766"/><line style="stroke:#181818;stroke-width:0.5;" x1="187.83" x2="267.83" y1="1504.0648" y2="1504.0648"/><text fill="#000000" font-family="sans-serif" font-size="14" lengthAdjust="spacing" textLength="58.0166" x="198.8217" y="1496.1117">PREPARE</text><text fill="#000000" font-family="sans-serif" font-size="12" lengthAdjust="spacing" textLength="60" x="192.83" y="1520.6664">&#26174;&#31034;&#20108;&#32500;&#30721;</text></g><g><rect fill="#F1F1F1" height="50.6211" rx="12.5" ry="12.5" style="stroke:#181818;stroke-width:0.5;" width="91.3906" x="182.14" y="1581.1966"/><line style="stroke:#181818;stroke-width:0.5;" x1="182.14" x2="273.5306" y1="1607.6848" y2="1607.6848"/><text fill="#000000" font-family="sans-serif" font-size="14" lengthAdjust="spacing" textLength="68.25" x="193.7103" y="1599.7317">STARTING</text><text fill="#000000" font-family="sans-serif" font-size="12" lengthAdjust="spacing" textLength="71.3906" x="187.14" y="1624.2864">&#20805;&#30005;&#21551;&#21160;&#20013;...</text></g><g><rect fill="#F1F1F1" height="50.6211" rx="12.5" ry="12.5" style="stroke:#181818;stroke-width:0.5;" width="169.666" x="19" y="1684.8166"/><line style="stroke:#181818;stroke-width:0.5;" x1="19" x2="188.666" y1="1711.3048" y2="1711.3048"/><text fill="#000000" font-family="sans-serif" font-size="14" lengthAdjust="spacing" textLength="73.0967" x="67.2847" y="1703.3517">CHARGING</text><text fill="#000000" font-family="sans-serif" font-size="12" lengthAdjust="spacing" textLength="149.666" x="24" y="1727.9064">&#26174;&#31034; U/I/P/&#37329;&#39069;/&#30005;&#37327;/&#26102;&#38271;</text></g><g><rect fill="#F1F1F1" height="50.6211" rx="12.5" ry="12.5" style="stroke:#181818;stroke-width:0.5;" width="87.2383" x="257.21" y="1788.4366"/><line style="stroke:#181818;stroke-width:0.5;" x1="257.21" x2="344.4483" y1="1814.9248" y2="1814.9248"/><text fill="#000000" font-family="sans-serif" font-size="14" lengthAdjust="spacing" textLength="67.2383" x="267.21" y="1806.9717">STOPPING</text><text fill="#000000" font-family="sans-serif" font-size="12" lengthAdjust="spacing" textLength="47.3906" x="262.21" y="1831.5264">&#20572;&#27490;&#20013;...</text></g><g><rect fill="#F1F1F1" height="64.7539" rx="12.5" ry="12.5" style="stroke:#181818;stroke-width:0.5;" width="128" x="339.83" y="1892.0666"/><line style="stroke:#181818;stroke-width:0.5;" x1="339.83" x2="467.83" y1="1918.5548" y2="1918.5548"/><text fill="#000000" font-family="sans-serif" font-size="14" lengthAdjust="spacing" textLength="60.8193" x="373.4203" y="1910.6017">STOPPED</text><text fill="#000000" font-family="sans-serif" font-size="12" lengthAdjust="spacing" textLength="60" x="344.83" y="1935.1564">&#24050;&#23436;&#25104;&#20805;&#30005;</text><text fill="#000000" font-family="sans-serif" font-size="12" lengthAdjust="spacing" textLength="108" x="344.83" y="1949.2892">&#26174;&#31034;&#26368;&#32456;&#37329;&#39069;&#19982;&#30005;&#37327;</text></g><ellipse cx="348.83" cy="1326.9566" fill="#222222" rx="10" ry="10" style="stroke:#222222;stroke-width:1;"/><!--link *start*UiState to IDLE--><g class="link" data-entity-1="ent0032" data-entity-2="ent0008" data-link-type="dependency" data-source-line="39" id="lnk33"><path d="M348.83,1337.4366 C348.83,1346.6566 348.83,1355.0666 348.83,1367.5366" fill="none" id="*start*UiState-to-IDLE" style="stroke:#181818;stroke-width:1;"/><polygon fill="#181818" points="348.83,1373.5366,352.83,1364.5366,348.83,1368.5366,344.83,1364.5366,348.83,1373.5366" style="stroke:#181818;stroke-width:1;"/></g><!--link IDLE to PREPARE--><g class="link" data-entity-1="ent0008" data-entity-2="ent0009" data-link-type="dependency" data-source-line="41" id="lnk34"><path d="M320.41,1402.2766 C272.06,1406.3566 177.04,1417.4366 156.83,1442.5766 C142.95,1459.8566 159.2571,1473.148 182.2171,1484.128" fill="none" id="IDLE-to-PREPARE" style="stroke:#181818;stroke-width:1;"/><polygon fill="#181818" points="187.63,1486.7166,181.2364,1479.2251,183.1193,1484.5594,177.785,1486.4423,187.63,1486.7166" style="stroke:#181818;stroke-width:1;"/><text fill="#000000" font-family="sans-serif" font-size="13" lengthAdjust="spacing" textLength="168.105" x="157.83" y="1456.1449">state_change(to=PREPARE)</text></g><!--link PREPARE to STARTING--><g class="link" data-entity-1="ent0009" data-entity-2="ent0010" data-link-type="dependency" data-source-line="44" id="lnk35"><path d="M227.83,1528.4866 C227.83,1544.3466 227.83,1558.8966 227.83,1574.7866" fill="none" id="PREPARE-to-STARTING" style="stroke:#181818;stroke-width:1;"/><polygon fill="#181818" points="227.83,1580.7866,231.83,1571.7866,227.83,1575.7866,223.83,1571.7866,227.83,1580.7866" style="stroke:#181818;stroke-width:1;"/><text fill="#000000" font-family="sans-serif" font-size="13" lengthAdjust="spacing" textLength="177.6074" x="228.83" y="1559.7649">state_change(to=STARTING)</text></g><!--link PREPARE to IDLE--><g class="link" data-entity-1="ent0009" data-entity-2="ent0008" data-link-type="dependency" data-source-line="45" id="lnk36"><path d="M267.88,1492.8166 C287.88,1486.4766 311.11,1476.0866 326.83,1459.5766 C335.85,1450.1166 339.6542,1442.4259 342.8442,1430.7059" fill="none" id="PREPARE-to-IDLE" style="stroke:#181818;stroke-width:1;"/><polygon fill="#181818" points="344.42,1424.9166,338.1967,1432.5501,343.1069,1429.741,345.9159,1434.6512,344.42,1424.9166" style="stroke:#181818;stroke-width:1;"/><text fill="#000000" font-family="sans-serif" font-size="13" lengthAdjust="spacing" textLength="141.6924" x="338.35" y="1456.1449">state_change(to=IDLE)</text></g><!--link STARTING to CHARGING--><g class="link" data-entity-1="ent0010" data-entity-2="ent0011" data-link-type="dependency" data-source-line="48" id="lnk37"><path d="M181.92,1610.1766 C154.14,1614.4466 120.73,1624.8766 102.83,1649.8166 C95.81,1659.6066 94.5722,1666.8968 96.2122,1678.3868" fill="none" id="STARTING-to-CHARGING" style="stroke:#181818;stroke-width:1;"/><polygon fill="#181818" points="97.06,1684.3266,99.7482,1674.8517,96.3535,1679.3767,91.8284,1675.9821,97.06,1684.3266" style="stroke:#181818;stroke-width:1;"/><text fill="#000000" font-family="sans-serif" font-size="13" lengthAdjust="spacing" textLength="182.1079" x="103.83" y="1663.3849">state_change(to=CHARGING)</text></g><!--link STARTING to STOPPING--><g class="link" data-entity-1="ent0010" data-entity-2="ent0012" data-link-type="dependency" data-source-line="49" id="lnk38"><path d="M271.76,1632.1266 C277.69,1637.2366 283.03,1643.1366 286.83,1649.8166 C311.61,1693.3766 309.6039,1748.3704 305.5139,1782.0204" fill="none" id="STARTING-to-STOPPING" style="stroke:#181818;stroke-width:1;"/><polygon fill="#181818" points="304.79,1787.9766,309.8467,1779.5249,305.3933,1783.0131,301.9051,1778.5597,304.79,1787.9766" style="stroke:#181818;stroke-width:1;"/><text fill="#000000" font-family="sans-serif" font-size="13" lengthAdjust="spacing" textLength="176.668" x="308.29" y="1715.1949">state_change(to=STOPPING)</text></g><!--link CHARGING to STOPPING--><g class="link" data-entity-1="ent0011" data-entity-2="ent0012" data-link-type="dependency" data-source-line="52" id="lnk39"><path d="M99.65,1735.6666 C99.06,1747.4966 100.67,1761.1066 108.83,1770.4366 C127.94,1792.2766 200.3723,1803.1452 250.8923,1808.4052" fill="none" id="CHARGING-to-STOPPING" style="stroke:#181818;stroke-width:1;"/><polygon fill="#181818" points="256.86,1809.0266,248.3226,1804.1161,251.8869,1808.5088,247.4942,1812.073,256.86,1809.0266" style="stroke:#181818;stroke-width:1;"/><text fill="#000000" font-family="sans-serif" font-size="13" lengthAdjust="spacing" textLength="176.668" x="109.83" y="1767.0049">state_change(to=STOPPING)</text></g><!--link STOPPING to STOPPED--><g class="link" data-entity-1="ent0012" data-entity-2="ent0013" data-link-type="dependency" data-source-line="55" id="lnk40"><path d="M305.05,1839.4766 C307.98,1850.9366 312.84,1864.1766 320.83,1874.0666 C326.21,1880.7166 327.9499,1883.0634 334.9499,1888.3434" fill="none" id="STOPPING-to-STOPPED" style="stroke:#181818;stroke-width:1;"/><polygon fill="#181818" points="339.74,1891.9566,334.9636,1883.3435,335.7482,1888.9456,330.1461,1889.7303,339.74,1891.9566" style="stroke:#181818;stroke-width:1;"/><text fill="#000000" font-family="sans-serif" font-size="13" lengthAdjust="spacing" textLength="170.7075" x="321.83" y="1870.6349">state_change(to=STOPPED)</text></g><!--link STOPPED to IDLE--><g class="link" data-entity-1="ent0013" data-entity-2="ent0008" data-link-type="dependency" data-source-line="58" id="lnk41"><path d="M468.31,1896.3966 C477.59,1890.1966 486.22,1882.7966 492.83,1874.0666 C509.18,1852.4666 506.83,1841.8366 506.83,1814.7566 C506.83,1501.8866 506.83,1501.8866 506.83,1501.8866 C506.83,1473.7766 505.24,1461.9166 484.83,1442.5766 C455.31,1414.5966 413.5367,1405.7376 383.1867,1402.5276" fill="none" id="STOPPED-to-IDLE" style="stroke:#181818;stroke-width:1;"/><polygon fill="#181818" points="377.22,1401.8966,385.7494,1406.821,382.1923,1402.4225,386.5908,1398.8654,377.22,1401.8966" style="stroke:#181818;stroke-width:1;"/><text fill="#000000" font-family="sans-serif" font-size="13" lengthAdjust="spacing" textLength="141.6924" x="507.83" y="1663.3849">state_change(to=IDLE)</text></g><ellipse cx="333.26" cy="53.4883" fill="#222222" rx="10" ry="10" style="stroke:#222222;stroke-width:1;"/><!--link *start* to AppStart--><g class="link" data-entity-1="ent0002" data-entity-2="ent0002" data-link-type="dependency" data-source-line="4" id="lnk3"><path d="M333.26,63.8783 C333.26,77.8483 333.26,98.6083 333.26,118.3683" fill="none" id="*start*-to-AppStart" style="stroke:#181818;stroke-width:1;"/><polygon fill="#181818" points="333.26,124.3683,337.26,115.3683,333.26,119.3683,329.26,115.3683,333.26,124.3683" style="stroke:#181818;stroke-width:1;"/></g><!--link AppStart to InitWindow--><g class="link" data-entity-1="ent0002" data-entity-2="ent0003" data-link-type="dependency" data-source-line="6" id="lnk4"><path d="M333.26,175.5983 C333.26,193.8383 333.26,214.7683 333.26,245.7683" fill="none" id="AppStart-to-InitWindow" style="stroke:#181818;stroke-width:1;"/><polygon fill="#181818" points="333.26,251.7683,337.26,242.7683,333.26,246.7683,329.26,242.7683,333.26,251.7683" style="stroke:#181818;stroke-width:1;"/><text fill="#000000" font-family="sans-serif" font-size="13" lengthAdjust="spacing" textLength="144.8535" x="334.26" y="218.6766">HmiWindow::initialize()</text></g><!--link InitWindow to Running--><g class="link" data-entity-1="ent0003" data-entity-2="ent0004" data-link-type="dependency" data-source-line="17" id="lnk18"><path d="M333.26,808.0283 C333.26,828.4983 333.26,842.7783 333.26,862.3383" fill="none" id="InitWindow-to-Running" style="stroke:#181818;stroke-width:1;"/><polygon fill="#181818" points="333.26,868.3383,337.26,859.3383,333.26,863.3383,329.26,859.3383,333.26,868.3383" style="stroke:#181818;stroke-width:1;"/></g><!--link Running to UiState--><g class="link" data-entity-1="ent0004" data-entity-2="ent0007" data-link-type="dependency" data-source-line="61" id="lnk42"><path d="M333.26,1218.6183 C333.26,1238.1283 333.26,1252.4783 333.26,1273.2183" fill="none" id="Running-to-UiState" style="stroke:#181818;stroke-width:1;"/><polygon fill="#181818" points="333.26,1279.2183,337.26,1270.2183,333.26,1274.2183,329.26,1270.2183,333.26,1279.2183" style="stroke:#181818;stroke-width:1;"/></g><?plantuml-src bLHRInj157xVNp7uP0IpzZMGGaYYBcWRSa5ABJBkZd5WCnkpaqgKW4954LjjiLMeRQtqePHweLWLnVRFkBlcNtHczf9f4cbzsZdd-yvtBdDcAQOc0bIlJyrMC73Mzs-lhsykNddhP-xIyktrT_Vb0IYDZodAqu5dO73m8KXLgmKAQrInAQGeCa42L20c_J4byd2sHZ2TmCImvXbXj8BzSoA1cHz34oyW5X58ITn51O0muPW5ZRH5Pd2PETj693y-Hob3mgFm5-hJjbx3quW1qTb7U6b5N44r3aM6m8RhfbdGQmWHXhKDWR5gbAQYI3LoRxvE22Rbi8F0_Aly2SZgGhODoyXMc5-smu6QZGAYGLi9VXbgrOHKNIpNILD5pn6XawIVDgf8rIj6qWwvCIRN5Us-FtNVdG0MchRgXAgwiQ0PAZCrenVTs_xahcs1kLeEDamst6xEVpLHgXfi00Kn1Ry3qofZlQC5yKsAMKtfiv2K4Mz1Zhr7ic7KAzKCGXb8OIJBMVSGVQA75u1D54WoFmpcdspexOe5z_ReitUq0whMFAebImEQ-c1eQ4YcT2LlXjlILzByP-RkxZidB_e0j449-tEGDqZBZ6NvWhCFJtXyxcw-SJz-2rsSaijdSwayX-NXzbCh6I0ntdERvUx-yhvStbnkU5UdtlwoX8atKapbYzgZaHvo8HJh20cAwwHpjqWjIJehAzxsJsVhs5d_UdDn68_7PPoBfKTJ-P7U-KCerXbJA3xEvUwgsOT48PAsFmHGKZKrfxPMNxSEFgYiijRgfkhkdBNU_fRfzyaXyPpbFVVmG6epG2AvREOkjMocBIPOplaFvsY3lLP_WfF4Ry3TM_Akrlpw-PzRT205_lDws4A6Foxn4FmLLFu0?></g></svg>